<svg width="222" height="169" viewBox="0 0 222 169" fill="none" xmlns="http://www.w3.org/2000/svg">
<g clip-path="url(#clip0_1_168)">
<path d="M167.197 92.628C172.744 88.5494 181.851 91.5627 181.851 101.376C184.517 95.8694 196.171 97.2027 195.571 106.429C199.184 104.043 204.171 106.203 204.011 111.309C208.904 108.683 217.891 114.083 215.932 122.056C213.277 121.189 210.144 121.643 207.571 123.763C206.011 117.696 199.611 115.816 194.011 116.203C189.652 116.508 185.957 119.803 184.557 123.256C182.117 121.723 178.904 121.389 175.344 122.203C169.237 123.589 165.677 127.376 164.904 132.643C162.171 127.536 154.677 129.696 153.784 134.429C151.851 127.536 145.011 125.536 140.344 126.043C136.331 126.469 131.184 128.709 129.664 134.589C126.344 131.401 120.971 129.056 115.117 129.536C110.717 129.896 106.637 132.163 104.144 135.508C103.477 129.628 92.0908 127.416 87.8241 132.936C85.7708 130.536 82.3041 128.683 78.5174 128.363C74.7308 128.056 69.6641 129.029 66.7441 132.483C65.9174 127.004 58.3974 123.628 53.1708 125.628C51.5308 119.389 39.1308 114.869 33.3441 125.096C32.6774 118.869 27.7841 116.429 23.3441 116.429C16.6641 116.429 13.1174 121.536 12.9041 124.643C11.3041 123.749 9.51745 123.536 7.81078 123.869C5.65211 115.989 14.9441 109.949 20.2374 113.536C18.9041 105.536 28.6775 102.203 33.1841 107.536C31.3575 100.376 38.8241 95.3227 44.6241 97.456C46.6521 90.056 59.0508 85.7227 65.3441 93.976C66.2374 88.6427 71.4375 85.1494 77.8508 86.0427C80.8374 86.456 83.1841 87.9494 84.6908 89.816C86.9041 83.7894 96.2654 82.5227 99.3441 87.8694C101.277 77.1107 119.637 72.1747 127.011 83.5627C129.464 82.3227 132.531 81.9614 136.011 82.8694C141.571 84.3227 144.517 89.0294 144.904 92.6427C148.291 82.8694 164.144 84.6427 167.184 92.628H167.197Z" fill="#D87639"/>
<path d="M33.344 125.096C39.1307 114.869 51.5307 119.389 53.1707 125.628C58.3974 123.628 65.9174 127.004 66.744 132.483C69.664 129.029 74.7307 128.056 78.5174 128.363C82.304 128.683 85.7707 130.536 87.824 132.936C92.0907 127.416 103.477 129.628 104.144 135.508C106.637 132.163 110.717 129.896 115.117 129.536C120.971 129.056 126.344 131.401 129.664 134.589C131.184 128.709 136.331 126.469 140.344 126.043C145.011 125.536 151.851 127.536 153.784 134.429C154.677 129.696 162.171 127.536 164.904 132.643C165.677 127.376 169.237 123.589 175.344 122.203C178.904 121.389 182.117 121.723 184.557 123.256C185.892 119.964 189.321 116.847 193.415 116.295C190.04 113.029 183.727 113.501 181.851 117.376C181.851 107.563 172.744 104.549 167.197 108.628H167.184C164.144 100.643 148.291 98.8694 144.904 108.643C144.517 105.029 141.571 100.323 136.011 98.8694C132.531 97.9614 129.464 98.3227 127.011 99.5627C119.637 88.1747 101.277 93.1107 99.344 103.869C96.2654 98.5227 86.904 99.7894 84.6907 105.816C83.184 103.949 80.8374 102.456 77.8507 102.043C71.4374 101.149 66.2374 104.643 65.344 109.976C59.0507 101.723 46.652 106.056 44.624 113.456C38.824 111.323 31.3574 116.376 33.184 123.536L33.016 123.368C33.16 123.912 33.2774 124.48 33.344 125.096Z" fill="#B74F2F"/>
<path d="M192.23 126.647C192.23 137.875 158.652 146.98 117.23 146.98C75.8105 146.98 42.2305 137.875 42.2305 126.647C42.2305 115.419 75.8105 106.313 117.23 106.313C158.652 106.313 192.23 115.419 192.23 126.647Z" fill="#612D26"/>
<path d="M215.932 122.056C219.411 123.174 222.104 126.536 221.784 131.309C221.291 138.856 216.331 141.11 211.224 140.376C211.224 141.734 210.917 143.189 210.237 144.642C207.877 149.749 199.571 151.762 191.571 148.202C189.599 158.802 175.571 159.389 170.117 155.961C167.371 162.189 158.265 163.976 153.397 160.016C151.304 166.216 140.104 167.456 136.171 161.202C132.517 166.536 126.291 169.202 116.171 168.202C110.599 167.642 107.171 165.789 105.144 163.496C96.4508 171.777 81.7974 166.362 79.5041 159.202C77.1841 162.362 71.8508 164.362 65.3441 163.202C61.7041 162.549 58.0374 160.082 56.3841 156.496C51.0774 162.869 38.1174 159.628 37.1841 151.869C30.9574 154.149 19.5041 153.536 15.8508 148.042C14.5708 146.122 13.8374 144.256 13.5307 142.496C5.47741 143.11 0.304088 139.522 0.0107543 133.536C-0.229246 128.682 3.58409 124.656 7.81075 123.869C9.51742 123.536 11.3041 123.749 12.9041 124.642C13.1174 121.536 16.6641 116.429 23.3441 116.429C27.7841 116.429 32.6774 118.869 33.3441 125.096C39.1308 114.869 51.5308 119.389 53.1707 125.628C58.3974 123.628 65.9174 127.004 66.7441 132.482C69.6641 129.029 74.7308 128.056 78.5174 128.362C82.3041 128.682 85.7707 130.536 87.8241 132.936C92.0907 127.416 103.477 129.628 104.144 135.508C106.637 132.162 110.717 129.896 115.117 129.536C120.971 129.056 126.344 131.401 129.664 134.589C131.184 128.709 136.331 126.469 140.344 126.042C145.011 125.536 151.851 127.536 153.784 134.429C154.677 129.696 162.171 127.536 164.904 132.642C165.677 127.376 169.237 123.589 175.344 122.202C178.904 121.389 182.117 121.722 184.557 123.256C185.957 119.802 189.652 116.508 194.011 116.202C199.611 115.816 206.011 117.696 207.571 123.762C210.144 121.642 213.277 121.189 215.932 122.056Z" fill="#E88D3A"/>
<path d="M216.549 122.313C215.979 129.284 211.319 131.377 206.513 130.688C206.513 131.984 206.221 133.369 205.575 134.753C203.324 139.62 195.408 141.54 187.784 138.146C185.903 148.249 172.535 148.808 167.337 145.542C164.719 151.477 156.043 153.18 151.403 149.404C149.407 155.313 138.735 156.496 134.985 150.536C131.501 155.618 125.568 158.161 115.924 157.208C110.612 156.673 107.345 154.906 105.415 152.722C97.1293 160.613 83.1626 155.453 80.9786 148.63C78.7666 151.641 73.684 153.548 67.484 152.442C64.0133 151.82 60.5186 149.469 58.944 146.05C53.8853 152.124 41.536 149.037 40.6453 141.641C34.7106 143.813 23.7946 143.229 20.3133 137.993C19.0933 136.165 18.3933 134.386 18.1013 132.709C10.6973 133.272 5.8613 130.105 5.2773 124.757C2.18396 126.362 -0.178703 129.685 0.0106299 133.536C0.303963 139.523 5.47728 143.11 13.5306 142.496C13.8373 144.256 14.5706 146.122 15.8506 148.042C19.504 153.536 30.9573 154.149 37.184 151.869C38.1173 159.628 51.0773 162.869 56.384 156.496C58.0373 160.082 61.704 162.549 65.344 163.202C71.8506 164.362 77.184 162.362 79.504 159.202C81.7973 166.362 96.4506 171.777 105.144 163.496C107.171 165.789 110.599 167.642 116.171 168.202C126.291 169.202 132.517 166.536 136.171 161.202C140.104 167.456 151.304 166.216 153.397 160.016C158.265 163.976 167.371 162.189 170.117 155.961C175.571 159.389 189.599 158.802 191.571 148.202C199.571 151.762 207.877 149.749 210.237 144.642C210.917 143.189 211.224 141.734 211.224 140.376C216.331 141.11 221.291 138.856 221.784 131.309C222.085 126.829 219.719 123.617 216.549 122.313Z" fill="#D87639"/>
<path d="M55.1815 134.811L54.9202 134.617C54.5682 134.193 54.1375 133.844 53.6402 133.605C53.2149 132.292 52.3428 131.152 51.0602 130.349C50.2442 129.84 49.1309 129.568 48.1149 129.664C48.1389 129.411 48.1575 129.157 48.1415 128.913C48.0402 127.477 47.5349 126.321 46.5815 125.245C45.0082 123.471 41.9455 123.571 40.3549 125.215C39.1842 126.423 39.0469 128.049 39.6482 129.375C39.3722 130.543 39.7975 131.825 40.6002 132.709C41.2895 133.472 42.5349 133.824 43.5482 133.757C43.0309 134.967 42.9269 136.381 43.2762 137.599C43.9682 139.996 46.1562 140.976 48.3695 140.852C49.1775 140.987 50.0135 140.996 50.8882 140.975L51.0162 141.029H51.0215C52.4175 141.603 53.9709 141.472 55.1815 140.261C56.5455 138.896 56.8229 136.128 55.1815 134.811Z" fill="#F1AC56"/>
<path d="M74.7413 133.436C73.4333 133.736 72.1173 134.356 71.052 135.235C70.728 135.027 70.3759 134.852 69.9799 134.691C71.5559 135.335 70.6053 134.915 70.22 134.723C69.2213 134.223 68.5386 134.073 67.4373 133.957C66.5919 133.869 65.5346 134.181 64.8213 134.623C63.972 135.149 63.0173 136.117 62.8679 137.136C62.7053 138.243 62.7039 138.416 62.8693 139.52C63.0626 140.824 64.4119 141.931 65.6066 142.259C65.9839 142.363 66.3853 142.399 66.788 142.381L66.9346 142.436C67.8026 142.664 68.6013 142.56 69.3933 142.308C69.6639 142.844 69.9973 143.347 70.4119 143.784C70.9146 144.973 71.8973 145.985 73.3626 146.471C75.9879 147.34 79.3253 146.871 81.5226 145.232C84.8373 142.764 86.0466 138.473 83.1053 135.175C81.1479 132.981 77.3959 132.827 74.7413 133.436Z" fill="#F1AC56"/>
<path d="M58.6787 128.947C57.1467 128.947 55.8667 130.225 55.8667 131.759C55.8667 133.292 57.1467 134.571 58.6787 134.571C60.2107 134.571 61.4907 133.292 61.4907 131.759C61.4907 130.225 60.2107 128.947 58.6787 128.947Z" fill="#F1AC56"/>
<path d="M131.567 142.984C130.176 142.984 129.015 144.144 129.015 145.536C129.015 146.928 130.176 148.088 131.567 148.088C132.957 148.088 134.119 146.928 134.119 145.536C134.119 144.144 132.957 142.984 131.567 142.984Z" fill="#F1AC56"/>
<path d="M99.4637 138.909C98.4344 138.453 97.6544 138.199 96.4984 138.173C95.4557 138.149 94.3891 138.576 93.4891 139.043C91.0344 140.313 89.7931 143.699 91.3291 146.108C91.7984 146.841 92.4331 147.42 93.1758 147.792C93.7664 148.425 94.5278 148.896 95.3691 149.076C96.5944 149.337 97.6598 149.125 98.7771 148.573L98.9651 148.452C99.8224 147.783 99.9278 147.707 99.2771 148.225C99.6624 147.985 100.018 147.685 100.354 147.38C101.55 146.287 102.161 145.051 102.316 143.427C102.489 141.611 101.068 139.62 99.4637 138.909Z" fill="#F1AC56"/>
<path d="M125.972 138.461C124.272 136.704 121.888 135.884 119.511 135.635C116.511 135.324 114.049 136.177 112.268 138.701C112.056 139.004 111.877 139.312 111.719 139.625C110.403 139.028 108.832 138.941 107.403 139.188C107.089 139.243 106.793 139.343 106.512 139.472C104.556 140.16 103.231 142.317 103.468 144.373C103.728 146.629 105.1 148.527 107.413 149.04C109.399 149.48 111.303 148.972 112.855 147.688L112.887 147.655C113.891 148.761 115.245 149.595 116.852 149.951C117.26 150.043 117.664 150.088 118.069 150.113C118.955 150.277 119.861 150.232 120.701 149.977C120.835 149.988 120.964 150.003 121.1 150.008C126.775 150.248 129.768 142.388 125.972 138.461Z" fill="#F1AC56"/>
<path d="M147.533 134.633C147.505 134.424 147.467 134.216 147.4 134.011C147.043 132.928 145.977 131.84 144.724 131.975C143.361 132.12 142.179 132.619 141.444 133.863C141.044 134.54 140.953 135.269 141.052 135.961C138.824 136.093 136.981 137.791 136.911 140.073C136.852 140.264 136.801 140.453 136.765 140.641C136.432 142.331 137.22 144.412 139.116 144.783C140.339 145.021 141.421 145.123 142.648 144.889C144.907 144.459 146.269 142.393 146.356 140.203C146.379 139.617 146.237 139.059 145.995 138.543C147.015 137.936 147.691 136.787 147.625 135.62L147.636 135.54C147.625 135.16 147.504 134.319 147.533 134.633Z" fill="#F1AC56"/>
<path d="M189.011 128.552C188.14 128.552 187.335 128.852 186.674 129.34L186.574 129.085C186.444 128.811 186.138 127.953 186.527 129.128C186.338 128.559 186.058 127.912 185.712 127.397C184.106 124.993 181.6 123.999 178.768 124.425C180.416 124.177 178.534 124.389 177.983 124.573C177.146 124.852 176.39 125.245 175.759 125.876C174.552 127.081 174.012 128.96 174.46 130.616L174.402 130.963C173.759 130.928 173.067 130.999 172.587 131.173C171.431 131.593 170.703 132.207 169.975 133.079C169.56 132.947 169.131 132.853 168.678 132.853C166.571 132.853 164.783 134.417 164.41 136.428C163.991 136.045 163.524 135.716 163.082 135.477C161.679 134.724 160.128 134.488 158.579 134.883C156.89 135.312 155.479 137.04 155.546 138.817L155.492 138.884C154.906 139.712 154.944 140.873 155.15 141.805C155.376 142.844 156.263 143.759 157.139 144.311C158.155 144.952 159.491 145.199 160.676 145.079C162.044 144.944 163.687 144.596 164.647 143.504C165.238 142.831 165.716 142.157 165.93 141.268C165.984 141.037 166.002 140.821 166.022 140.604C166.763 141.187 167.679 141.552 168.678 141.552C169.358 141.552 169.995 141.375 170.574 141.087C170.804 141.253 171.048 141.396 171.307 141.516C171.72 142.203 172.508 142.92 173.324 143.053C174.499 143.245 175.462 143.456 176.663 143.216C178.432 142.863 179.548 141.149 180.128 139.581C180.35 138.984 180.422 138.389 180.386 137.813C181.22 137.811 182.044 137.707 182.742 137.551C184.027 137.263 185.274 136.371 186.12 135.241C186.852 136.021 187.878 136.52 189.011 136.52C191.183 136.52 192.995 134.708 192.995 132.536C192.995 130.364 191.183 128.552 189.011 128.552Z" fill="#F1AC56"/>
<path d="M202.826 122.079C202.099 120.753 200.944 120.016 199.58 119.48C198.475 119.044 196.971 118.896 195.85 119.324C194.007 120.024 192.642 121.451 192.642 123.536C192.642 124.376 192.871 125.103 193.256 125.724C193.342 126.707 193.679 127.34 194.28 128.116C194.674 128.623 195.31 128.993 195.895 129.256C197.126 129.813 198.516 130.359 199.874 129.84C201.532 129.207 202.546 128.133 203.156 126.483C203.694 125.031 203.57 123.433 202.826 122.079Z" fill="#F1AC56"/>
<mask id="mask0_1_168" style="mask-type:luminance" maskUnits="userSpaceOnUse" x="52" y="32" width="118" height="115">
<path d="M167.444 111.545C165.791 95.8786 163.538 81.1586 160.511 72.012C152.364 47.3333 133.364 32 110.898 32C88.4443 32 69.4443 47.3333 61.2977 72.012C58.0177 81.972 55.631 98.532 53.9243 115.732C53.231 122.772 52.6443 129.932 52.1523 136.772C65.0977 142.865 89.391 146.985 117.231 146.985C137.778 146.985 156.391 144.745 169.939 141.119C169.324 131.652 168.498 121.412 167.444 111.545Z" fill="white"/>
</mask>
<g mask="url(#mask0_1_168)">
<path d="M110.904 178.155C122.831 178.155 160.683 176.08 169.498 170.376C167.943 131.487 164.355 90.052 158.61 72.6333C150.886 49.2253 132.92 34.0053 110.904 34.0053C88.891 34.0053 70.923 49.2253 63.2017 72.6333C57.4537 90.052 53.8684 131.487 52.311 170.376C61.1257 176.08 98.9804 178.155 110.904 178.155Z" fill="#CD5C29"/>
<path d="M110.904 153.888C87.4804 153.888 66.9337 141.36 55.311 122.525C53.9537 137.649 52.9564 154.228 52.311 170.376C61.1257 176.08 98.9804 178.155 110.904 178.155C122.831 178.155 160.683 176.08 169.498 170.376C168.852 154.228 167.855 137.649 166.5 122.525C154.876 141.36 134.328 153.888 110.904 153.888Z" fill="#BA4927"/>
<path d="M59.6444 171.744C61.1124 135.068 64.495 95.9907 69.915 79.5627C77.199 57.4867 94.1444 43.1307 114.904 43.1307C135.667 43.1307 152.612 57.4867 159.896 79.5627C160.888 82.5747 160.11 77.1813 158.61 72.6333C150.886 49.2253 132.92 34.0053 110.904 34.0053C88.891 34.0053 70.923 49.2253 63.2017 72.6333C57.4537 90.052 53.8684 131.487 52.311 170.376C55.4044 172.377 61.683 173.063 59.6444 171.744Z" fill="#E6894A"/>
<path d="M54.3604 169.24C64.0324 174.089 98.279 176.155 110.904 176.155C123.53 176.155 157.779 174.089 167.451 169.24C165.59 123.864 161.584 88.036 156.71 73.26C149.128 50.2813 131.576 36.0053 110.904 36.0053C90.2324 36.0053 72.6804 50.2813 65.1004 73.26C60.2244 88.036 56.219 123.864 54.3604 169.24ZM110.904 180.155C103.576 180.155 61.4337 178.661 51.2243 172.056C50.631 171.672 50.2844 171.003 50.3137 170.296C51.2017 148.061 54.0524 93.976 61.3004 72.0066C69.4404 47.3333 88.4484 32.0053 110.904 32.0053C133.363 32.0053 152.368 47.3333 160.508 72.0066C167.756 93.976 170.607 148.061 171.498 170.296C171.524 171.003 171.178 171.672 170.584 172.056C160.378 178.661 118.235 180.155 110.904 180.155Z" fill="#100F0D"/>
<path d="M119.336 117.501L119.35 117.555C119.35 121.793 115.576 128.967 110.91 128.967C106.243 128.967 102.456 121.793 102.456 117.555L102.483 117.501C105.03 118.315 107.896 118.781 110.91 118.781C113.935 118.781 116.79 118.315 119.336 117.501Z" fill="#F8F8F8"/>
<path d="M110.91 92.9947C121.576 92.9947 130.243 98.768 130.243 105.888C130.243 110.995 125.79 115.407 119.336 117.501C116.79 118.315 113.935 118.781 110.91 118.781C107.896 118.781 105.03 118.315 102.483 117.501V117.488C96.0297 115.407 91.5763 110.995 91.5763 105.888C91.5763 98.768 100.23 92.9947 110.91 92.9947Z" fill="#FDEAB3"/>
<path d="M119.683 101.187C119.683 104.317 115.754 108.333 110.904 108.333C106.058 108.333 102.128 104.317 102.128 101.187C102.128 98.0587 106.058 97 110.904 97C115.754 97 119.683 98.0587 119.683 101.187Z" fill="#100F0D"/>
<path d="M110.655 100.204C110.776 101.023 109.67 101.869 108.186 102.093C106.699 102.317 105.391 101.836 105.268 101.016C105.147 100.197 106.251 99.3507 107.738 99.1267C109.222 98.9027 110.53 99.3853 110.655 100.204Z" fill="white"/>
<path d="M110.904 117.444C100.98 117.444 92.9043 112.26 92.9043 105.888C92.9043 99.5146 100.98 94.332 110.904 94.332C120.831 94.332 128.904 99.5146 128.904 105.888C128.904 112.26 120.831 117.444 110.904 117.444ZM111.904 127.469V120.075C113.97 120.007 115.951 119.732 117.816 119.276C117.123 122.593 114.67 126.639 111.904 127.469ZM103.995 119.276C105.858 119.732 107.842 120.007 109.904 120.075V127.469C107.142 126.639 104.688 122.593 103.995 119.276ZM131.571 105.888C131.571 98.0453 122.3 91.6653 110.904 91.6653C99.5083 91.6653 90.2377 98.0453 90.2377 105.888C90.2377 111.309 94.6723 116.029 101.175 118.428C101.634 123.027 105.516 130.304 110.904 130.304C116.295 130.304 120.175 123.027 120.636 118.428C127.139 116.029 131.571 111.309 131.571 105.888Z" fill="#100F0D"/>
<path d="M98.0004 107.129H87.4777C87.1097 107.129 86.811 106.832 86.811 106.463C86.811 106.095 87.1097 105.796 87.4777 105.796H98.0004C98.3684 105.796 98.667 106.095 98.667 106.463C98.667 106.832 98.3684 107.129 98.0004 107.129Z" fill="#100F0D"/>
<path d="M88.1124 115.175C87.8737 115.175 87.6417 115.045 87.5243 114.819C87.3523 114.493 87.4777 114.089 87.803 113.919L97.691 108.724C98.0137 108.553 98.4203 108.677 98.5897 109.004C98.7617 109.329 98.6364 109.732 98.311 109.903L88.423 115.099L88.1124 115.175Z" fill="#100F0D"/>
<path d="M98.0003 104.597L97.691 104.52L87.803 99.3253C87.4777 99.1546 87.3523 98.7506 87.5243 98.4253C87.6937 98.1 88.1003 97.976 88.423 98.1453L98.311 103.34C98.6364 103.511 98.7617 103.915 98.5897 104.24C98.4723 104.467 98.2403 104.597 98.0003 104.597Z" fill="#100F0D"/>
<path d="M134.331 107.129H123.811C123.44 107.129 123.144 106.832 123.144 106.463C123.144 106.095 123.44 105.796 123.811 105.796H134.331C134.702 105.796 134.998 106.095 134.998 106.463C134.998 106.832 134.702 107.129 134.331 107.129Z" fill="#100F0D"/>
<path d="M133.696 115.175L133.386 115.099L123.5 109.903C123.175 109.732 123.047 109.329 123.219 109.004C123.391 108.677 123.795 108.553 124.12 108.724L134.006 113.919C134.331 114.089 134.459 114.493 134.287 114.819C134.167 115.045 133.935 115.175 133.696 115.175Z" fill="#100F0D"/>
<path d="M123.811 104.597C123.571 104.597 123.339 104.467 123.219 104.24C123.047 103.915 123.175 103.511 123.5 103.34L133.386 98.1453C133.711 97.976 134.115 98.1 134.287 98.4253C134.459 98.7506 134.331 99.1546 134.006 99.3253L124.12 104.52L123.811 104.597Z" fill="#100F0D"/>
<path d="M87.1563 91.888C87.1563 95.816 83.9724 99 80.0444 99C76.1177 99 72.9337 95.816 72.9337 91.888C72.9337 87.96 76.1177 84.7773 80.0444 84.7773C83.9724 84.7773 87.1563 87.96 87.1563 91.888Z" fill="#100F0D"/>
<path d="M80.043 90C80.043 91.1653 79.0977 92.1107 77.9337 92.1107C76.767 92.1107 75.8217 91.1653 75.8217 90C75.8217 88.8347 76.767 87.8893 77.9337 87.8893C79.0977 87.8893 80.043 88.8347 80.043 90Z" fill="white"/>
<path d="M67.8217 76.7213C75.4284 77.8453 89.4043 80.5827 98.339 84.1693C101.462 77.0893 102.084 68.9613 99.5657 61.356C99.6363 65.628 99.123 68.8747 98.2843 71.2933C86.8217 65.8373 75.9537 62.9507 72.1097 62.136C70.2377 65.2627 68.055 71.852 67.8217 76.7213Z" fill="#100F0D"/>
<path d="M148.876 91.888C148.876 95.816 145.691 99 141.764 99C137.836 99 134.652 95.816 134.652 91.888C134.652 87.96 137.836 84.7773 141.764 84.7773C145.691 84.7773 148.876 87.96 148.876 91.888Z" fill="#100F0D"/>
<path d="M141.762 90C141.762 91.1653 140.816 92.1107 139.652 92.1107C138.486 92.1107 137.54 91.1653 137.54 90C137.54 88.8347 138.486 87.8893 139.652 87.8893C140.816 87.8893 141.762 88.8347 141.762 90Z" fill="white"/>
<path d="M153.988 76.7213C146.38 77.8453 132.407 80.5827 123.47 84.1693C120.35 77.0893 119.724 68.9613 122.243 61.356C122.172 65.628 122.686 68.8747 123.524 71.2933C134.988 65.8373 145.858 62.9507 149.702 62.136C151.574 65.2627 153.756 71.852 153.988 76.7213Z" fill="#100F0D"/>
</g>
<path d="M50.4895 136.46L50.4148 136.661C44.5002 134.451 39.3135 131.527 35.4375 128.465C42.6255 124.692 53.8228 123.305 56.8935 123.44L57.9535 123.812C56.5655 127.847 54.1695 132.105 50.4895 136.46Z" fill="#FDEAB3"/>
<path d="M57.9534 123.812L56.8934 123.44C45.9947 121.911 39.6147 118.971 33.1094 114.703C39.06 111.761 48.5707 109.252 58.044 110.507L59.1774 110.272C59.8987 114.34 59.6694 118.915 57.9534 123.812Z" fill="#FDEAB3"/>
<path d="M53.4947 98.3946C56.1614 101.456 58.3134 105.517 59.1774 110.272L58.0441 110.507C47.5867 108.02 40.3281 104.731 34.1147 102.567C39.7561 99.2786 45.9067 97.3879 53.4947 98.3946Z" fill="#FDEAB3"/>
<path d="M84.675 126.604C84.0924 134.131 76.7377 142.259 62.2243 139.848C58.1097 139.173 54.1204 138.048 50.415 136.661L50.4897 136.46C54.1697 132.105 56.5657 127.847 57.9537 123.812C59.6697 118.915 59.899 114.34 59.1777 110.272C58.3137 105.517 56.1617 101.456 53.495 98.3947C57.267 98.8934 61.3764 100.107 65.951 102.22C76.5764 107.144 85.339 118.091 84.675 126.604Z" fill="#CD5C29"/>
<path d="M77.9614 134.988C75.3441 137.037 70.5494 139.201 62.5601 137.876C59.3521 137.341 56.1281 136.513 53.0001 135.457C63.3001 122.031 62.1388 109.493 57.1334 101.161C59.5974 101.784 62.2454 102.716 65.1121 104.043C68.3574 105.547 71.5374 107.713 74.3054 110.304C79.8441 115.492 83.0521 121.68 82.6828 126.456C82.4281 129.729 80.7067 132.84 77.9614 134.988ZM55.8907 125.443C54.6254 128.368 52.8028 131.397 50.3334 134.497C46.3761 132.955 42.6441 131.047 39.4068 128.873C45.4534 126.532 52.8254 125.559 55.8907 125.443ZM37.4227 115.028C42.9147 112.971 50.3654 111.504 57.7841 112.491C57.9174 112.507 58.0428 112.473 58.1668 112.465C58.4308 115.284 58.1854 118.312 57.3054 121.495L57.1774 121.456C48.2948 120.209 42.6414 118.052 37.4227 115.028ZM40.0921 102.639C39.7614 102.513 39.4374 102.391 39.1174 102.271C42.9121 100.655 47.5654 99.6159 53.4334 100.429C55.1641 102.676 56.5428 105.324 57.3854 108.277C50.4094 106.544 44.9334 104.476 40.0921 102.639ZM77.0428 107.385C73.9641 104.505 70.4227 102.095 66.7948 100.413C54.0841 94.5239 43.6961 94.6572 33.1174 100.84C32.4428 101.233 32.0601 101.984 32.1334 102.761C32.2108 103.539 32.7348 104.201 33.4694 104.456C35.1148 105.027 36.8361 105.68 38.6721 106.377C40.7481 107.165 42.9308 107.995 45.3001 108.824C40.1721 109.673 35.5867 111.253 32.2241 112.913C31.5841 113.231 31.1588 113.869 31.1148 114.587C31.0734 115.3 31.4068 115.988 32.0161 116.379C36.0494 119.024 40.1494 121.249 45.4094 122.94C41.6828 123.781 37.7321 125.007 34.5188 126.693C33.9201 127.008 33.5214 127.605 33.4561 128.28C33.4014 128.897 33.6308 129.505 34.0814 129.924L34.2068 130.035C41.4068 135.728 51.7588 140.136 61.9068 141.821C71.3281 143.385 77.1774 140.681 80.4308 138.137C84.0521 135.3 86.3281 131.156 86.6694 126.767C87.1441 120.719 83.5401 113.473 77.0428 107.385Z" fill="#100F0D"/>
<path d="M171.321 136.46L171.396 136.661C177.311 134.451 182.497 131.527 186.373 128.465C179.185 124.692 167.988 123.305 164.917 123.44L163.857 123.812C165.245 127.847 167.641 132.105 171.321 136.46Z" fill="#FDEAB3"/>
<path d="M163.857 123.812L164.917 123.44C175.816 121.911 182.196 118.971 188.701 114.703C182.75 111.761 173.24 109.252 163.766 110.507L162.633 110.272C161.912 114.34 162.141 118.915 163.857 123.812Z" fill="#FDEAB3"/>
<path d="M168.316 98.3946C165.649 101.456 163.497 105.517 162.633 110.272L163.767 110.507C174.224 108.02 181.483 104.731 187.696 102.567C182.055 99.2786 175.904 97.3879 168.316 98.3946Z" fill="#FDEAB3"/>
<path d="M137.136 126.604C137.719 134.131 145.073 142.259 159.587 139.848C163.701 139.173 167.691 138.048 171.396 136.661L171.321 136.46C167.641 132.105 165.245 127.847 163.857 123.812C162.141 118.915 161.912 114.34 162.633 110.272C163.497 105.517 165.649 101.456 168.316 98.3947C164.544 98.8934 160.435 100.107 155.86 102.22C145.235 107.144 136.472 118.091 137.136 126.604Z" fill="#CD5C29"/>
<path d="M139.128 126.456C138.759 121.68 141.967 115.492 147.505 110.304C150.273 107.713 153.453 105.547 156.699 104.043C159.565 102.716 162.213 101.784 164.677 101.161C159.672 109.493 158.511 122.031 168.811 135.457C165.683 136.513 162.459 137.341 159.251 137.876C151.261 139.201 146.467 137.037 143.849 134.988C141.104 132.84 139.383 129.729 139.128 126.456ZM182.404 128.873C179.167 131.047 175.435 132.955 171.477 134.497C169.008 131.397 167.185 128.368 165.92 125.443C168.985 125.559 176.357 126.532 182.404 128.873ZM164.633 121.456L164.505 121.495C163.625 118.312 163.38 115.284 163.644 112.465C163.768 112.473 163.893 112.507 164.027 112.491C171.445 111.504 178.896 112.971 184.388 115.028C179.169 118.052 173.516 120.209 164.633 121.456ZM164.425 108.277C165.268 105.324 166.647 102.676 168.377 100.429C174.245 99.6159 178.899 100.655 182.693 102.271C182.373 102.391 182.049 102.513 181.719 102.639C176.877 104.476 171.401 106.544 164.425 108.277ZM135.141 126.767C135.483 131.156 137.759 135.3 141.38 138.137C144.633 140.681 150.483 143.385 159.904 141.821C170.052 140.136 180.404 135.728 187.604 130.035L187.729 129.924C188.18 129.505 188.409 128.897 188.355 128.28C188.289 127.605 187.891 127.008 187.292 126.693C184.079 125.007 180.128 123.781 176.401 122.94C181.661 121.249 185.761 119.024 189.795 116.379C190.404 115.988 190.737 115.3 190.696 114.587C190.652 113.869 190.227 113.231 189.587 112.913C186.224 111.253 181.639 109.673 176.511 108.824C178.88 107.995 181.063 107.165 183.139 106.377C184.975 105.68 186.696 105.027 188.341 104.456C189.076 104.201 189.6 103.539 189.677 102.761C189.751 101.984 189.368 101.233 188.693 100.84C178.115 94.6572 167.727 94.5239 155.016 100.413C151.388 102.095 147.847 104.505 144.768 107.385C138.271 113.473 134.667 120.719 135.141 126.767Z" fill="#100F0D"/>
<path d="M215.932 122.056C219.411 123.174 222.104 126.536 221.784 131.309C221.291 138.856 216.331 141.11 211.224 140.376C211.224 141.734 210.917 143.189 210.237 144.642C207.877 149.749 199.571 151.762 191.571 148.202C189.599 158.802 175.571 159.389 170.117 155.961C167.371 162.189 158.265 163.976 153.397 160.016C151.304 166.216 140.104 167.456 136.171 161.202C132.517 166.536 126.291 169.202 116.171 168.202C110.599 167.642 107.171 165.789 105.144 163.496C96.4508 171.777 81.7974 166.362 79.5041 159.202C77.1841 162.362 71.8508 164.362 65.3441 163.202C61.7041 162.549 58.0374 160.082 56.3841 156.496C51.0774 162.869 38.1174 159.628 37.1841 151.869C30.9574 154.149 19.5041 153.536 15.8508 148.042C14.5708 146.122 13.8374 144.256 13.5307 142.496C5.47741 143.11 0.304088 139.522 0.0107543 133.536C-0.229246 128.682 3.58409 124.656 7.81075 123.869C9.51742 123.536 11.3041 123.749 12.9041 124.642C13.1174 121.536 16.6641 116.429 23.3441 116.429C27.7841 116.429 32.6774 118.869 33.3441 125.096C39.1308 114.869 51.5308 119.389 53.1707 125.628C58.3974 123.628 65.9174 127.004 66.7441 132.482C69.6641 129.029 74.7308 128.056 78.5174 128.362C82.3041 128.682 85.7707 130.536 87.8241 132.936C92.0907 127.416 103.477 129.628 104.144 135.508C106.637 132.162 110.717 129.896 115.117 129.536C120.971 129.056 126.344 131.401 129.664 134.589C131.184 128.709 136.331 126.469 140.344 126.042C145.011 125.536 151.851 127.536 153.784 134.429C154.677 129.696 162.171 127.536 164.904 132.642C165.677 127.376 169.237 123.589 175.344 122.202C178.904 121.389 182.117 121.722 184.557 123.256C185.957 119.802 189.652 116.508 194.011 116.202C199.611 115.816 206.011 117.696 207.571 123.762C210.144 121.642 213.277 121.189 215.932 122.056Z" fill="#E88D3A"/>
<path d="M216.549 122.313C215.979 129.284 211.319 131.377 206.513 130.688C206.513 131.984 206.221 133.369 205.575 134.753C203.324 139.62 195.408 141.54 187.784 138.146C185.903 148.249 172.535 148.808 167.337 145.542C164.719 151.477 156.043 153.18 151.403 149.404C149.407 155.313 138.735 156.496 134.985 150.536C131.501 155.618 125.568 158.161 115.924 157.208C110.612 156.673 107.345 154.906 105.415 152.722C97.1293 160.613 83.1626 155.453 80.9786 148.63C78.7666 151.641 73.684 153.548 67.484 152.442C64.0133 151.82 60.5186 149.469 58.944 146.05C53.8853 152.124 41.536 149.037 40.6453 141.641C34.7106 143.813 23.7946 143.229 20.3133 137.993C19.0933 136.165 18.3933 134.386 18.1013 132.709C10.6973 133.272 5.8613 130.105 5.2773 124.757C2.18396 126.362 -0.178703 129.685 0.0106299 133.536C0.303963 139.523 5.47728 143.11 13.5306 142.496C13.8373 144.256 14.5706 146.122 15.8506 148.042C19.504 153.536 30.9573 154.149 37.184 151.869C38.1173 159.628 51.0773 162.869 56.384 156.496C58.0373 160.082 61.704 162.549 65.344 163.202C71.8506 164.362 77.184 162.362 79.504 159.202C81.7973 166.362 96.4506 171.777 105.144 163.496C107.171 165.789 110.599 167.642 116.171 168.202C126.291 169.202 132.517 166.536 136.171 161.202C140.104 167.456 151.304 166.216 153.397 160.016C158.265 163.976 167.371 162.189 170.117 155.961C175.571 159.389 189.599 158.802 191.571 148.202C199.571 151.762 207.877 149.749 210.237 144.642C210.917 143.189 211.224 141.734 211.224 140.376C216.331 141.11 221.291 138.856 221.784 131.309C222.085 126.829 219.719 123.617 216.549 122.313Z" fill="#D87639"/>
<path d="M55.1815 134.811L54.9202 134.617C54.5682 134.193 54.1375 133.844 53.6402 133.605C53.2149 132.292 52.3428 131.152 51.0602 130.349C50.2442 129.84 49.1309 129.568 48.1149 129.664C48.1389 129.411 48.1575 129.157 48.1415 128.913C48.0402 127.477 47.5349 126.321 46.5815 125.245C45.0082 123.471 41.9455 123.571 40.3549 125.215C39.1842 126.423 39.0469 128.049 39.6482 129.375C39.3722 130.543 39.7975 131.825 40.6002 132.709C41.2895 133.472 42.5349 133.824 43.5482 133.757C43.0309 134.967 42.9269 136.381 43.2762 137.599C43.9682 139.996 46.1562 140.976 48.3695 140.852C49.1775 140.987 50.0135 140.996 50.8882 140.975L51.0162 141.029H51.0215C52.4175 141.603 53.9709 141.472 55.1815 140.261C56.5455 138.896 56.8229 136.128 55.1815 134.811Z" fill="#F1AC56"/>
<path d="M74.7413 133.436C73.4333 133.736 72.1173 134.356 71.052 135.235C70.728 135.027 70.3759 134.852 69.9799 134.691C71.5559 135.335 70.6053 134.915 70.22 134.723C69.2213 134.223 68.5386 134.073 67.4373 133.957C66.5919 133.869 65.5346 134.181 64.8213 134.623C63.972 135.149 63.0173 136.117 62.8679 137.136C62.7053 138.243 62.7039 138.416 62.8693 139.52C63.0626 140.824 64.4119 141.931 65.6066 142.259C65.9839 142.363 66.3853 142.399 66.788 142.381L66.9346 142.436C67.8026 142.664 68.6013 142.56 69.3933 142.308C69.6639 142.844 69.9973 143.347 70.4119 143.784C70.9146 144.973 71.8973 145.985 73.3626 146.471C75.9879 147.34 79.3253 146.871 81.5226 145.232C84.8373 142.764 86.0466 138.473 83.1053 135.175C81.1479 132.981 77.3959 132.827 74.7413 133.436Z" fill="#F1AC56"/>
<path d="M58.6787 128.947C57.1467 128.947 55.8667 130.225 55.8667 131.759C55.8667 133.292 57.1467 134.571 58.6787 134.571C60.2107 134.571 61.4907 133.292 61.4907 131.759C61.4907 130.225 60.2107 128.947 58.6787 128.947Z" fill="#F1AC56"/>
<path d="M131.567 142.984C130.176 142.984 129.015 144.144 129.015 145.536C129.015 146.928 130.176 148.088 131.567 148.088C132.957 148.088 134.119 146.928 134.119 145.536C134.119 144.144 132.957 142.984 131.567 142.984Z" fill="#F1AC56"/>
<path d="M99.4637 138.909C98.4344 138.453 97.6544 138.199 96.4984 138.173C95.4557 138.149 94.3891 138.576 93.4891 139.043C91.0344 140.313 89.7931 143.699 91.3291 146.108C91.7984 146.841 92.4331 147.42 93.1758 147.792C93.7664 148.425 94.5278 148.896 95.3691 149.076C96.5944 149.337 97.6598 149.125 98.7771 148.573L98.9651 148.452C99.8224 147.783 99.9278 147.707 99.2771 148.225C99.6624 147.985 100.018 147.685 100.354 147.38C101.55 146.287 102.161 145.051 102.316 143.427C102.489 141.611 101.068 139.62 99.4637 138.909Z" fill="#F1AC56"/>
<path d="M125.972 138.461C124.272 136.704 121.888 135.884 119.511 135.635C116.511 135.324 114.049 136.177 112.268 138.701C112.056 139.004 111.877 139.312 111.719 139.625C110.403 139.028 108.832 138.941 107.403 139.188C107.089 139.243 106.793 139.343 106.512 139.472C104.556 140.16 103.231 142.317 103.468 144.373C103.728 146.629 105.1 148.527 107.413 149.04C109.399 149.48 111.303 148.972 112.855 147.688L112.887 147.655C113.891 148.761 115.245 149.595 116.852 149.951C117.26 150.043 117.664 150.088 118.069 150.113C118.955 150.277 119.861 150.232 120.701 149.977C120.835 149.988 120.964 150.003 121.1 150.008C126.775 150.248 129.768 142.388 125.972 138.461Z" fill="#F1AC56"/>
<path d="M147.533 134.633C147.505 134.424 147.467 134.216 147.4 134.011C147.043 132.928 145.977 131.84 144.724 131.975C143.361 132.12 142.179 132.619 141.444 133.863C141.044 134.54 140.953 135.269 141.052 135.961C138.824 136.093 136.981 137.791 136.911 140.073C136.852 140.264 136.801 140.453 136.765 140.641C136.432 142.331 137.22 144.412 139.116 144.783C140.339 145.021 141.421 145.123 142.648 144.889C144.907 144.459 146.269 142.393 146.356 140.203C146.379 139.617 146.237 139.059 145.995 138.543C147.015 137.936 147.691 136.787 147.625 135.62L147.636 135.54C147.625 135.16 147.504 134.319 147.533 134.633Z" fill="#F1AC56"/>
<path d="M189.011 128.552C188.14 128.552 187.335 128.852 186.674 129.34L186.574 129.085C186.444 128.811 186.138 127.953 186.527 129.128C186.338 128.559 186.058 127.912 185.712 127.397C184.106 124.993 181.6 123.999 178.768 124.425C180.416 124.177 178.534 124.389 177.983 124.573C177.146 124.852 176.39 125.245 175.759 125.876C174.552 127.081 174.012 128.96 174.46 130.616L174.402 130.963C173.759 130.928 173.067 130.999 172.587 131.173C171.431 131.593 170.703 132.207 169.975 133.079C169.56 132.947 169.131 132.853 168.678 132.853C166.571 132.853 164.783 134.417 164.41 136.428C163.991 136.045 163.524 135.716 163.082 135.477C161.679 134.724 160.128 134.488 158.579 134.883C156.89 135.312 155.479 137.04 155.546 138.817L155.492 138.884C154.906 139.712 154.944 140.873 155.15 141.805C155.376 142.844 156.263 143.759 157.139 144.311C158.155 144.952 159.491 145.199 160.676 145.079C162.044 144.944 163.687 144.596 164.647 143.504C165.238 142.831 165.716 142.157 165.93 141.268C165.984 141.037 166.002 140.821 166.022 140.604C166.763 141.187 167.679 141.552 168.678 141.552C169.358 141.552 169.995 141.375 170.574 141.087C170.804 141.253 171.048 141.396 171.307 141.516C171.72 142.203 172.508 142.92 173.324 143.053C174.499 143.245 175.462 143.456 176.663 143.216C178.432 142.863 179.548 141.149 180.128 139.581C180.35 138.984 180.422 138.389 180.386 137.813C181.22 137.811 182.044 137.707 182.742 137.551C184.027 137.263 185.274 136.371 186.12 135.241C186.852 136.021 187.878 136.52 189.011 136.52C191.183 136.52 192.995 134.708 192.995 132.536C192.995 130.364 191.183 128.552 189.011 128.552Z" fill="#F1AC56"/>
<path d="M202.826 122.079C202.099 120.753 200.944 120.016 199.58 119.48C198.475 119.044 196.971 118.896 195.85 119.324C194.007 120.024 192.642 121.451 192.642 123.536C192.642 124.376 192.871 125.103 193.256 125.724C193.342 126.707 193.679 127.34 194.28 128.116C194.674 128.623 195.31 128.993 195.895 129.256C197.126 129.813 198.516 130.359 199.874 129.84C201.532 129.207 202.546 128.133 203.156 126.483C203.694 125.031 203.57 123.433 202.826 122.079Z" fill="#F1AC56"/>
</g>
<defs>
<clipPath id="clip0_1_168">
<rect width="221.81" height="136.41" fill="white" transform="translate(0 32)"/>
</clipPath>
</defs>
</svg>
