<svg width="223" height="169" viewBox="0 0 223 169" fill="none" xmlns="http://www.w3.org/2000/svg">
<g clip-path="url(#clip0_1_167)">
<path d="M168.127 92.068C173.674 87.9893 182.78 91.0026 182.78 100.816C185.447 95.3093 197.1 96.6426 196.5 105.869C200.114 103.483 205.1 105.643 204.94 110.749C209.834 108.123 218.82 113.523 216.862 121.495C214.207 120.629 211.074 121.083 208.5 123.203C206.94 117.136 200.54 115.256 194.94 115.643C190.582 115.948 186.887 119.243 185.487 122.696C183.047 121.161 179.834 120.828 176.274 121.643C170.167 123.029 166.607 126.816 165.834 132.083C163.1 126.976 155.607 129.136 154.714 133.869C152.78 126.976 145.94 124.976 141.274 125.483C137.26 125.909 132.114 128.149 130.594 134.029C127.274 130.841 121.9 128.495 116.047 128.976C111.647 129.336 107.567 131.603 105.074 134.948C104.407 129.068 93.0204 126.856 88.7538 132.376C86.7004 129.976 83.2338 128.123 79.4471 127.803C75.6605 127.495 70.5938 128.469 67.6738 131.923C66.8471 126.443 59.3271 123.068 54.1005 125.068C52.4605 118.828 40.0605 114.309 34.2738 124.536C33.6071 118.309 28.7138 115.869 24.2738 115.869C17.5938 115.869 14.0471 120.976 13.8338 124.083C12.2338 123.189 10.4471 122.976 8.74047 123.309C6.5818 115.429 15.8738 109.388 21.1671 112.976C19.8338 104.976 29.6071 101.643 34.1138 106.976C32.2871 99.8159 39.7538 94.7626 45.5538 96.896C47.5818 89.4946 59.9805 85.1613 66.2738 93.416C67.1671 88.0826 72.3671 84.5893 78.7805 85.4826C81.7671 85.896 84.1138 87.3879 85.6204 89.2559C87.8338 83.2293 97.1951 81.9626 100.274 87.3093C102.207 76.5493 120.567 71.6146 127.94 83.0026C130.394 81.7626 133.46 81.4013 136.94 82.3093C142.5 83.7626 145.447 88.4693 145.834 92.0826C149.22 82.3093 165.074 84.0827 168.114 92.068H168.127Z" fill="#D87639"/>
<path d="M34.2742 124.536C40.0609 114.309 52.4609 118.828 54.1009 125.068C59.3275 123.068 66.8475 126.443 67.6742 131.923C70.5942 128.469 75.6609 127.495 79.4475 127.803C83.2342 128.123 86.7008 129.976 88.7542 132.376C93.0208 126.856 104.408 129.068 105.074 134.948C107.568 131.603 111.648 129.336 116.048 128.976C121.901 128.495 127.274 130.841 130.594 134.029C132.114 128.149 137.261 125.909 141.274 125.483C145.941 124.976 152.781 126.976 154.714 133.869C155.608 129.136 163.101 126.976 165.834 132.083C166.608 126.816 170.168 123.029 176.274 121.643C179.834 120.828 183.048 121.161 185.488 122.696C186.822 119.404 190.252 116.287 194.345 115.735C190.97 112.469 184.657 112.94 182.781 116.816C182.781 107.003 173.674 103.989 168.128 108.068H168.114C165.074 100.083 149.221 98.3093 145.834 108.083C145.448 104.469 142.501 99.7626 136.941 98.3093C133.461 97.4013 130.394 97.7626 127.941 99.0026C120.568 87.6146 102.208 92.5493 100.274 103.309C97.1955 97.9626 87.8342 99.2293 85.6208 105.256C84.1142 103.388 81.7675 101.896 78.7809 101.483C72.3675 100.589 67.1675 104.083 66.2742 109.416C59.9809 101.161 47.5822 105.495 45.5542 112.896C39.7542 110.763 32.2875 115.816 34.1142 122.976L33.9462 122.808C34.0902 123.352 34.2075 123.92 34.2742 124.536Z" fill="#B74F2F"/>
<path d="M193.161 126.087C193.161 137.315 159.582 146.42 118.161 146.42C76.7411 146.42 43.1611 137.315 43.1611 126.087C43.1611 114.859 76.7411 105.753 118.161 105.753C159.582 105.753 193.161 114.859 193.161 126.087Z" fill="#612D26"/>
<path d="M216.862 121.495C220.341 122.615 223.034 125.976 222.714 130.749C222.221 138.296 217.261 140.549 212.154 139.816C212.154 141.175 211.848 142.629 211.168 144.083C208.808 149.189 200.501 151.203 192.501 147.643C190.529 158.243 176.501 158.828 171.048 155.401C168.301 161.629 159.196 163.416 154.328 159.456C152.234 165.656 141.034 166.896 137.101 160.643C133.448 165.976 127.221 168.643 117.101 167.643C111.529 167.083 108.101 165.229 106.074 162.936C97.3809 171.216 82.7276 165.803 80.4343 158.643C78.1143 161.803 72.7809 163.803 66.2743 162.643C62.6343 161.989 58.9676 159.523 57.3143 155.936C52.0076 162.309 39.0476 159.068 38.1143 151.309C31.8876 153.589 20.4343 152.976 16.7809 147.483C15.5009 145.563 14.7676 143.696 14.4609 141.936C6.40758 142.549 1.23426 138.963 0.94093 132.976C0.70093 128.123 4.51426 124.096 8.74093 123.309C10.4476 122.976 12.2343 123.189 13.8343 124.083C14.0476 120.976 17.5943 115.869 24.2743 115.869C28.7143 115.869 33.6076 118.309 34.2743 124.536C40.0609 114.309 52.4609 118.828 54.1009 125.068C59.3276 123.068 66.8476 126.443 67.6743 131.923C70.5943 128.469 75.6609 127.495 79.4476 127.803C83.2343 128.123 86.7009 129.976 88.7542 132.376C93.0209 126.856 104.408 129.068 105.074 134.948C107.568 131.603 111.648 129.336 116.048 128.976C121.901 128.495 127.274 130.841 130.594 134.029C132.114 128.149 137.261 125.909 141.274 125.483C145.941 124.976 152.781 126.976 154.714 133.869C155.608 129.136 163.101 126.976 165.834 132.083C166.608 126.816 170.168 123.029 176.274 121.643C179.834 120.828 183.048 121.161 185.488 122.696C186.888 119.243 190.582 115.948 194.941 115.643C200.541 115.256 206.941 117.136 208.501 123.203C211.074 121.083 214.208 120.629 216.862 121.495Z" fill="#E88D3A"/>
<path d="M217.479 121.753C216.909 128.724 212.249 130.817 207.443 130.128C207.443 131.424 207.151 132.809 206.505 134.193C204.254 139.06 196.338 140.98 188.714 137.587C186.833 147.689 173.465 148.248 168.267 144.983C165.649 150.917 156.973 152.62 152.333 148.844C150.337 154.753 139.665 155.936 135.915 149.976C132.431 155.059 126.498 157.601 116.854 156.648C111.542 156.113 108.275 154.347 106.345 152.161C98.0595 160.052 84.0928 154.893 81.9088 148.071C79.6968 151.081 74.6141 152.988 68.4141 151.881C64.9435 151.26 61.4488 148.909 59.8741 145.491C54.8155 151.564 42.4661 148.477 41.5755 141.081C35.6408 143.253 24.7248 142.669 21.2435 137.433C20.0235 135.604 19.3235 133.825 19.0315 132.149C11.6275 132.712 6.79147 129.545 6.20747 124.197C3.11414 125.803 0.751472 129.125 0.940806 132.976C1.23414 138.963 6.40746 142.549 14.4608 141.936C14.7675 143.696 15.5008 145.563 16.7808 147.483C20.4341 152.976 31.8875 153.589 38.1141 151.309C39.0475 159.068 52.0075 162.309 57.3141 155.936C58.9675 159.523 62.6341 161.989 66.2741 162.643C72.7808 163.803 78.1141 161.803 80.4341 158.643C82.7275 165.803 97.3808 171.216 106.074 162.936C108.101 165.229 111.529 167.083 117.101 167.643C127.221 168.643 133.447 165.976 137.101 160.643C141.034 166.896 152.234 165.656 154.327 159.456C159.195 163.416 168.301 161.629 171.047 155.401C176.501 158.828 190.529 158.243 192.501 147.643C200.501 151.203 208.807 149.189 211.167 144.083C211.847 142.629 212.154 141.175 212.154 139.816C217.261 140.549 222.221 138.296 222.714 130.749C223.015 126.269 220.649 123.057 217.479 121.753Z" fill="#D87639"/>
<path d="M30.7344 126.045L30.7584 126.063L30.8144 126.103L30.7344 126.045Z" fill="#F1AC56"/>
<path d="M31.2585 126.449C31.0918 126.321 30.9238 126.192 30.7585 126.063C30.2198 125.581 29.5785 125.263 28.9038 125.132C29.1532 124.5 29.2838 123.759 29.2025 123.087C29.0012 121.401 28.3878 120.295 27.0038 119.284C25.9212 118.495 24.4332 118.581 23.1972 118.776C22.1145 118.948 21.0798 119.737 20.3065 120.459C18.4838 122.157 17.4105 125.063 18.7652 127.357C19.8532 129.196 22.2332 129.907 24.2732 129.471C24.2185 130.061 24.2838 130.659 24.5225 131.235C24.8692 132.071 24.9958 132.293 25.5745 133.011C26.1185 133.685 27.1225 133.956 27.9412 133.991C28.2065 134.001 28.8625 134.181 28.0265 133.961C29.5505 134.363 31.0919 133.709 31.9145 132.38C32.4745 131.472 32.4585 130.465 32.4945 129.448C32.5212 128.704 32.3252 127.891 31.9225 127.261C31.7545 126.94 31.5332 126.669 31.2585 126.449Z" fill="#F1AC56"/>
<path d="M56.1112 134.251L55.8499 134.057C55.4979 133.633 55.0672 133.284 54.5699 133.045C54.1445 131.732 53.2725 130.592 51.9899 129.789C51.1739 129.279 50.0605 129.008 49.0445 129.103C49.0685 128.851 49.0872 128.597 49.0712 128.353C48.9699 126.917 48.4645 125.761 47.5112 124.685C45.9379 122.911 42.8752 123.011 41.2846 124.655C40.1139 125.863 39.9765 127.489 40.5779 128.815C40.3019 129.983 40.7272 131.265 41.5299 132.149C42.2192 132.912 43.4645 133.264 44.4779 133.197C43.9605 134.407 43.8565 135.821 44.2059 137.039C44.8979 139.436 47.0859 140.416 49.2992 140.292C50.1072 140.427 50.9432 140.436 51.8179 140.415L51.9459 140.469H51.9512C53.3472 141.043 54.9005 140.912 56.1112 139.701C57.4752 138.336 57.7525 135.568 56.1112 134.251Z" fill="#F1AC56"/>
<path d="M75.6715 132.876C74.3635 133.176 73.0475 133.796 71.9821 134.675C71.6581 134.467 71.3061 134.292 70.9101 134.131C72.4861 134.773 71.5355 134.355 71.1501 134.161C70.1515 133.661 69.4688 133.513 68.3674 133.397C67.5221 133.309 66.4648 133.621 65.7515 134.063C64.9021 134.589 63.9474 135.556 63.7981 136.576C63.6354 137.683 63.6341 137.856 63.7994 138.96C63.9928 140.264 65.3421 141.371 66.5368 141.699C66.9141 141.803 67.3155 141.839 67.7181 141.821L67.8648 141.876C68.7328 142.103 69.5314 141.999 70.3234 141.748C70.5941 142.284 70.9275 142.787 71.3421 143.224C71.8448 144.413 72.8274 145.425 74.2928 145.911C76.9181 146.78 80.2554 146.311 82.4528 144.672C85.7674 142.204 86.9768 137.913 84.0354 134.615C82.0781 132.421 78.3261 132.267 75.6715 132.876Z" fill="#F1AC56"/>
<path d="M59.6089 128.385C58.0769 128.385 56.7969 129.664 56.7969 131.199C56.7969 132.732 58.0769 134.011 59.6089 134.011C61.1409 134.011 62.4209 132.732 62.4209 131.199C62.4209 129.664 61.1409 128.385 59.6089 128.385Z" fill="#F1AC56"/>
<path d="M132.497 142.424C131.106 142.424 129.945 143.584 129.945 144.976C129.945 146.368 131.106 147.528 132.497 147.528C133.887 147.528 135.049 146.368 135.049 144.976C135.049 143.584 133.887 142.424 132.497 142.424Z" fill="#F1AC56"/>
<path d="M34.4675 134.451L34.3689 134.524C33.3089 134.82 32.6275 136.233 33.5995 137.207C34.5755 138.183 35.9968 137.493 36.2875 136.431L36.3555 136.339C37.1635 135.245 35.5595 133.64 34.4675 134.451Z" fill="#F1AC56"/>
<path d="M100.394 138.349C99.3651 137.893 98.5851 137.639 97.4291 137.612C96.3864 137.589 95.3197 138.016 94.4197 138.483C91.9651 139.753 90.7237 143.139 92.2597 145.547C92.7291 146.281 93.3638 146.86 94.1064 147.232C94.6971 147.865 95.4584 148.336 96.2998 148.516C97.5251 148.776 98.5904 148.565 99.7078 148.013L99.8957 147.892C100.753 147.221 100.858 147.147 100.208 147.664C100.593 147.425 100.949 147.125 101.285 146.82C102.481 145.727 103.092 144.491 103.246 142.867C103.42 141.049 101.998 139.06 100.394 138.349Z" fill="#F1AC56"/>
<path d="M126.903 137.901C125.203 136.144 122.819 135.324 120.441 135.074C117.441 134.764 114.98 135.617 113.199 138.141C112.987 138.442 112.808 138.752 112.649 139.065C111.333 138.468 109.763 138.38 108.333 138.628C108.02 138.682 107.724 138.782 107.443 138.912C105.487 139.6 104.161 141.757 104.399 143.813C104.659 146.069 106.031 147.966 108.344 148.48C110.329 148.92 112.233 148.412 113.785 147.128L113.817 147.094C114.821 148.201 116.176 149.034 117.783 149.39C118.191 149.482 118.595 149.528 119 149.552C119.885 149.716 120.792 149.672 121.632 149.417C121.765 149.428 121.895 149.441 122.031 149.448C127.705 149.688 130.699 141.826 126.903 137.901Z" fill="#F1AC56"/>
<path d="M148.463 134.073C148.435 133.864 148.397 133.656 148.33 133.451C147.973 132.368 146.907 131.28 145.654 131.415C144.291 131.56 143.109 132.059 142.374 133.303C141.974 133.98 141.883 134.709 141.982 135.401C139.754 135.533 137.911 137.231 137.841 139.513C137.782 139.704 137.731 139.893 137.695 140.081C137.362 141.769 138.15 143.852 140.046 144.221C141.269 144.461 142.351 144.563 143.578 144.328C145.837 143.899 147.199 141.832 147.286 139.643C147.309 139.057 147.167 138.497 146.925 137.983C147.945 137.376 148.621 136.227 148.555 135.06L148.566 134.98C148.555 134.6 148.434 133.759 148.463 134.073Z" fill="#F1AC56"/>
<path d="M189.941 127.992C189.07 127.992 188.265 128.292 187.603 128.78L187.503 128.525C187.374 128.251 187.067 127.393 187.457 128.568C187.267 127.997 186.987 127.352 186.642 126.837C185.035 124.433 182.53 123.437 179.698 123.865C181.346 123.617 179.463 123.828 178.913 124.013C178.075 124.292 177.319 124.685 176.689 125.316C175.482 126.521 174.942 128.4 175.39 130.055L175.331 130.403C174.689 130.368 173.997 130.437 173.517 130.612C172.361 131.033 171.633 131.647 170.905 132.519C170.49 132.385 170.061 132.293 169.607 132.293C167.501 132.293 165.713 133.857 165.339 135.868C164.921 135.485 164.454 135.156 164.011 134.917C162.609 134.163 161.058 133.928 159.509 134.323C157.819 134.752 156.409 136.48 156.475 138.257L156.422 138.324C155.835 139.152 155.874 140.313 156.079 141.245C156.306 142.284 157.193 143.199 158.069 143.751C159.085 144.392 160.421 144.639 161.606 144.519C162.974 144.383 164.617 144.036 165.577 142.943C166.167 142.269 166.646 141.597 166.859 140.708C166.914 140.477 166.931 140.261 166.951 140.044C167.693 140.627 168.609 140.992 169.607 140.992C170.287 140.992 170.925 140.815 171.503 140.527C171.734 140.693 171.978 140.836 172.237 140.956C172.65 141.643 173.438 142.36 174.254 142.492C175.429 142.685 176.391 142.896 177.593 142.656C179.362 142.303 180.478 140.589 181.058 139.021C181.279 138.424 181.351 137.828 181.315 137.253C182.15 137.251 182.974 137.147 183.671 136.991C184.957 136.703 186.203 135.811 187.05 134.681C187.782 135.461 188.807 135.96 189.941 135.96C192.113 135.96 193.925 134.148 193.925 131.976C193.925 129.804 192.113 127.992 189.941 127.992Z" fill="#F1AC56"/>
<path d="M203.755 121.519C203.029 120.193 201.874 119.456 200.51 118.92C199.405 118.484 197.901 118.336 196.779 118.764C194.937 119.464 193.571 120.891 193.571 122.976C193.571 123.816 193.801 124.543 194.186 125.163C194.271 126.147 194.609 126.779 195.21 127.555C195.603 128.063 196.239 128.433 196.825 128.696C198.055 129.253 199.446 129.799 200.803 129.279C202.462 128.647 203.475 127.573 204.086 125.923C204.623 124.471 204.499 122.873 203.755 121.519Z" fill="#F1AC56"/>
<path d="M111.836 149.151C123.761 149.151 161.614 147.076 170.429 141.372C168.873 102.483 165.286 61.0466 159.54 43.6293C151.817 20.22 133.85 5 111.836 5C89.8208 5 71.8542 20.22 64.1315 43.6293C58.3848 61.0466 54.7982 102.483 53.2422 141.372C62.0569 147.076 99.9102 149.151 111.836 149.151Z" fill="#CD5C29"/>
<path d="M111.836 124.883C88.4115 124.883 67.8635 112.356 56.2409 93.5213C54.8849 108.645 53.8875 125.224 53.2422 141.372C62.0569 147.076 99.9102 149.151 111.836 149.151C123.761 149.151 161.614 147.076 170.429 141.372C169.784 125.224 168.786 108.645 167.43 93.5213C155.808 112.356 135.26 124.883 111.836 124.883Z" fill="#BA4927"/>
<path d="M60.5755 142.74C62.0422 106.064 65.4262 66.9867 70.8449 50.5587C78.1289 28.4827 95.0742 14.1266 115.836 14.1266C136.598 14.1266 153.542 28.4827 160.826 50.5587C161.819 53.5707 161.041 48.1774 159.54 43.6294C151.817 20.22 133.85 5.00008 111.836 5.00008C89.8208 5.00008 71.8542 20.22 64.1315 43.6294C58.3848 61.0467 54.7982 102.483 53.2422 141.372C56.3342 143.373 62.6129 144.059 60.5755 142.74Z" fill="#E6894A"/>
<path d="M55.2904 140.236C64.9624 145.085 99.2104 147.151 111.836 147.151C124.461 147.151 158.709 145.085 168.381 140.236C166.521 94.8599 162.516 59.0319 157.641 44.2559C150.06 21.2759 132.508 7 111.836 7C91.1638 7 73.6118 21.2759 66.0304 44.2559C61.1558 59.0319 57.1504 94.8599 55.2904 140.236ZM111.836 151.151C104.506 151.151 62.3637 149.657 52.1557 143.051C51.5624 142.667 51.2158 141.997 51.2438 141.292C52.1331 119.057 54.9838 64.9719 62.2318 43.0026C70.3718 18.3279 89.3784 3 111.836 3C134.293 3 153.3 18.3279 161.44 43.0026C168.688 64.9719 171.538 119.057 172.428 141.292C172.456 141.997 172.109 142.667 171.516 143.051C161.308 149.657 119.165 151.151 111.836 151.151Z" fill="#100F0D"/>
<path d="M120.266 88.4959L120.279 88.5492C120.279 92.7892 116.506 99.9626 111.839 99.9626C107.172 99.9626 103.386 92.7892 103.386 88.5492L103.412 88.4959C105.959 89.3106 108.826 89.7759 111.839 89.7759C114.866 89.7759 117.719 89.3106 120.266 88.4959Z" fill="#F8F8F8"/>
<path d="M111.839 63.9908C122.506 63.9908 131.173 69.7641 131.173 76.8828C131.173 81.9908 126.719 86.4028 120.266 88.4961C117.719 89.3108 114.866 89.7761 111.839 89.7761C108.826 89.7761 105.959 89.3108 103.413 88.4961V88.4841C96.9592 86.4027 92.5059 81.9908 92.5059 76.8828C92.5059 69.7641 101.159 63.9908 111.839 63.9908Z" fill="#FDEAB3"/>
<path d="M120.613 72.1825C120.613 75.3132 116.683 79.3278 111.835 79.3278C106.987 79.3278 103.058 75.3132 103.058 72.1825C103.058 69.0532 106.987 67.9945 111.835 67.9945C116.683 67.9945 120.613 69.0532 120.613 72.1825Z" fill="#100F0D"/>
<path d="M111.585 71.2001C111.707 72.0187 110.601 72.8654 109.116 73.0894C107.629 73.3134 106.323 72.8307 106.199 72.0121C106.077 71.1934 107.181 70.3467 108.668 70.1227C110.153 69.8987 111.461 70.3801 111.585 71.2001Z" fill="white"/>
<path d="M111.836 88.4387C101.91 88.4387 93.8356 83.256 93.8356 76.8827C93.8356 70.5107 101.91 65.3267 111.836 65.3267C121.761 65.3267 129.836 70.5107 129.836 76.8827C129.836 83.256 121.761 88.4387 111.836 88.4387ZM112.836 98.4654V91.0707C114.9 91.0027 116.882 90.728 118.746 90.2707C118.053 93.5894 115.6 97.6347 112.836 98.4654ZM104.925 90.2707C106.789 90.728 108.772 91.0027 110.836 91.0707V98.4654C108.072 97.6347 105.618 93.5894 104.925 90.2707ZM132.502 76.8827C132.502 69.0413 123.232 62.66 111.836 62.66C100.44 62.66 91.1689 69.0413 91.1689 76.8827C91.1689 82.3053 95.6023 87.0253 102.105 89.424C102.565 94.0227 106.446 101.3 111.836 101.3C117.225 101.3 121.106 94.0227 121.566 89.424C128.069 87.0253 132.502 82.3053 132.502 76.8827Z" fill="#100F0D"/>
<path d="M98.9302 78.1252H88.4089C88.0395 78.1252 87.7422 77.8265 87.7422 77.4585C87.7422 77.0905 88.0395 76.7918 88.4089 76.7918H98.9302C99.2995 76.7918 99.5968 77.0905 99.5968 77.4585C99.5968 77.8265 99.2995 78.1252 98.9302 78.1252Z" fill="#100F0D"/>
<path d="M89.0432 86.1706C88.8045 86.1706 88.5725 86.0412 88.4538 85.8145C88.2818 85.4892 88.4085 85.0852 88.7338 84.9145L98.6205 79.7186C98.9445 79.5479 99.3498 79.6733 99.5205 79.9986C99.6925 80.3253 99.5658 80.7279 99.2405 80.8986L89.3538 86.0946L89.0432 86.1706Z" fill="#100F0D"/>
<path d="M98.9298 75.5934L98.6205 75.5161L88.7338 70.3214C88.4085 70.1508 88.2818 69.7468 88.4538 69.4214C88.6245 69.0961 89.0298 68.9721 89.3538 69.1414L99.2405 74.3361C99.5658 74.5068 99.6925 74.9108 99.5205 75.2361C99.4018 75.4628 99.1698 75.5934 98.9298 75.5934Z" fill="#100F0D"/>
<path d="M135.262 78.1252H124.741C124.372 78.1252 124.074 77.8265 124.074 77.4585C124.074 77.0905 124.372 76.7918 124.741 76.7918H135.262C135.632 76.7918 135.929 77.0905 135.929 77.4585C135.929 77.8265 135.632 78.1252 135.262 78.1252Z" fill="#100F0D"/>
<path d="M134.627 86.1706L134.317 86.0946L124.43 80.8986C124.105 80.7279 123.978 80.3253 124.15 79.9986C124.322 79.6733 124.726 79.5479 125.05 79.7186L134.937 84.9145C135.262 85.0852 135.389 85.4892 135.217 85.8145C135.098 86.0412 134.866 86.1706 134.627 86.1706Z" fill="#100F0D"/>
<path d="M124.741 75.5934C124.501 75.5934 124.269 75.4628 124.15 75.2361C123.978 74.9108 124.105 74.5068 124.43 74.3361L134.317 69.1414C134.641 68.9721 135.046 69.0961 135.217 69.4214C135.389 69.7468 135.262 70.1508 134.937 70.3214L125.05 75.5161L124.741 75.5934Z" fill="#100F0D"/>
<path d="M88.0859 62.8828C88.0859 66.8122 84.9033 69.9948 80.974 69.9948C77.0473 69.9948 73.8633 66.8122 73.8633 62.8828C73.8633 58.9562 77.0473 55.7722 80.974 55.7722C84.9033 55.7722 88.0859 58.9562 88.0859 62.8828Z" fill="#100F0D"/>
<path d="M80.9743 60.9945C80.9743 62.1598 80.0289 63.1052 78.8636 63.1052C77.6969 63.1052 76.7529 62.1598 76.7529 60.9945C76.7529 59.8292 77.6969 58.8838 78.8636 58.8838C80.0289 58.8838 80.9743 59.8292 80.9743 60.9945Z" fill="white"/>
<path d="M68.7529 47.716C76.3596 48.8414 90.3343 51.5787 99.2703 55.164C102.392 48.0853 103.016 39.9574 100.497 32.352C100.568 36.624 100.054 39.8707 99.2156 42.2893C87.753 36.832 76.8836 33.9467 73.0396 33.132C71.1676 36.2587 68.9849 42.848 68.7529 47.716Z" fill="#100F0D"/>
<path d="M149.806 62.8828C149.806 66.8122 146.622 69.9948 142.694 69.9948C138.766 69.9948 135.583 66.8122 135.583 62.8828C135.583 58.9562 138.766 55.7722 142.694 55.7722C146.622 55.7722 149.806 58.9562 149.806 62.8828Z" fill="#100F0D"/>
<path d="M142.693 60.9945C142.693 62.1598 141.748 63.1052 140.582 63.1052C139.417 63.1052 138.472 62.1598 138.472 60.9945C138.472 59.8292 139.417 58.8838 140.582 58.8838C141.748 58.8838 142.693 59.8292 142.693 60.9945Z" fill="white"/>
<path d="M154.92 47.716C147.312 48.8414 133.337 51.5787 124.401 55.164C121.28 48.0853 120.656 39.9574 123.174 32.352C123.104 36.624 123.617 39.8707 124.456 42.2893C135.92 36.832 146.788 33.9467 150.632 33.132C152.504 36.2587 154.686 42.848 154.92 47.716Z" fill="#100F0D"/>
<path d="M216.862 121.495C220.341 122.615 223.034 125.976 222.714 130.749C222.221 138.296 217.261 140.549 212.154 139.816C212.154 141.175 211.848 142.629 211.168 144.083C208.808 149.189 200.501 151.203 192.501 147.643C190.529 158.243 176.501 158.828 171.048 155.401C168.301 161.629 159.196 163.416 154.328 159.456C152.234 165.656 141.034 166.896 137.101 160.643C133.448 165.976 127.221 168.643 117.101 167.643C111.529 167.083 108.101 165.229 106.074 162.936C97.3809 171.216 82.7276 165.803 80.4343 158.643C78.1143 161.803 72.7809 163.803 66.2743 162.643C62.6343 161.989 58.9676 159.523 57.3143 155.936C52.0076 162.309 39.0476 159.068 38.1143 151.309C31.8876 153.589 20.4343 152.976 16.7809 147.483C15.5009 145.563 14.7676 143.696 14.4609 141.936C6.40758 142.549 1.23426 138.963 0.94093 132.976C0.70093 128.123 4.51426 124.096 8.74093 123.309C10.4476 122.976 12.2343 123.189 13.8343 124.083C14.0476 120.976 17.5943 115.869 24.2743 115.869C28.7143 115.869 33.6076 118.309 34.2743 124.536C40.0609 114.309 52.4609 118.828 54.1009 125.068C59.3276 123.068 66.8476 126.443 67.6743 131.923C70.5943 128.469 75.6609 127.495 79.4476 127.803C83.2343 128.123 86.7009 129.976 88.7542 132.376C93.0209 126.856 104.408 129.068 105.074 134.948C107.568 131.603 111.648 129.336 116.048 128.976C121.901 128.495 127.274 130.841 130.594 134.029C132.114 128.149 137.261 125.909 141.274 125.483C145.941 124.976 152.781 126.976 154.714 133.869C155.608 129.136 163.101 126.976 165.834 132.083C166.608 126.816 170.168 123.029 176.274 121.643C179.834 120.828 183.048 121.161 185.488 122.696C186.888 119.243 190.582 115.948 194.941 115.643C200.541 115.256 206.941 117.136 208.501 123.203C211.074 121.083 214.208 120.629 216.862 121.495Z" fill="#E88D3A"/>
<path d="M217.479 121.753C216.909 128.724 212.249 130.817 207.443 130.128C207.443 131.424 207.151 132.809 206.505 134.193C204.254 139.06 196.338 140.98 188.714 137.587C186.833 147.689 173.465 148.248 168.267 144.983C165.649 150.917 156.973 152.62 152.333 148.844C150.337 154.753 139.665 155.936 135.915 149.976C132.431 155.059 126.498 157.601 116.854 156.648C111.542 156.113 108.275 154.347 106.345 152.161C98.0595 160.052 84.0928 154.893 81.9088 148.071C79.6968 151.081 74.6141 152.988 68.4141 151.881C64.9435 151.26 61.4488 148.909 59.8741 145.491C54.8155 151.564 42.4661 148.477 41.5755 141.081C35.6408 143.253 24.7248 142.669 21.2435 137.433C20.0235 135.604 19.3235 133.825 19.0315 132.149C11.6275 132.712 6.79147 129.545 6.20747 124.197C3.11414 125.803 0.751472 129.125 0.940806 132.976C1.23414 138.963 6.40746 142.549 14.4608 141.936C14.7675 143.696 15.5008 145.563 16.7808 147.483C20.4341 152.976 31.8875 153.589 38.1141 151.309C39.0475 159.068 52.0075 162.309 57.3141 155.936C58.9675 159.523 62.6341 161.989 66.2741 162.643C72.7808 163.803 78.1141 161.803 80.4341 158.643C82.7275 165.803 97.3808 171.216 106.074 162.936C108.101 165.229 111.529 167.083 117.101 167.643C127.221 168.643 133.447 165.976 137.101 160.643C141.034 166.896 152.234 165.656 154.327 159.456C159.195 163.416 168.301 161.629 171.047 155.401C176.501 158.828 190.529 158.243 192.501 147.643C200.501 151.203 208.807 149.189 211.167 144.083C211.847 142.629 212.154 141.175 212.154 139.816C217.261 140.549 222.221 138.296 222.714 130.749C223.015 126.269 220.649 123.057 217.479 121.753Z" fill="#D87639"/>
<path d="M30.7344 126.045L30.7584 126.063L30.8144 126.103L30.7344 126.045Z" fill="#F1AC56"/>
<path d="M31.2585 126.449C31.0918 126.321 30.9238 126.192 30.7585 126.063C30.2198 125.581 29.5785 125.263 28.9038 125.132C29.1532 124.5 29.2838 123.759 29.2025 123.087C29.0012 121.401 28.3878 120.295 27.0038 119.284C25.9212 118.495 24.4332 118.581 23.1972 118.776C22.1145 118.948 21.0798 119.737 20.3065 120.459C18.4838 122.157 17.4105 125.063 18.7652 127.357C19.8532 129.196 22.2332 129.907 24.2732 129.471C24.2185 130.061 24.2838 130.659 24.5225 131.235C24.8692 132.071 24.9958 132.293 25.5745 133.011C26.1185 133.685 27.1225 133.956 27.9412 133.991C28.2065 134.001 28.8625 134.181 28.0265 133.961C29.5505 134.363 31.0919 133.709 31.9145 132.38C32.4745 131.472 32.4585 130.465 32.4945 129.448C32.5212 128.704 32.3252 127.891 31.9225 127.261C31.7545 126.94 31.5332 126.669 31.2585 126.449Z" fill="#F1AC56"/>
<path d="M56.1112 134.251L55.8499 134.057C55.4979 133.633 55.0672 133.284 54.5699 133.045C54.1445 131.732 53.2725 130.592 51.9899 129.789C51.1739 129.279 50.0605 129.008 49.0445 129.103C49.0685 128.851 49.0872 128.597 49.0712 128.353C48.9699 126.917 48.4645 125.761 47.5112 124.685C45.9379 122.911 42.8752 123.011 41.2846 124.655C40.1139 125.863 39.9765 127.489 40.5779 128.815C40.3019 129.983 40.7272 131.265 41.5299 132.149C42.2192 132.912 43.4645 133.264 44.4779 133.197C43.9605 134.407 43.8565 135.821 44.2059 137.039C44.8979 139.436 47.0859 140.416 49.2992 140.292C50.1072 140.427 50.9432 140.436 51.8179 140.415L51.9459 140.469H51.9512C53.3472 141.043 54.9005 140.912 56.1112 139.701C57.4752 138.336 57.7525 135.568 56.1112 134.251Z" fill="#F1AC56"/>
<path d="M75.6715 132.876C74.3635 133.176 73.0475 133.796 71.9821 134.675C71.6581 134.467 71.3061 134.292 70.9101 134.131C72.4861 134.773 71.5355 134.355 71.1501 134.161C70.1515 133.661 69.4688 133.513 68.3674 133.397C67.5221 133.309 66.4648 133.621 65.7515 134.063C64.9021 134.589 63.9474 135.556 63.7981 136.576C63.6354 137.683 63.6341 137.856 63.7994 138.96C63.9928 140.264 65.3421 141.371 66.5368 141.699C66.9141 141.803 67.3155 141.839 67.7181 141.821L67.8648 141.876C68.7328 142.103 69.5314 141.999 70.3234 141.748C70.5941 142.284 70.9275 142.787 71.3421 143.224C71.8448 144.413 72.8274 145.425 74.2928 145.911C76.9181 146.78 80.2554 146.311 82.4528 144.672C85.7674 142.204 86.9768 137.913 84.0354 134.615C82.0781 132.421 78.3261 132.267 75.6715 132.876Z" fill="#F1AC56"/>
<path d="M59.6089 128.385C58.0769 128.385 56.7969 129.664 56.7969 131.199C56.7969 132.732 58.0769 134.011 59.6089 134.011C61.1409 134.011 62.4209 132.732 62.4209 131.199C62.4209 129.664 61.1409 128.385 59.6089 128.385Z" fill="#F1AC56"/>
<path d="M132.497 142.424C131.106 142.424 129.945 143.584 129.945 144.976C129.945 146.368 131.106 147.528 132.497 147.528C133.887 147.528 135.049 146.368 135.049 144.976C135.049 143.584 133.887 142.424 132.497 142.424Z" fill="#F1AC56"/>
<path d="M34.4675 134.451L34.3689 134.524C33.3089 134.82 32.6275 136.233 33.5995 137.207C34.5755 138.183 35.9968 137.493 36.2875 136.431L36.3555 136.339C37.1635 135.245 35.5595 133.64 34.4675 134.451Z" fill="#F1AC56"/>
<path d="M100.394 138.349C99.3651 137.893 98.5851 137.639 97.4291 137.612C96.3864 137.589 95.3197 138.016 94.4197 138.483C91.9651 139.753 90.7237 143.139 92.2597 145.547C92.7291 146.281 93.3638 146.86 94.1064 147.232C94.6971 147.865 95.4584 148.336 96.2998 148.516C97.5251 148.776 98.5904 148.565 99.7078 148.013L99.8957 147.892C100.753 147.221 100.858 147.147 100.208 147.664C100.593 147.425 100.949 147.125 101.285 146.82C102.481 145.727 103.092 144.491 103.246 142.867C103.42 141.049 101.998 139.06 100.394 138.349Z" fill="#F1AC56"/>
<path d="M126.903 137.901C125.203 136.144 122.819 135.324 120.441 135.074C117.441 134.764 114.98 135.617 113.199 138.141C112.987 138.442 112.808 138.752 112.649 139.065C111.333 138.468 109.763 138.38 108.333 138.628C108.02 138.682 107.724 138.782 107.443 138.912C105.487 139.6 104.161 141.757 104.399 143.813C104.659 146.069 106.031 147.966 108.344 148.48C110.329 148.92 112.233 148.412 113.785 147.128L113.817 147.094C114.821 148.201 116.176 149.034 117.783 149.39C118.191 149.482 118.595 149.528 119 149.552C119.885 149.716 120.792 149.672 121.632 149.417C121.765 149.428 121.895 149.441 122.031 149.448C127.705 149.688 130.699 141.826 126.903 137.901Z" fill="#F1AC56"/>
<path d="M148.463 134.073C148.435 133.864 148.397 133.656 148.33 133.451C147.973 132.368 146.907 131.28 145.654 131.415C144.291 131.56 143.109 132.059 142.374 133.303C141.974 133.98 141.883 134.709 141.982 135.401C139.754 135.533 137.911 137.231 137.841 139.513C137.782 139.704 137.731 139.893 137.695 140.081C137.362 141.769 138.15 143.852 140.046 144.221C141.269 144.461 142.351 144.563 143.578 144.328C145.837 143.899 147.199 141.832 147.286 139.643C147.309 139.057 147.167 138.497 146.925 137.983C147.945 137.376 148.621 136.227 148.555 135.06L148.566 134.98C148.555 134.6 148.434 133.759 148.463 134.073Z" fill="#F1AC56"/>
<path d="M189.941 127.992C189.07 127.992 188.265 128.292 187.603 128.78L187.503 128.525C187.374 128.251 187.067 127.393 187.457 128.568C187.267 127.997 186.987 127.352 186.642 126.837C185.035 124.433 182.53 123.437 179.698 123.865C181.346 123.617 179.463 123.828 178.913 124.013C178.075 124.292 177.319 124.685 176.689 125.316C175.482 126.521 174.942 128.4 175.39 130.055L175.331 130.403C174.689 130.368 173.997 130.437 173.517 130.612C172.361 131.033 171.633 131.647 170.905 132.519C170.49 132.385 170.061 132.293 169.607 132.293C167.501 132.293 165.713 133.857 165.339 135.868C164.921 135.485 164.454 135.156 164.011 134.917C162.609 134.163 161.058 133.928 159.509 134.323C157.819 134.752 156.409 136.48 156.475 138.257L156.422 138.324C155.835 139.152 155.874 140.313 156.079 141.245C156.306 142.284 157.193 143.199 158.069 143.751C159.085 144.392 160.421 144.639 161.606 144.519C162.974 144.383 164.617 144.036 165.577 142.943C166.167 142.269 166.646 141.597 166.859 140.708C166.914 140.477 166.931 140.261 166.951 140.044C167.693 140.627 168.609 140.992 169.607 140.992C170.287 140.992 170.925 140.815 171.503 140.527C171.734 140.693 171.978 140.836 172.237 140.956C172.65 141.643 173.438 142.36 174.254 142.492C175.429 142.685 176.391 142.896 177.593 142.656C179.362 142.303 180.478 140.589 181.058 139.021C181.279 138.424 181.351 137.828 181.315 137.253C182.15 137.251 182.974 137.147 183.671 136.991C184.957 136.703 186.203 135.811 187.05 134.681C187.782 135.461 188.807 135.96 189.941 135.96C192.113 135.96 193.925 134.148 193.925 131.976C193.925 129.804 192.113 127.992 189.941 127.992Z" fill="#F1AC56"/>
<path d="M203.755 121.519C203.029 120.193 201.874 119.456 200.51 118.92C199.405 118.484 197.901 118.336 196.779 118.764C194.937 119.464 193.571 120.891 193.571 122.976C193.571 123.816 193.801 124.543 194.186 125.163C194.271 126.147 194.609 126.779 195.21 127.555C195.603 128.063 196.239 128.433 196.825 128.696C198.055 129.253 199.446 129.799 200.803 129.279C202.462 128.647 203.475 127.573 204.086 125.923C204.623 124.471 204.499 122.873 203.755 121.519Z" fill="#F1AC56"/>
<path d="M55.4465 140.924L55.5278 141.122C49.6998 143.549 43.9145 144.962 38.9932 145.377C41.6598 137.71 48.8865 129.044 51.2198 127.044L52.2479 126.59C53.9932 130.484 55.1532 135.229 55.4465 140.924Z" fill="#FDEAB3"/>
<path d="M52.2476 126.591L51.2196 127.044C42.2196 133.377 35.5529 135.591 27.8862 136.924C30.2196 130.711 35.4462 122.377 43.2196 116.817L43.8862 115.871C47.1942 118.349 50.1529 121.843 52.2476 126.591Z" fill="#FDEAB3"/>
<path d="M31.6195 111.084C35.6595 111.496 40.0062 112.99 43.8862 115.87L43.2195 116.817C33.8862 122.15 26.3395 124.71 20.3262 127.377C22.1942 121.122 25.3928 115.537 31.6195 111.084Z" fill="#FDEAB3"/>
<path d="M73.6591 110.364C78.3791 116.257 78.5658 127.216 66.3258 135.377C62.8605 137.697 59.1791 139.603 55.5271 141.123L55.4458 140.924C55.1525 135.229 53.9925 130.484 52.2472 126.591C50.1525 121.843 47.1938 118.349 43.8858 115.871C40.0058 112.991 35.6591 111.496 31.6191 111.084C34.7125 108.871 38.5391 106.949 43.3258 105.364C54.4458 101.697 68.3258 103.697 73.6591 110.364Z" fill="#CD5C29"/>
<path d="M74.4901 121.072C73.9808 124.357 71.9594 129.215 65.2234 133.707C62.5168 135.511 59.5955 137.111 56.5915 138.477C54.9315 121.636 45.5155 113.277 36.1661 110.616C38.3888 109.388 40.9608 108.259 43.9595 107.269C47.3581 106.147 51.1581 105.553 54.9501 105.553C62.5381 105.553 69.1115 107.879 72.1048 111.617C74.1555 114.183 75.0261 117.628 74.4901 121.072ZM51.8554 129.192C52.9314 132.192 53.6715 135.649 53.9888 139.597C50.0461 141.179 46.0168 142.335 42.1688 142.963C44.9808 137.121 49.6968 131.371 51.8554 129.192ZM31.2555 134.213C33.8608 128.956 38.2941 122.793 44.3848 118.441L44.6488 118.161C46.7648 120.041 48.6568 122.416 50.1901 125.343L50.0715 125.401C42.7341 130.564 37.1328 132.853 31.2555 134.213ZM24.7368 123.345C24.4115 123.479 24.0901 123.609 23.7728 123.741C25.4381 119.971 28.1261 116.031 32.9648 112.613C35.7635 113.071 38.5808 114.06 41.2128 115.641C34.9355 119.144 29.5275 121.377 24.7368 123.345ZM54.9501 101.553C50.7381 101.553 46.5035 102.216 42.7061 103.469C29.4035 107.86 21.9128 115.055 18.4168 126.8C18.1941 127.547 18.4261 128.357 19.0128 128.873C19.5995 129.387 20.4328 129.515 21.1448 129.199C22.7368 128.491 24.4395 127.791 26.2555 127.045C28.3088 126.201 30.4701 125.313 32.7661 124.3C29.6035 128.424 27.3355 132.712 26.0181 136.221C25.7648 136.893 25.8928 137.649 26.3501 138.201C26.8075 138.753 27.5208 139.025 28.2328 138.895C32.9861 138.068 37.4995 136.889 42.4941 134.528C40.3488 137.691 38.3035 141.284 37.1101 144.713C36.8875 145.352 37.0048 146.06 37.4194 146.596C37.8008 147.087 38.3848 147.371 38.9995 147.371L39.1661 147.364C48.3128 146.601 58.8835 142.74 67.4421 137.035C75.3875 131.737 77.8101 125.764 78.4435 121.685C79.1488 117.137 77.9768 112.556 75.2275 109.119C71.4381 104.381 63.8581 101.553 54.9501 101.553Z" fill="#100F0D"/>
<path d="M180.313 105.364C185.1 106.949 188.94 108.871 192.033 111.084C187.993 111.484 183.634 112.977 179.753 115.883C176.446 118.364 173.486 121.857 171.406 126.603C169.66 130.496 168.513 135.229 168.206 140.924L168.126 141.137C164.46 139.616 160.78 137.697 157.313 135.377C145.086 127.216 145.273 116.257 149.98 110.364C155.313 103.697 169.206 101.697 180.313 105.364Z" fill="#CD5C29"/>
<path d="M172.419 127.044C174.753 129.044 181.979 137.71 184.646 145.377C179.739 144.962 173.953 143.549 168.126 141.137L168.206 140.924C168.513 135.229 169.659 130.496 171.406 126.602L172.419 127.044Z" fill="#FDEAB3"/>
<path d="M180.42 116.817C188.194 122.377 193.42 130.711 195.753 136.924C188.086 135.591 181.42 133.377 172.42 127.044L171.406 126.603C173.486 121.857 176.446 118.364 179.753 115.883L180.42 116.817Z" fill="#FDEAB3"/>
<path d="M192.033 111.084C198.26 115.537 201.46 121.122 203.313 127.377C197.313 124.71 189.753 122.15 180.42 116.817L179.753 115.882C183.634 112.977 187.993 111.484 192.033 111.084Z" fill="#FDEAB3"/>
<path d="M198.909 123.345C194.118 121.377 188.709 119.144 182.431 115.641C185.065 114.06 187.881 113.071 190.681 112.613C195.519 116.031 198.206 119.971 199.871 123.741C199.554 123.609 199.234 123.479 198.909 123.345ZM192.389 134.213C186.513 132.853 180.911 130.564 173.574 125.401L173.453 125.347C174.985 122.417 176.879 120.043 178.995 118.161L179.259 118.441C185.351 122.793 189.785 128.956 192.389 134.213ZM181.475 142.963C177.629 142.335 173.598 141.179 169.655 139.597C169.974 135.649 170.713 132.192 171.79 129.192C173.947 131.371 178.663 137.121 181.475 142.963ZM149.154 121.072C148.619 117.628 149.489 114.183 151.539 111.619C154.533 107.879 161.106 105.553 168.695 105.553C172.486 105.553 176.287 106.147 179.686 107.269C182.685 108.259 185.255 109.388 187.478 110.616C178.13 113.277 168.713 121.636 167.053 138.477C164.049 137.111 161.129 135.511 158.421 133.707C151.686 129.215 149.663 124.357 149.154 121.072ZM205.137 126.492C201.601 114.929 194.126 107.823 180.938 103.469C177.141 102.216 172.907 101.553 168.695 101.553C159.787 101.553 152.206 104.381 148.418 109.119C145.667 112.556 144.495 117.137 145.201 121.685C145.834 125.764 148.257 131.737 156.202 137.035C164.761 142.74 175.331 146.601 184.478 147.364L184.645 147.371H184.659C185.754 147.404 186.673 146.48 186.671 145.371C186.671 145.023 186.583 144.695 186.426 144.409C185.221 141.072 183.233 137.597 181.15 134.528C186.145 136.889 190.658 138.068 195.413 138.895C196.125 139.025 196.837 138.753 197.295 138.201C197.753 137.649 197.879 136.893 197.627 136.221C196.309 132.712 194.041 128.424 190.878 124.3C193.175 125.313 195.335 126.201 197.389 127.045C199.205 127.791 200.909 128.491 202.499 129.199C202.759 129.315 203.037 129.371 203.311 129.371H203.338C204.443 129.371 205.338 128.475 205.338 127.371C205.338 127.055 205.266 126.757 205.137 126.492Z" fill="#100F0D"/>
</g>
<defs>
<clipPath id="clip0_1_167">
<rect width="221.81" height="164.85" fill="white" transform="translate(0.930176 3)"/>
</clipPath>
</defs>
</svg>
