<svg width="222" height="169" viewBox="0 0 222 169" fill="none" xmlns="http://www.w3.org/2000/svg">
<g clip-path="url(#clip0_1_350)">
<path d="M167.197 92.5679C172.744 88.4893 181.851 91.5026 181.851 101.316C184.517 95.8092 196.171 97.1426 195.571 106.369C199.184 103.983 204.171 106.143 204.011 111.249C208.904 108.623 217.891 114.023 215.932 121.995C213.277 121.129 210.144 121.583 207.571 123.703C206.011 117.636 199.611 115.756 194.011 116.143C189.652 116.448 185.957 119.743 184.557 123.196C182.117 121.661 178.904 121.328 175.344 122.143C169.237 123.529 165.677 127.316 164.904 132.583C162.171 127.476 154.677 129.636 153.784 134.369C151.851 127.476 145.011 125.476 140.344 125.983C136.331 126.409 131.184 128.649 129.664 134.529C126.344 131.341 120.971 128.995 115.117 129.476C110.717 129.836 106.637 132.103 104.144 135.448C103.477 129.568 92.0908 127.356 87.8254 132.876C85.7708 130.476 82.3041 128.623 78.5174 128.303C74.7308 127.995 69.6641 128.969 66.7441 132.423C65.9174 126.943 58.3974 123.568 53.1707 125.568C51.5307 119.328 39.1308 114.809 33.3441 125.036C32.6774 118.809 27.7841 116.369 23.3441 116.369C16.6641 116.369 13.1174 121.476 12.9041 124.583C11.3041 123.689 9.51745 123.476 7.81078 123.809C5.65211 115.929 14.9441 109.888 20.2374 113.476C18.9041 105.476 28.6774 102.143 33.1841 107.476C31.3574 100.316 38.8255 95.2626 44.6241 97.3959C46.6521 89.9946 59.0508 85.6612 65.3441 93.9159C66.2374 88.5826 71.4374 85.0892 77.8508 85.9826C80.8374 86.3959 83.1841 87.8879 84.6908 89.7559C86.9041 83.7292 96.2654 82.4625 99.3441 87.8092C101.277 77.0492 119.637 72.1146 127.011 83.5026C129.464 82.2626 132.531 81.9012 136.011 82.8092C141.571 84.2625 144.517 88.9692 144.904 92.5826C148.291 82.8092 164.144 84.5826 167.184 92.5679H167.197Z" fill="#D87639"/>
<path d="M33.344 125.036C39.1307 114.809 51.5306 119.328 53.1706 125.568C58.3973 123.568 65.9174 126.943 66.744 132.423C69.664 128.969 74.7307 127.995 78.5173 128.303C82.304 128.623 85.7707 130.476 87.8253 132.876C92.0907 127.356 103.477 129.568 104.144 135.448C106.637 132.103 110.717 129.836 115.117 129.476C120.971 128.995 126.344 131.341 129.664 134.529C131.184 128.649 136.331 126.409 140.344 125.983C145.011 125.476 151.851 127.476 153.784 134.369C154.677 129.636 162.171 127.476 164.904 132.583C165.677 127.316 169.237 123.529 175.344 122.143C178.904 121.328 182.117 121.661 184.557 123.196C185.892 119.904 189.321 116.787 193.415 116.235C190.04 112.969 183.727 113.44 181.851 117.316C181.851 107.503 172.744 104.489 167.197 108.568H167.184C164.144 100.583 148.291 98.8092 144.904 108.583C144.517 104.969 141.571 100.263 136.011 98.8092C132.531 97.9012 129.464 98.2626 127.011 99.5026C119.637 88.1146 101.277 93.0492 99.344 103.809C96.2653 98.4625 86.904 99.7292 84.6907 105.756C83.184 103.888 80.8373 102.396 77.8507 101.983C71.4373 101.089 66.2374 104.583 65.344 109.916C59.0507 101.661 46.652 105.995 44.624 113.396C38.8254 111.263 31.3573 116.316 33.184 123.476L33.016 123.308C33.16 123.852 33.2774 124.42 33.344 125.036Z" fill="#B74F2F"/>
<path d="M192.23 126.587C192.23 137.815 158.652 146.92 117.23 146.92C75.8105 146.92 42.2305 137.815 42.2305 126.587C42.2305 115.359 75.8105 106.253 117.23 106.253C158.652 106.253 192.23 115.359 192.23 126.587Z" fill="#612D26"/>
<path d="M215.932 121.995C219.411 123.115 222.104 126.476 221.784 131.249C221.291 138.796 216.331 141.049 211.224 140.316C211.224 141.675 210.917 143.129 210.237 144.583C207.879 149.689 199.571 151.703 191.571 148.143C189.599 158.743 175.571 159.328 170.117 155.901C167.371 162.129 158.265 163.916 153.397 159.956C151.304 166.156 140.104 167.396 136.171 161.143C132.517 166.476 126.291 169.143 116.171 168.143C110.599 167.583 107.171 165.729 105.144 163.436C96.4507 171.716 81.7974 166.303 79.504 159.143C77.184 162.303 71.8508 164.303 65.3441 163.143C61.7041 162.489 58.0374 160.023 56.3841 156.436C51.0774 162.809 38.1174 159.568 37.1841 151.809C30.9574 154.089 19.5041 153.476 15.8507 147.983C14.5707 146.063 13.8374 144.196 13.5307 142.436C5.47741 143.049 0.304088 139.463 0.0107543 133.476C-0.229246 128.623 3.58409 124.596 7.81075 123.809C9.51742 123.476 11.304 123.689 12.904 124.583C13.1174 121.476 16.6641 116.369 23.3441 116.369C27.7841 116.369 32.6774 118.809 33.3441 125.036C39.1308 114.809 51.5307 119.328 53.1707 125.568C58.3974 123.568 65.9174 126.943 66.7441 132.423C69.6641 128.969 74.7307 127.995 78.5174 128.303C82.3041 128.623 85.7707 130.476 87.8254 132.876C92.0907 127.356 103.477 129.568 104.144 135.448C106.637 132.103 110.717 129.836 115.117 129.476C120.971 128.995 126.344 131.341 129.664 134.529C131.184 128.649 136.331 126.409 140.344 125.983C145.011 125.476 151.851 127.476 153.784 134.369C154.677 129.636 162.171 127.476 164.904 132.583C165.677 127.316 169.237 123.529 175.344 122.143C178.904 121.328 182.117 121.661 184.557 123.196C185.957 119.743 189.652 116.448 194.011 116.143C199.611 115.756 206.011 117.636 207.571 123.703C210.144 121.583 213.277 121.129 215.932 121.995Z" fill="#E88D3A"/>
<path d="M216.549 122.253C215.979 129.224 211.319 131.317 206.513 130.628C206.513 131.924 206.221 133.309 205.575 134.693C203.325 139.56 195.408 141.48 187.784 138.087C185.903 148.189 172.535 148.748 167.337 145.483C164.719 151.417 156.043 153.12 151.403 149.344C149.407 155.253 138.735 156.436 134.985 150.476C131.501 155.559 125.568 158.101 115.924 157.148C110.612 156.613 107.345 154.847 105.415 152.661C97.1293 160.552 83.1626 155.393 80.9786 148.571C78.7679 151.581 73.6839 153.488 67.4839 152.381C64.0133 151.76 60.5186 149.409 58.944 145.991C53.8853 152.064 41.5359 148.977 40.6453 141.581C34.7106 143.753 23.7946 143.169 20.3133 137.933C19.0933 136.104 18.3933 134.325 18.1026 132.649C10.6973 133.212 5.8613 130.045 5.2773 124.697C2.18396 126.303 -0.178703 129.625 0.0106299 133.476C0.303963 139.463 5.47728 143.049 13.5306 142.436C13.8373 144.196 14.5706 146.063 15.8506 147.983C19.5039 153.476 30.9573 154.089 37.1839 151.809C38.1173 159.568 51.0773 162.809 56.3839 156.436C58.0373 160.023 61.704 162.489 65.344 163.143C71.8506 164.303 77.1839 162.303 79.5039 159.143C81.7973 166.303 96.4506 171.716 105.144 163.436C107.171 165.729 110.599 167.583 116.171 168.143C126.291 169.143 132.517 166.476 136.171 161.143C140.104 167.396 151.304 166.156 153.397 159.956C158.265 163.916 167.371 162.129 170.117 155.901C175.571 159.328 189.599 158.743 191.571 148.143C199.571 151.703 207.879 149.689 210.237 144.583C210.917 143.129 211.224 141.675 211.224 140.316C216.331 141.049 221.291 138.796 221.784 131.249C222.085 126.769 219.719 123.557 216.549 122.253Z" fill="#D87639"/>
<path d="M29.8037 126.545L29.8277 126.563L29.8837 126.603L29.8037 126.545Z" fill="#F1AC56"/>
<path d="M30.3279 126.949C30.1612 126.821 29.9932 126.692 29.8279 126.563C29.2892 126.081 28.6478 125.763 27.9732 125.632C28.2225 125 28.3532 124.259 28.2719 123.587C28.0705 121.901 27.4572 120.795 26.0732 119.784C24.9918 118.995 23.5025 119.081 22.2665 119.276C21.1839 119.448 20.1492 120.237 19.3758 120.959C17.5532 122.657 16.4798 125.563 17.8345 127.857C18.9225 129.696 21.3025 130.407 23.3425 129.971C23.2879 130.561 23.3532 131.159 23.5919 131.735C23.9385 132.571 24.0652 132.793 24.6439 133.511C25.1879 134.185 26.1919 134.456 27.0106 134.491C27.2759 134.501 27.9319 134.681 27.0959 134.461C28.6199 134.863 30.1612 134.209 30.9839 132.88C31.5452 131.972 31.5279 130.965 31.5639 129.948C31.5905 129.204 31.3945 128.391 30.9919 127.761C30.8252 127.44 30.6025 127.169 30.3279 126.949Z" fill="#F1AC56"/>
<path d="M55.1814 134.751L54.9201 134.557C54.5681 134.133 54.1374 133.784 53.6401 133.545C53.2147 132.232 52.3428 131.092 51.0601 130.289C50.2441 129.779 49.1308 129.508 48.1148 129.603C48.1388 129.351 48.1588 129.097 48.1414 128.853C48.0401 127.417 47.5348 126.261 46.5814 125.185C45.0081 123.411 41.9455 123.511 40.3548 125.155C39.1841 126.363 39.0481 127.989 39.6481 129.315C39.3721 130.483 39.7974 131.765 40.6001 132.649C41.2894 133.412 42.5348 133.764 43.5481 133.697C43.0308 134.907 42.9267 136.321 43.2761 137.539C43.9681 139.936 46.1561 140.916 48.3694 140.792C49.1774 140.927 50.0135 140.936 50.8881 140.915L51.0161 140.969H51.0241C52.4175 141.543 53.9708 141.412 55.1814 140.201C56.5468 138.836 56.8228 136.068 55.1814 134.751Z" fill="#F1AC56"/>
<path d="M74.7413 133.376C73.4346 133.676 72.1173 134.296 71.052 135.175C70.728 134.967 70.376 134.792 69.98 134.631C71.556 135.273 70.6053 134.855 70.2199 134.661C69.2213 134.161 68.5386 134.013 67.4373 133.897C66.5919 133.809 65.5346 134.121 64.8213 134.563C63.972 135.089 63.0173 136.056 62.8679 137.076C62.7053 138.183 62.704 138.356 62.8693 139.46C63.0626 140.764 64.4119 141.871 65.6066 142.199C65.9839 142.303 66.3853 142.339 66.788 142.321L66.936 142.376C67.8026 142.603 68.6026 142.499 69.3933 142.248C69.664 142.784 69.9973 143.287 70.4119 143.724C70.9146 144.913 71.8973 145.925 73.3626 146.411C75.988 147.28 79.3253 146.811 81.5226 145.172C84.8373 142.704 86.048 138.413 83.1053 135.115C81.148 132.921 77.396 132.767 74.7413 133.376Z" fill="#F1AC56"/>
<path d="M58.6787 128.886C57.1467 128.886 55.8667 130.164 55.8667 131.699C55.8667 133.232 57.1467 134.511 58.6787 134.511C60.212 134.511 61.492 133.232 61.492 131.699C61.492 130.164 60.212 128.886 58.6787 128.886Z" fill="#F1AC56"/>
<path d="M131.567 142.924C130.176 142.924 129.015 144.084 129.015 145.476C129.015 146.868 130.176 148.028 131.567 148.028C132.957 148.028 134.119 146.868 134.119 145.476C134.119 144.084 132.957 142.924 131.567 142.924Z" fill="#F1AC56"/>
<path d="M33.537 134.951L33.4384 135.024C32.3797 135.32 31.697 136.733 32.669 137.707C33.645 138.683 35.0664 137.993 35.3571 136.931L35.425 136.839C36.233 135.745 34.629 134.14 33.537 134.951Z" fill="#F1AC56"/>
<path d="M99.4637 138.849C98.4357 138.393 97.6544 138.139 96.4984 138.112C95.4557 138.089 94.389 138.516 93.489 138.983C91.0344 140.253 89.7931 143.639 91.3291 146.047C91.7984 146.781 92.433 147.36 93.1757 147.732C93.7664 148.365 94.5277 148.836 95.3691 149.016C96.5944 149.276 97.6597 149.065 98.7771 148.513L98.965 148.392C99.8237 147.721 99.9277 147.647 99.2771 148.164C99.6624 147.925 100.018 147.625 100.354 147.32C101.55 146.227 102.161 144.991 102.316 143.367C102.489 141.549 101.068 139.56 99.4637 138.849Z" fill="#F1AC56"/>
<path d="M125.972 138.401C124.272 136.644 121.888 135.824 119.511 135.574C116.511 135.264 114.049 136.117 112.269 138.641C112.056 138.942 111.879 139.252 111.719 139.565C110.403 138.968 108.832 138.88 107.403 139.128C107.089 139.182 106.793 139.282 106.512 139.412C104.556 140.1 103.231 142.257 103.468 144.313C103.728 146.569 105.101 148.466 107.413 148.98C109.399 149.42 111.303 148.912 112.855 147.628L112.887 147.594C113.891 148.701 115.245 149.534 116.852 149.89C117.26 149.982 117.664 150.028 118.069 150.052C118.955 150.216 119.861 150.172 120.701 149.917C120.835 149.928 120.964 149.941 121.1 149.948C126.775 150.188 129.769 142.326 125.972 138.401Z" fill="#F1AC56"/>
<path d="M147.533 134.573C147.505 134.364 147.467 134.156 147.4 133.951C147.043 132.868 145.977 131.78 144.724 131.915C143.361 132.06 142.179 132.559 141.444 133.803C141.045 134.48 140.953 135.209 141.052 135.901C138.825 136.033 136.981 137.731 136.911 140.013C136.852 140.204 136.801 140.393 136.765 140.581C136.432 142.269 137.22 144.352 139.116 144.721C140.339 144.961 141.421 145.063 142.648 144.828C144.907 144.399 146.269 142.332 146.356 140.143C146.38 139.557 146.237 138.997 145.995 138.483C147.015 137.876 147.691 136.727 147.625 135.56L147.636 135.48C147.625 135.1 147.504 134.259 147.533 134.573Z" fill="#F1AC56"/>
<path d="M189.011 128.492C188.14 128.492 187.335 128.792 186.673 129.28L186.573 129.025C186.444 128.751 186.137 127.893 186.527 129.068C186.337 128.497 186.057 127.852 185.713 127.337C184.105 124.933 181.6 123.937 178.769 124.365C180.416 124.117 178.533 124.328 177.983 124.513C177.145 124.792 176.389 125.185 175.759 125.816C174.552 127.021 174.012 128.9 174.46 130.555L174.401 130.903C173.759 130.868 173.067 130.937 172.587 131.112C171.431 131.533 170.703 132.147 169.975 133.019C169.56 132.885 169.131 132.793 168.677 132.793C166.571 132.793 164.783 134.357 164.409 136.368C163.992 135.985 163.524 135.656 163.081 135.417C161.679 134.663 160.128 134.428 158.579 134.823C156.889 135.252 155.479 136.98 155.547 138.757L155.492 138.824C154.905 139.652 154.944 140.813 155.149 141.745C155.376 142.784 156.263 143.699 157.139 144.251C158.155 144.892 159.492 145.139 160.676 145.019C162.044 144.883 163.687 144.536 164.647 143.443C165.237 142.769 165.716 142.097 165.929 141.208C165.984 140.977 166.001 140.761 166.021 140.544C166.763 141.127 167.679 141.492 168.677 141.492C169.357 141.492 169.995 141.315 170.573 141.027C170.804 141.193 171.048 141.336 171.307 141.456C171.72 142.143 172.508 142.86 173.325 142.992C174.499 143.185 175.461 143.396 176.663 143.156C178.432 142.803 179.548 141.089 180.128 139.521C180.349 138.924 180.421 138.328 180.385 137.753C181.22 137.751 182.045 137.647 182.741 137.491C184.027 137.203 185.273 136.311 186.12 135.181C186.852 135.961 187.879 136.46 189.011 136.46C191.183 136.46 192.995 134.648 192.995 132.476C192.995 130.304 191.183 128.492 189.011 128.492Z" fill="#F1AC56"/>
<path d="M215.932 121.995C219.411 123.115 222.104 126.476 221.784 131.249C221.291 138.796 216.331 141.049 211.224 140.316C211.224 141.675 210.917 143.129 210.237 144.583C207.879 149.689 199.571 151.703 191.571 148.143C189.599 158.743 175.571 159.328 170.117 155.901C167.371 162.129 158.265 163.916 153.397 159.956C151.304 166.156 140.104 167.396 136.171 161.143C132.517 166.476 126.291 169.143 116.171 168.143C110.599 167.583 107.171 165.729 105.144 163.436C96.4507 171.716 81.7974 166.303 79.504 159.143C77.184 162.303 71.8508 164.303 65.3441 163.143C61.7041 162.489 58.0374 160.023 56.3841 156.436C51.0774 162.809 38.1174 159.568 37.1841 151.809C30.9574 154.089 19.5041 153.476 15.8507 147.983C14.5707 146.063 13.8374 144.196 13.5307 142.436C5.47741 143.049 0.304088 139.463 0.0107543 133.476C-0.229246 128.623 3.58409 124.596 7.81075 123.809C9.51742 123.476 11.304 123.689 12.904 124.583C13.1174 121.476 16.6641 116.369 23.3441 116.369C27.7841 116.369 32.6774 118.809 33.3441 125.036C39.1308 114.809 51.5307 119.328 53.1707 125.568C58.3974 123.568 65.9174 126.943 66.7441 132.423C69.6641 128.969 74.7307 127.995 78.5174 128.303C82.3041 128.623 85.7707 130.476 87.8254 132.876C92.0907 127.356 103.477 129.568 104.144 135.448C106.637 132.103 110.717 129.836 115.117 129.476C120.971 128.995 126.344 131.341 129.664 134.529C131.184 128.649 136.331 126.409 140.344 125.983C145.011 125.476 151.851 127.476 153.784 134.369C154.677 129.636 162.171 127.476 164.904 132.583C165.677 127.316 169.237 123.529 175.344 122.143C178.904 121.328 182.117 121.661 184.557 123.196C185.957 119.743 189.652 116.448 194.011 116.143C199.611 115.756 206.011 117.636 207.571 123.703C210.144 121.583 213.277 121.129 215.932 121.995Z" fill="#E88D3A"/>
<path d="M216.549 122.253C215.979 129.224 211.319 131.317 206.513 130.628C206.513 131.924 206.221 133.309 205.575 134.693C203.325 139.56 195.408 141.48 187.784 138.087C185.903 148.189 172.535 148.748 167.337 145.483C164.719 151.417 156.043 153.12 151.403 149.344C149.407 155.253 138.735 156.436 134.985 150.476C131.501 155.559 125.568 158.101 115.924 157.148C110.612 156.613 107.345 154.847 105.415 152.661C97.1293 160.552 83.1626 155.393 80.9786 148.571C78.7679 151.581 73.6839 153.488 67.4839 152.381C64.0133 151.76 60.5186 149.409 58.944 145.991C53.8853 152.064 41.5359 148.977 40.6453 141.581C34.7106 143.753 23.7946 143.169 20.3133 137.933C19.0933 136.104 18.3933 134.325 18.1026 132.649C10.6973 133.212 5.8613 130.045 5.2773 124.697C2.18396 126.303 -0.178703 129.625 0.0106299 133.476C0.303963 139.463 5.47728 143.049 13.5306 142.436C13.8373 144.196 14.5706 146.063 15.8506 147.983C19.5039 153.476 30.9573 154.089 37.1839 151.809C38.1173 159.568 51.0773 162.809 56.3839 156.436C58.0373 160.023 61.704 162.489 65.344 163.143C71.8506 164.303 77.1839 162.303 79.5039 159.143C81.7973 166.303 96.4506 171.716 105.144 163.436C107.171 165.729 110.599 167.583 116.171 168.143C126.291 169.143 132.517 166.476 136.171 161.143C140.104 167.396 151.304 166.156 153.397 159.956C158.265 163.916 167.371 162.129 170.117 155.901C175.571 159.328 189.599 158.743 191.571 148.143C199.571 151.703 207.879 149.689 210.237 144.583C210.917 143.129 211.224 141.675 211.224 140.316C216.331 141.049 221.291 138.796 221.784 131.249C222.085 126.769 219.719 123.557 216.549 122.253Z" fill="#D87639"/>
<path d="M29.8037 126.545L29.8277 126.563L29.8837 126.603L29.8037 126.545Z" fill="#F1AC56"/>
<path d="M30.3279 126.949C30.1612 126.821 29.9932 126.692 29.8279 126.563C29.2892 126.081 28.6478 125.763 27.9732 125.632C28.2225 125 28.3532 124.259 28.2719 123.587C28.0705 121.901 27.4572 120.795 26.0732 119.784C24.9918 118.995 23.5025 119.081 22.2665 119.276C21.1839 119.448 20.1492 120.237 19.3758 120.959C17.5532 122.657 16.4798 125.563 17.8345 127.857C18.9225 129.696 21.3025 130.407 23.3425 129.971C23.2879 130.561 23.3532 131.159 23.5919 131.735C23.9385 132.571 24.0652 132.793 24.6439 133.511C25.1879 134.185 26.1919 134.456 27.0106 134.491C27.2759 134.501 27.9319 134.681 27.0959 134.461C28.6199 134.863 30.1612 134.209 30.9839 132.88C31.5452 131.972 31.5279 130.965 31.5639 129.948C31.5905 129.204 31.3945 128.391 30.9919 127.761C30.8252 127.44 30.6025 127.169 30.3279 126.949Z" fill="#F1AC56"/>
<path d="M55.1814 134.751L54.9201 134.557C54.5681 134.133 54.1374 133.784 53.6401 133.545C53.2147 132.232 52.3428 131.092 51.0601 130.289C50.2441 129.779 49.1308 129.508 48.1148 129.603C48.1388 129.351 48.1588 129.097 48.1414 128.853C48.0401 127.417 47.5348 126.261 46.5814 125.185C45.0081 123.411 41.9455 123.511 40.3548 125.155C39.1841 126.363 39.0481 127.989 39.6481 129.315C39.3721 130.483 39.7974 131.765 40.6001 132.649C41.2894 133.412 42.5348 133.764 43.5481 133.697C43.0308 134.907 42.9267 136.321 43.2761 137.539C43.9681 139.936 46.1561 140.916 48.3694 140.792C49.1774 140.927 50.0135 140.936 50.8881 140.915L51.0161 140.969H51.0241C52.4175 141.543 53.9708 141.412 55.1814 140.201C56.5468 138.836 56.8228 136.068 55.1814 134.751Z" fill="#F1AC56"/>
<path d="M74.7413 133.376C73.4346 133.676 72.1173 134.296 71.052 135.175C70.728 134.967 70.376 134.792 69.98 134.631C71.556 135.273 70.6053 134.855 70.2199 134.661C69.2213 134.161 68.5386 134.013 67.4373 133.897C66.5919 133.809 65.5346 134.121 64.8213 134.563C63.972 135.089 63.0173 136.056 62.8679 137.076C62.7053 138.183 62.704 138.356 62.8693 139.46C63.0626 140.764 64.4119 141.871 65.6066 142.199C65.9839 142.303 66.3853 142.339 66.788 142.321L66.936 142.376C67.8026 142.603 68.6026 142.499 69.3933 142.248C69.664 142.784 69.9973 143.287 70.4119 143.724C70.9146 144.913 71.8973 145.925 73.3626 146.411C75.988 147.28 79.3253 146.811 81.5226 145.172C84.8373 142.704 86.048 138.413 83.1053 135.115C81.148 132.921 77.396 132.767 74.7413 133.376Z" fill="#F1AC56"/>
<path d="M58.6787 128.886C57.1467 128.886 55.8667 130.164 55.8667 131.699C55.8667 133.232 57.1467 134.511 58.6787 134.511C60.212 134.511 61.492 133.232 61.492 131.699C61.492 130.164 60.212 128.886 58.6787 128.886Z" fill="#F1AC56"/>
<path d="M131.567 142.924C130.176 142.924 129.015 144.084 129.015 145.476C129.015 146.868 130.176 148.028 131.567 148.028C132.957 148.028 134.119 146.868 134.119 145.476C134.119 144.084 132.957 142.924 131.567 142.924Z" fill="#F1AC56"/>
<path d="M33.537 134.951L33.4384 135.024C32.3797 135.32 31.697 136.733 32.669 137.707C33.645 138.683 35.0664 137.993 35.3571 136.931L35.425 136.839C36.233 135.745 34.629 134.14 33.537 134.951Z" fill="#F1AC56"/>
<path d="M99.4637 138.849C98.4357 138.393 97.6544 138.139 96.4984 138.112C95.4557 138.089 94.389 138.516 93.489 138.983C91.0344 140.253 89.7931 143.639 91.3291 146.047C91.7984 146.781 92.433 147.36 93.1757 147.732C93.7664 148.365 94.5277 148.836 95.3691 149.016C96.5944 149.276 97.6597 149.065 98.7771 148.513L98.965 148.392C99.8237 147.721 99.9277 147.647 99.2771 148.164C99.6624 147.925 100.018 147.625 100.354 147.32C101.55 146.227 102.161 144.991 102.316 143.367C102.489 141.549 101.068 139.56 99.4637 138.849Z" fill="#F1AC56"/>
<path d="M125.972 138.401C124.272 136.644 121.888 135.824 119.511 135.574C116.511 135.264 114.049 136.117 112.269 138.641C112.056 138.942 111.879 139.252 111.719 139.565C110.403 138.968 108.832 138.88 107.403 139.128C107.089 139.182 106.793 139.282 106.512 139.412C104.556 140.1 103.231 142.257 103.468 144.313C103.728 146.569 105.101 148.466 107.413 148.98C109.399 149.42 111.303 148.912 112.855 147.628L112.887 147.594C113.891 148.701 115.245 149.534 116.852 149.89C117.26 149.982 117.664 150.028 118.069 150.052C118.955 150.216 119.861 150.172 120.701 149.917C120.835 149.928 120.964 149.941 121.1 149.948C126.775 150.188 129.769 142.326 125.972 138.401Z" fill="#F1AC56"/>
<path d="M147.533 134.573C147.505 134.364 147.467 134.156 147.4 133.951C147.043 132.868 145.977 131.78 144.724 131.915C143.361 132.06 142.179 132.559 141.444 133.803C141.045 134.48 140.953 135.209 141.052 135.901C138.825 136.033 136.981 137.731 136.911 140.013C136.852 140.204 136.801 140.393 136.765 140.581C136.432 142.269 137.22 144.352 139.116 144.721C140.339 144.961 141.421 145.063 142.648 144.828C144.907 144.399 146.269 142.332 146.356 140.143C146.38 139.557 146.237 138.997 145.995 138.483C147.015 137.876 147.691 136.727 147.625 135.56L147.636 135.48C147.625 135.1 147.504 134.259 147.533 134.573Z" fill="#F1AC56"/>
<path d="M189.011 128.492C188.14 128.492 187.335 128.792 186.673 129.28L186.573 129.025C186.444 128.751 186.137 127.893 186.527 129.068C186.337 128.497 186.057 127.852 185.713 127.337C184.105 124.933 181.6 123.937 178.769 124.365C180.416 124.117 178.533 124.328 177.983 124.513C177.145 124.792 176.389 125.185 175.759 125.816C174.552 127.021 174.012 128.9 174.46 130.555L174.401 130.903C173.759 130.868 173.067 130.937 172.587 131.112C171.431 131.533 170.703 132.147 169.975 133.019C169.56 132.885 169.131 132.793 168.677 132.793C166.571 132.793 164.783 134.357 164.409 136.368C163.992 135.985 163.524 135.656 163.081 135.417C161.679 134.663 160.128 134.428 158.579 134.823C156.889 135.252 155.479 136.98 155.547 138.757L155.492 138.824C154.905 139.652 154.944 140.813 155.149 141.745C155.376 142.784 156.263 143.699 157.139 144.251C158.155 144.892 159.492 145.139 160.676 145.019C162.044 144.883 163.687 144.536 164.647 143.443C165.237 142.769 165.716 142.097 165.929 141.208C165.984 140.977 166.001 140.761 166.021 140.544C166.763 141.127 167.679 141.492 168.677 141.492C169.357 141.492 169.995 141.315 170.573 141.027C170.804 141.193 171.048 141.336 171.307 141.456C171.72 142.143 172.508 142.86 173.325 142.992C174.499 143.185 175.461 143.396 176.663 143.156C178.432 142.803 179.548 141.089 180.128 139.521C180.349 138.924 180.421 138.328 180.385 137.753C181.22 137.751 182.045 137.647 182.741 137.491C184.027 137.203 185.273 136.311 186.12 135.181C186.852 135.961 187.879 136.46 189.011 136.46C191.183 136.46 192.995 134.648 192.995 132.476C192.995 130.304 191.183 128.492 189.011 128.492Z" fill="#F1AC56"/>
</g>
<defs>
<clipPath id="clip0_1_350">
<rect width="221.81" height="91.3497" fill="white" transform="translate(0 77)"/>
</clipPath>
</defs>
</svg>
