<svg width="223" height="169" viewBox="0 0 223 169" fill="none" xmlns="http://www.w3.org/2000/svg">
<g clip-path="url(#clip0_1_169)">
<path d="M203.03 122.019C202.304 120.693 201.149 119.956 199.785 119.42C198.68 118.984 197.176 118.836 196.054 119.264C194.212 119.964 192.846 121.391 192.846 123.476C192.846 124.316 193.076 125.043 193.461 125.663C193.546 126.647 193.884 127.279 194.485 128.055C194.878 128.563 195.514 128.933 196.1 129.196C197.33 129.753 198.721 130.299 200.078 129.779C201.737 129.147 202.752 128.073 203.362 126.423C203.898 124.971 203.774 123.373 203.03 122.019Z" fill="#F1AC56"/>
<path d="M167.402 92.5679C172.949 88.4893 182.056 91.5026 182.056 101.316C184.722 95.8092 196.376 97.1426 195.776 106.369C199.389 103.983 204.376 106.143 204.216 111.249C209.109 108.623 218.096 114.023 216.137 121.995C213.482 121.129 210.349 121.583 207.776 123.703C206.216 117.636 199.816 115.756 194.216 116.143C189.857 116.448 186.163 119.743 184.763 123.196C182.323 121.661 179.109 121.328 175.549 122.143C169.443 123.529 165.882 127.316 165.109 132.583C162.376 127.476 154.882 129.636 153.989 134.369C152.056 127.476 145.216 125.476 140.549 125.983C136.536 126.409 131.389 128.649 129.869 134.529C126.549 131.341 121.176 128.995 115.322 129.476C110.922 129.836 106.843 132.103 104.349 135.448C103.683 129.568 92.2958 127.356 88.0305 132.876C85.9758 130.476 82.5092 128.623 78.7225 128.303C74.9358 127.995 69.8692 128.969 66.9492 132.423C66.1225 126.943 58.6025 123.568 53.3758 125.568C51.7358 119.328 39.3359 114.809 33.5492 125.036C32.8825 118.809 27.9892 116.369 23.5492 116.369C16.8692 116.369 13.3225 121.476 13.1092 124.583C11.5092 123.689 9.72253 123.476 8.01586 123.809C5.85719 115.929 15.1492 109.888 20.4425 113.476C19.1092 105.476 28.8825 102.143 33.3892 107.476C31.5625 100.316 39.0305 95.2626 44.8292 97.3959C46.8572 89.9946 59.2559 85.6612 65.5492 93.9159C66.4425 88.5826 71.6425 85.0892 78.0558 85.9826C81.0425 86.3959 83.3892 87.8879 84.8959 89.7559C87.1092 83.7292 96.4705 82.4625 99.5492 87.8092C101.483 77.0492 119.843 72.1146 127.216 83.5026C129.669 82.2626 132.736 81.9012 136.216 82.8092C141.776 84.2625 144.722 88.9692 145.109 92.5826C148.496 82.8092 164.349 84.5826 167.389 92.5679H167.402Z" fill="#D87639"/>
<path d="M33.5491 125.036C39.3358 114.809 51.7357 119.328 53.3757 125.568C58.6024 123.568 66.1224 126.943 66.9491 132.423C69.8691 128.969 74.9357 127.995 78.7224 128.303C82.5091 128.623 85.9757 130.476 88.0304 132.876C92.2957 127.356 103.682 129.568 104.349 135.448C106.842 132.103 110.922 129.836 115.322 129.476C121.176 128.995 126.549 131.341 129.869 134.529C131.389 128.649 136.536 126.409 140.549 125.983C145.216 125.476 152.056 127.476 153.989 134.369C154.882 129.636 162.376 127.476 165.109 132.583C165.882 127.316 169.442 123.529 175.549 122.143C179.109 121.328 182.322 121.661 184.762 123.196C186.097 119.904 189.526 116.787 193.62 116.235C190.245 112.969 183.932 113.44 182.056 117.316C182.056 107.503 172.949 104.489 167.402 108.568H167.389C164.349 100.583 148.496 98.8092 145.109 108.583C144.722 104.969 141.776 100.263 136.216 98.8092C132.736 97.9012 129.669 98.2626 127.216 99.5026C119.842 88.1146 101.482 93.0492 99.5491 103.809C96.4704 98.4625 87.1091 99.7292 84.8958 105.756C83.3891 103.888 81.0424 102.396 78.0557 101.983C71.6424 101.089 66.4424 104.583 65.5491 109.916C59.2558 101.661 46.8571 105.995 44.8291 113.396C39.0304 111.263 31.5624 116.316 33.3891 123.476L33.2211 123.308C33.3651 123.852 33.4824 124.42 33.5491 125.036Z" fill="#B74F2F"/>
<path d="M192.436 126.587C192.436 137.815 158.857 146.92 117.436 146.92C76.0155 146.92 42.4355 137.815 42.4355 126.587C42.4355 115.359 76.0155 106.253 117.436 106.253C158.857 106.253 192.436 115.359 192.436 126.587Z" fill="#612D26"/>
<path d="M216.137 121.995C219.616 123.115 222.309 126.476 221.989 131.249C221.496 138.796 216.536 141.049 211.429 140.316C211.429 141.675 211.122 143.129 210.442 144.583C208.084 149.689 199.776 151.703 191.776 148.143C189.804 158.743 175.776 159.328 170.322 155.901C167.576 162.129 158.47 163.916 153.602 159.956C151.509 166.156 140.309 167.396 136.376 161.143C132.722 166.476 126.496 169.143 116.376 168.143C110.804 167.583 107.376 165.729 105.349 163.436C96.6558 171.716 82.0024 166.303 79.7091 159.143C77.3891 162.303 72.0558 164.303 65.5492 163.143C61.9092 162.489 58.2425 160.023 56.5891 156.436C51.2825 162.809 38.3225 159.568 37.3891 151.809C31.1625 154.089 19.7091 153.476 16.0558 147.983C14.7758 146.063 14.0425 144.196 13.7358 142.436C5.68249 143.049 0.509166 139.463 0.215832 133.476C-0.0241676 128.623 3.78917 124.596 8.01583 123.809C9.7225 123.476 11.5091 123.689 13.1091 124.583C13.3225 121.476 16.8692 116.369 23.5492 116.369C27.9892 116.369 32.8825 118.809 33.5492 125.036C39.3358 114.809 51.7358 119.328 53.3758 125.568C58.6025 123.568 66.1225 126.943 66.9492 132.423C69.8692 128.969 74.9358 127.995 78.7225 128.303C82.5091 128.623 85.9758 130.476 88.0305 132.876C92.2958 127.356 103.682 129.568 104.349 135.448C106.842 132.103 110.922 129.836 115.322 129.476C121.176 128.995 126.549 131.341 129.869 134.529C131.389 128.649 136.536 126.409 140.549 125.983C145.216 125.476 152.056 127.476 153.989 134.369C154.882 129.636 162.376 127.476 165.109 132.583C165.882 127.316 169.442 123.529 175.549 122.143C179.109 121.328 182.323 121.661 184.763 123.196C186.163 119.743 189.857 116.448 194.216 116.143C199.816 115.756 206.216 117.636 207.776 123.703C210.349 121.583 213.482 121.129 216.137 121.995Z" fill="#E88D3A"/>
<path d="M216.754 122.253C216.184 129.224 211.524 131.317 206.718 130.628C206.718 131.924 206.426 133.309 205.78 134.693C203.53 139.56 195.613 141.48 187.989 138.087C186.108 148.189 172.74 148.748 167.542 145.483C164.924 151.417 156.248 153.12 151.608 149.344C149.612 155.253 138.94 156.436 135.19 150.476C131.706 155.559 125.773 158.101 116.129 157.148C110.817 156.613 107.55 154.847 105.62 152.661C97.3344 160.552 83.3677 155.393 81.1837 148.571C78.973 151.581 73.889 153.488 67.689 152.381C64.2184 151.76 60.7237 149.409 59.149 145.991C54.0904 152.064 41.741 148.977 40.8503 141.581C34.9157 143.753 23.9997 143.169 20.5184 137.933C19.2984 136.104 18.5984 134.325 18.3077 132.649C10.9024 133.212 6.06637 130.045 5.48237 124.697C2.38904 126.303 0.0263747 129.625 0.215708 133.476C0.509041 139.463 5.68236 143.049 13.7357 142.436C14.0424 144.196 14.7757 146.063 16.0557 147.983C19.709 153.476 31.1623 154.089 37.389 151.809C38.3223 159.568 51.2823 162.809 56.589 156.436C58.2424 160.023 61.909 162.489 65.549 163.143C72.0557 164.303 77.389 162.303 79.709 159.143C82.0023 166.303 96.6557 171.716 105.349 163.436C107.376 165.729 110.804 167.583 116.376 168.143C126.496 169.143 132.722 166.476 136.376 161.143C140.309 167.396 151.509 166.156 153.602 159.956C158.47 163.916 167.576 162.129 170.322 155.901C175.776 159.328 189.804 158.743 191.776 148.143C199.776 151.703 208.084 149.689 210.442 144.583C211.122 143.129 211.429 141.675 211.429 140.316C216.536 141.049 221.496 138.796 221.989 131.249C222.29 126.769 219.924 123.557 216.754 122.253Z" fill="#D87639"/>
<path d="M30.0088 126.545L30.0328 126.563L30.0888 126.603L30.0088 126.545Z" fill="#F1AC56"/>
<path d="M30.5329 126.949C30.3663 126.821 30.1983 126.692 30.0329 126.563C29.4943 126.081 28.8529 125.763 28.1783 125.632C28.4276 125 28.5583 124.259 28.477 123.587C28.2756 121.901 27.6623 120.795 26.2783 119.784C25.1969 118.995 23.7076 119.081 22.4716 119.276C21.389 119.448 20.3543 120.237 19.5809 120.959C17.7583 122.657 16.6849 125.563 18.0396 127.857C19.1276 129.696 21.5076 130.407 23.5476 129.971C23.4929 130.561 23.5583 131.159 23.7969 131.735C24.1436 132.571 24.2703 132.793 24.849 133.511C25.393 134.185 26.397 134.456 27.2156 134.491C27.481 134.501 28.137 134.681 27.301 134.461C28.825 134.863 30.3663 134.209 31.1889 132.88C31.7503 131.972 31.7329 130.965 31.7689 129.948C31.7956 129.204 31.5996 128.391 31.1969 127.761C31.0303 127.44 30.8076 127.169 30.5329 126.949Z" fill="#F1AC56"/>
<path d="M55.3865 134.751L55.1252 134.557C54.7732 134.133 54.3425 133.784 53.8452 133.545C53.4198 132.232 52.5479 131.092 51.2652 130.289C50.4492 129.779 49.3358 129.508 48.3198 129.603C48.3438 129.351 48.3639 129.097 48.3465 128.853C48.2452 127.417 47.7398 126.261 46.7865 125.185C45.2132 123.411 42.1505 123.511 40.5599 125.155C39.3892 126.363 39.2532 127.989 39.8532 129.315C39.5772 130.483 40.0025 131.765 40.8052 132.649C41.4945 133.412 42.7398 133.764 43.7532 133.697C43.2358 134.907 43.1318 136.321 43.4812 137.539C44.1732 139.936 46.3612 140.916 48.5745 140.792C49.3825 140.927 50.2185 140.936 51.0932 140.915L51.2212 140.969H51.2292C52.6225 141.543 54.1758 141.412 55.3865 140.201C56.7518 138.836 57.0278 136.068 55.3865 134.751Z" fill="#F1AC56"/>
<path d="M74.9464 133.376C73.6397 133.676 72.3224 134.296 71.257 135.175C70.933 134.967 70.581 134.792 70.185 134.631C71.761 135.273 70.8104 134.855 70.425 134.661C69.4264 134.161 68.7437 134.013 67.6423 133.897C66.797 133.809 65.7397 134.121 65.0264 134.563C64.1771 135.089 63.2223 136.056 63.073 137.076C62.9103 138.183 62.909 138.356 63.0744 139.46C63.2677 140.764 64.617 141.871 65.8117 142.199C66.189 142.303 66.5904 142.339 66.9931 142.321L67.141 142.376C68.0077 142.603 68.8077 142.499 69.5984 142.248C69.8691 142.784 70.2023 143.287 70.617 143.724C71.1197 144.913 72.1024 145.925 73.5677 146.411C76.1931 147.28 79.5304 146.811 81.7277 145.172C85.0424 142.704 86.253 138.413 83.3104 135.115C81.353 132.921 77.601 132.767 74.9464 133.376Z" fill="#F1AC56"/>
<path d="M58.8838 128.886C57.3518 128.886 56.0718 130.164 56.0718 131.699C56.0718 133.232 57.3518 134.511 58.8838 134.511C60.4171 134.511 61.6971 133.232 61.6971 131.699C61.6971 130.164 60.4171 128.886 58.8838 128.886Z" fill="#F1AC56"/>
<path d="M131.772 142.924C130.381 142.924 129.22 144.084 129.22 145.476C129.22 146.868 130.381 148.028 131.772 148.028C133.162 148.028 134.324 146.868 134.324 145.476C134.324 144.084 133.162 142.924 131.772 142.924Z" fill="#F1AC56"/>
<path d="M33.7421 134.951L33.6435 135.024C32.5848 135.32 31.9021 136.733 32.8741 137.707C33.8501 138.683 35.2715 137.993 35.5621 136.931L35.6301 136.839C36.4381 135.745 34.8341 134.14 33.7421 134.951Z" fill="#F1AC56"/>
<path d="M99.6688 138.849C98.6408 138.393 97.8594 138.139 96.7034 138.112C95.6608 138.089 94.5941 138.516 93.6941 138.983C91.2395 140.253 89.9982 143.639 91.5342 146.047C92.0035 146.781 92.6381 147.36 93.3808 147.732C93.9714 148.365 94.7328 148.836 95.5741 149.016C96.7995 149.276 97.8648 149.065 98.9821 148.513L99.1701 148.392C100.029 147.721 100.133 147.647 99.4821 148.164C99.8675 147.925 100.223 147.625 100.559 147.32C101.755 146.227 102.366 144.991 102.521 143.367C102.694 141.549 101.273 139.56 99.6688 138.849Z" fill="#F1AC56"/>
<path d="M126.177 138.401C124.477 136.644 122.093 135.824 119.716 135.574C116.716 135.264 114.254 136.117 112.474 138.641C112.261 138.942 112.084 139.252 111.924 139.565C110.608 138.968 109.037 138.88 107.608 139.128C107.294 139.182 106.998 139.282 106.717 139.412C104.761 140.1 103.436 142.257 103.673 144.313C103.933 146.569 105.306 148.466 107.618 148.98C109.604 149.42 111.508 148.912 113.06 147.628L113.092 147.594C114.096 148.701 115.45 149.534 117.057 149.89C117.465 149.982 117.869 150.028 118.274 150.052C119.16 150.216 120.066 150.172 120.906 149.917C121.04 149.928 121.169 149.941 121.305 149.948C126.98 150.188 129.974 142.326 126.177 138.401Z" fill="#F1AC56"/>
<path d="M147.738 134.573C147.71 134.364 147.672 134.156 147.605 133.951C147.248 132.868 146.182 131.78 144.929 131.915C143.566 132.06 142.384 132.559 141.649 133.803C141.25 134.48 141.158 135.209 141.257 135.901C139.03 136.033 137.186 137.731 137.116 140.013C137.057 140.204 137.006 140.393 136.97 140.581C136.637 142.269 137.425 144.352 139.321 144.721C140.544 144.961 141.626 145.063 142.853 144.828C145.112 144.399 146.474 142.332 146.561 140.143C146.585 139.557 146.442 138.997 146.2 138.483C147.22 137.876 147.896 136.727 147.83 135.56L147.841 135.48C147.83 135.1 147.709 134.259 147.738 134.573Z" fill="#F1AC56"/>
<path d="M189.216 128.492C188.345 128.492 187.54 128.792 186.878 129.28L186.778 129.025C186.649 128.751 186.342 127.893 186.732 129.068C186.542 128.497 186.262 127.852 185.918 127.337C184.31 124.933 181.805 123.937 178.974 124.365C180.621 124.117 178.738 124.328 178.188 124.513C177.35 124.792 176.594 125.185 175.964 125.816C174.757 127.021 174.217 128.9 174.665 130.555L174.606 130.903C173.964 130.868 173.272 130.937 172.792 131.112C171.636 131.533 170.908 132.147 170.18 133.019C169.765 132.885 169.336 132.793 168.882 132.793C166.776 132.793 164.988 134.357 164.614 136.368C164.197 135.985 163.729 135.656 163.286 135.417C161.884 134.663 160.333 134.428 158.784 134.823C157.094 135.252 155.684 136.98 155.752 138.757L155.697 138.824C155.11 139.652 155.149 140.813 155.354 141.745C155.581 142.784 156.468 143.699 157.344 144.251C158.36 144.892 159.697 145.139 160.881 145.019C162.249 144.883 163.892 144.536 164.852 143.443C165.442 142.769 165.921 142.097 166.134 141.208C166.189 140.977 166.206 140.761 166.226 140.544C166.968 141.127 167.884 141.492 168.882 141.492C169.562 141.492 170.2 141.315 170.778 141.027C171.009 141.193 171.253 141.336 171.512 141.456C171.925 142.143 172.713 142.86 173.53 142.992C174.704 143.185 175.666 143.396 176.868 143.156C178.637 142.803 179.753 141.089 180.333 139.521C180.554 138.924 180.626 138.328 180.59 137.753C181.425 137.751 182.25 137.647 182.946 137.491C184.232 137.203 185.478 136.311 186.325 135.181C187.057 135.961 188.084 136.46 189.216 136.46C191.388 136.46 193.2 134.648 193.2 132.476C193.2 130.304 191.388 128.492 189.216 128.492Z" fill="#F1AC56"/>
<mask id="mask0_1_169" style="mask-type:luminance" maskUnits="userSpaceOnUse" x="60" y="97" width="103" height="50">
<path d="M160.708 137.725C156.374 124.592 148.961 114.097 139.601 107.165C131.361 101.072 121.614 97.7254 111.108 97.7254C99.6543 97.7254 89.0943 101.711 80.4157 108.899C72.0823 115.805 65.4943 125.645 61.5076 137.725C61.281 138.432 61.0543 139.165 60.8276 139.925C74.5876 144.219 94.841 146.925 117.441 146.925C134.214 146.925 149.708 145.432 162.201 142.912C161.721 141.032 161.228 139.299 160.708 137.725Z" fill="white"/>
</mask>
<g mask="url(#mask0_1_169)">
<path d="M111.109 243.873C123.036 243.873 160.888 241.799 169.702 236.095C168.148 197.205 164.56 155.769 158.814 138.352C151.09 114.943 133.125 99.7227 111.109 99.7227C89.0956 99.7227 71.1276 114.943 63.4062 138.352C57.6582 155.769 54.073 197.205 52.5156 236.095C61.3303 241.799 99.1849 243.873 111.109 243.873Z" fill="#CD5C29"/>
<path d="M59.849 237.463C61.317 200.787 64.6996 161.709 70.1196 145.281C77.4036 123.205 94.3489 108.849 115.109 108.849C135.872 108.849 152.817 123.205 160.101 145.281C161.093 148.293 160.314 142.9 158.814 138.352C151.09 114.943 133.125 99.7227 111.109 99.7227C89.0956 99.7227 71.1276 114.943 63.4063 138.352C57.6583 155.769 54.073 197.205 52.5156 236.095C55.609 238.096 61.8876 238.781 59.849 237.463Z" fill="#E6894A"/>
<path d="M54.565 234.959C64.237 239.808 98.4836 241.873 111.109 241.873C123.734 241.873 157.984 239.808 167.656 234.959C165.794 189.583 161.789 153.755 156.914 138.979C149.333 115.999 131.781 101.723 111.109 101.723C90.437 101.723 72.885 115.999 65.305 138.979C60.429 153.755 56.4237 189.583 54.565 234.959ZM111.109 245.873C103.781 245.873 61.6383 244.38 51.429 237.773C50.8357 237.389 50.489 236.72 50.5183 236.015C51.4063 213.78 54.257 159.695 61.505 137.725C69.645 113.051 88.653 97.7227 111.109 97.7227C133.568 97.7227 152.573 113.051 160.713 137.725C167.961 159.695 170.812 213.78 171.702 236.015C171.729 236.72 171.382 237.389 170.789 237.773C160.584 244.38 118.44 245.873 111.109 245.873Z" fill="#100F0D"/>
<path d="M68.0263 142.439C75.633 143.564 89.609 146.301 98.5436 149.887C101.666 142.808 102.289 134.68 99.7703 127.075C99.8409 131.347 99.3276 134.593 98.4889 137.012C87.0263 131.555 76.1583 128.669 72.3143 127.855C70.4423 130.981 68.2596 137.571 68.0263 142.439Z" fill="#100F0D"/>
<path d="M154.193 142.439C146.586 143.564 132.612 146.301 123.674 149.887C120.554 142.808 119.929 134.68 122.448 127.075C122.377 131.347 122.89 134.593 123.729 137.012C135.193 131.555 146.062 128.669 149.906 127.855C151.778 130.981 153.961 137.571 154.193 142.439Z" fill="#100F0D"/>
</g>
<path d="M55.0331 138.167L54.8878 138.325C50.2452 134.047 46.5411 129.381 44.1064 125.085C52.1878 124.301 63.0811 127.24 65.8745 128.523L66.7158 129.267C63.9092 132.481 60.0838 135.52 55.0331 138.167Z" fill="#FDEAB3"/>
<path d="M66.7158 129.267L65.8744 128.523C56.3571 122.996 51.5571 117.868 47.1411 111.461C53.7598 110.981 63.5158 112.243 71.8171 116.979L72.9558 117.188C72.0878 121.228 70.1505 125.379 66.7158 129.267Z" fill="#FDEAB3"/>
<path d="M72.1715 104.044C73.4861 107.885 73.9475 112.459 72.9555 117.188L71.8168 116.979C63.0675 110.731 57.5861 104.947 52.6475 100.601C59.1115 99.6815 65.5235 100.251 72.1715 104.044Z" fill="#FDEAB3"/>
<path d="M90.4117 141.928C87.033 148.68 77.1557 153.435 64.625 145.729C61.0677 143.552 57.797 141.005 54.8877 138.325L55.033 138.167C60.0837 135.52 63.909 132.481 66.7157 129.267C70.1504 125.379 72.0877 121.228 72.9557 117.188C73.9477 112.459 73.4863 107.885 72.1717 104.044C75.4757 105.928 78.8224 108.601 82.265 112.284C90.2477 120.851 94.237 134.295 90.4117 141.928Z" fill="#CD5C29"/>
<path d="M81.0303 147.161C77.8356 148.073 72.5783 148.269 65.6796 144.029C62.909 142.325 60.2342 140.341 57.7369 138.184C72.3382 129.632 75.9916 117.583 74.4969 107.979C76.5436 109.484 78.6449 111.345 80.7996 113.656C83.2396 116.272 85.3663 119.479 86.9529 122.921C90.1276 129.815 90.7649 136.757 88.6223 141.041C87.1503 143.976 84.3849 146.208 81.0303 147.161ZM64.1903 129.997C61.9143 132.231 59.0836 134.349 55.6303 136.289C52.5436 133.369 49.8076 130.193 47.6303 126.96C54.1116 127.072 61.3076 128.949 64.1903 129.997ZM51.013 113.388C56.8743 113.555 64.3276 115.004 70.8276 118.716L71.193 118.839C70.3716 121.547 69.0049 124.26 66.9889 126.876L66.885 126.792C59.1276 122.287 54.705 118.157 51.013 113.388ZM58.1556 102.921C57.8983 102.68 57.645 102.444 57.393 102.212C61.5156 102.147 66.2183 102.939 71.3463 105.905C72.101 108.639 72.3796 111.611 72.0463 114.663C66.2396 110.428 61.9476 106.448 58.1556 102.921ZM90.5876 121.249C88.825 117.423 86.453 113.853 83.7263 110.929C74.1743 100.681 64.5049 96.8867 52.3743 98.6241C51.6009 98.7347 50.9636 99.2854 50.7396 100.033C50.5182 100.781 50.7529 101.593 51.3383 102.107C52.6449 103.256 53.9943 104.511 55.4316 105.848C57.057 107.36 58.7649 108.951 60.6476 110.613C55.5783 109.465 50.7343 109.2 46.9943 109.471C46.2809 109.523 45.6476 109.953 45.3356 110.601C45.0289 111.247 45.0783 112.008 45.4943 112.601C48.2343 116.572 51.193 120.179 55.4263 123.728C51.6556 123.103 47.5356 122.747 43.9236 123.099C43.2503 123.163 42.6556 123.565 42.3409 124.165C42.0569 124.717 42.0409 125.368 42.2996 125.925L42.3743 126.075C46.8956 134.063 54.8223 142.049 63.5863 147.436C71.7209 152.437 78.1583 152.14 82.1303 151.009C86.5543 149.748 90.2263 146.768 92.1969 142.831C94.9169 137.408 94.3116 129.339 90.5876 121.249Z" fill="#100F0D"/>
<path d="M167.185 138.167L167.33 138.325C171.974 134.047 175.677 129.381 178.112 125.085C170.033 124.301 159.138 127.24 156.346 128.523L155.502 129.267C158.309 132.481 162.136 135.52 167.185 138.167Z" fill="#FDEAB3"/>
<path d="M155.503 129.267L156.347 128.523C165.863 122.996 170.661 117.868 175.081 111.461C168.461 110.981 158.703 112.243 150.404 116.979L149.263 117.188C150.133 121.228 152.068 125.379 155.503 129.267Z" fill="#FDEAB3"/>
<path d="M150.046 104.044C148.731 107.885 148.27 112.459 149.262 117.188L150.403 116.979C159.15 110.731 164.633 104.947 169.57 100.601C163.109 99.6815 156.697 100.251 150.046 104.044Z" fill="#FDEAB3"/>
<path d="M131.808 141.928C135.188 148.68 145.063 153.435 157.596 145.729C161.153 143.552 164.424 141.005 167.331 138.325L167.185 138.167C162.136 135.52 158.309 132.481 155.503 129.267C152.068 125.379 150.133 121.228 149.263 117.188C148.271 112.459 148.732 107.885 150.047 104.044C146.743 105.928 143.399 108.601 139.956 112.284C131.975 120.851 127.984 134.295 131.808 141.928Z" fill="#CD5C29"/>
<path d="M133.596 141.041C131.453 136.757 132.09 129.815 135.265 122.921C136.852 119.479 138.978 116.272 141.42 113.656C143.573 111.345 145.677 109.484 147.721 107.979C146.226 117.583 149.88 129.632 164.484 138.184C161.986 140.341 159.309 142.325 156.538 144.029C149.642 148.269 144.385 148.073 141.188 147.161C137.836 146.208 135.07 143.976 133.596 141.041ZM174.59 126.96C172.412 130.193 169.674 133.369 166.588 136.289C163.136 134.349 160.305 132.231 158.03 129.997C160.912 128.949 168.109 127.072 174.59 126.96ZM155.333 126.792L155.232 126.876C153.213 124.26 151.849 121.547 151.026 118.839C151.148 118.799 151.273 118.783 151.39 118.716C157.89 115.004 165.344 113.555 171.208 113.388C167.516 118.157 163.093 122.287 155.333 126.792ZM150.174 114.663C149.838 111.611 150.12 108.639 150.874 105.905C156.002 102.939 160.705 102.147 164.825 102.212C164.576 102.444 164.32 102.68 164.065 102.921C160.27 106.448 155.981 110.428 150.174 114.663ZM130.021 142.831C131.994 146.768 135.664 149.748 140.09 151.009C144.06 152.14 150.5 152.437 158.636 147.436C167.396 142.049 175.325 134.063 179.844 126.075L179.92 125.925C180.177 125.368 180.164 124.717 179.877 124.165C179.565 123.565 178.972 123.163 178.297 123.099C174.682 122.747 170.562 123.103 166.794 123.728C171.029 120.179 173.986 116.572 176.726 112.601C177.141 112.008 177.193 111.247 176.882 110.601C176.573 109.953 175.94 109.523 175.224 109.471C171.484 109.2 166.641 109.465 161.573 110.613C163.453 108.951 165.164 107.36 166.789 105.848C168.226 104.511 169.573 103.256 170.882 102.107C171.469 101.593 171.7 100.781 171.478 100.033C171.254 99.2854 170.617 98.7347 169.846 98.6241C157.716 96.8867 148.046 100.681 138.492 110.929C135.768 113.853 133.393 117.423 131.633 121.249C127.906 129.339 127.305 137.408 130.021 142.831Z" fill="#100F0D"/>
<path d="M216.137 121.995C219.616 123.115 222.309 126.476 221.989 131.249C221.496 138.796 216.536 141.049 211.429 140.316C211.429 141.675 211.122 143.129 210.442 144.583C208.084 149.689 199.776 151.703 191.776 148.143C189.804 158.743 175.776 159.328 170.322 155.901C167.576 162.129 158.47 163.916 153.602 159.956C151.509 166.156 140.309 167.396 136.376 161.143C132.722 166.476 126.496 169.143 116.376 168.143C110.804 167.583 107.376 165.729 105.349 163.436C96.6558 171.716 82.0024 166.303 79.7091 159.143C77.3891 162.303 72.0558 164.303 65.5492 163.143C61.9092 162.489 58.2425 160.023 56.5891 156.436C51.2825 162.809 38.3225 159.568 37.3891 151.809C31.1625 154.089 19.7091 153.476 16.0558 147.983C14.7758 146.063 14.0425 144.196 13.7358 142.436C5.68249 143.049 0.509166 139.463 0.215832 133.476C-0.0241676 128.623 3.78917 124.596 8.01583 123.809C9.7225 123.476 11.5091 123.689 13.1091 124.583C13.3225 121.476 16.8692 116.369 23.5492 116.369C27.9892 116.369 32.8825 118.809 33.5492 125.036C39.3358 114.809 51.7358 119.328 53.3758 125.568C58.6025 123.568 66.1225 126.943 66.9492 132.423C69.8692 128.969 74.9358 127.995 78.7225 128.303C82.5091 128.623 85.9758 130.476 88.0305 132.876C92.2958 127.356 103.682 129.568 104.349 135.448C106.842 132.103 110.922 129.836 115.322 129.476C121.176 128.995 126.549 131.341 129.869 134.529C131.389 128.649 136.536 126.409 140.549 125.983C145.216 125.476 152.056 127.476 153.989 134.369C154.882 129.636 162.376 127.476 165.109 132.583C165.882 127.316 169.442 123.529 175.549 122.143C179.109 121.328 182.323 121.661 184.763 123.196C186.163 119.743 189.857 116.448 194.216 116.143C199.816 115.756 206.216 117.636 207.776 123.703C210.349 121.583 213.482 121.129 216.137 121.995Z" fill="#E88D3A"/>
<path d="M216.754 122.253C216.184 129.224 211.524 131.317 206.718 130.628C206.718 131.924 206.426 133.309 205.78 134.693C203.53 139.56 195.613 141.48 187.989 138.087C186.108 148.189 172.74 148.748 167.542 145.483C164.924 151.417 156.248 153.12 151.608 149.344C149.612 155.253 138.94 156.436 135.19 150.476C131.706 155.559 125.773 158.101 116.129 157.148C110.817 156.613 107.55 154.847 105.62 152.661C97.3344 160.552 83.3677 155.393 81.1837 148.571C78.973 151.581 73.889 153.488 67.689 152.381C64.2184 151.76 60.7237 149.409 59.149 145.991C54.0904 152.064 41.741 148.977 40.8503 141.581C34.9157 143.753 23.9997 143.169 20.5184 137.933C19.2984 136.104 18.5984 134.325 18.3077 132.649C10.9024 133.212 6.06637 130.045 5.48237 124.697C2.38904 126.303 0.0263747 129.625 0.215708 133.476C0.509041 139.463 5.68236 143.049 13.7357 142.436C14.0424 144.196 14.7757 146.063 16.0557 147.983C19.709 153.476 31.1623 154.089 37.389 151.809C38.3223 159.568 51.2823 162.809 56.589 156.436C58.2424 160.023 61.909 162.489 65.549 163.143C72.0557 164.303 77.389 162.303 79.709 159.143C82.0023 166.303 96.6557 171.716 105.349 163.436C107.376 165.729 110.804 167.583 116.376 168.143C126.496 169.143 132.722 166.476 136.376 161.143C140.309 167.396 151.509 166.156 153.602 159.956C158.47 163.916 167.576 162.129 170.322 155.901C175.776 159.328 189.804 158.743 191.776 148.143C199.776 151.703 208.084 149.689 210.442 144.583C211.122 143.129 211.429 141.675 211.429 140.316C216.536 141.049 221.496 138.796 221.989 131.249C222.29 126.769 219.924 123.557 216.754 122.253Z" fill="#D87639"/>
<path d="M30.0088 126.545L30.0328 126.563L30.0888 126.603L30.0088 126.545Z" fill="#F1AC56"/>
<path d="M30.5329 126.949C30.3663 126.821 30.1983 126.692 30.0329 126.563C29.4943 126.081 28.8529 125.763 28.1783 125.632C28.4276 125 28.5583 124.259 28.477 123.587C28.2756 121.901 27.6623 120.795 26.2783 119.784C25.1969 118.995 23.7076 119.081 22.4716 119.276C21.389 119.448 20.3543 120.237 19.5809 120.959C17.7583 122.657 16.6849 125.563 18.0396 127.857C19.1276 129.696 21.5076 130.407 23.5476 129.971C23.4929 130.561 23.5583 131.159 23.7969 131.735C24.1436 132.571 24.2703 132.793 24.849 133.511C25.393 134.185 26.397 134.456 27.2156 134.491C27.481 134.501 28.137 134.681 27.301 134.461C28.825 134.863 30.3663 134.209 31.1889 132.88C31.7503 131.972 31.7329 130.965 31.7689 129.948C31.7956 129.204 31.5996 128.391 31.1969 127.761C31.0303 127.44 30.8076 127.169 30.5329 126.949Z" fill="#F1AC56"/>
<path d="M55.3865 134.751L55.1252 134.557C54.7732 134.133 54.3425 133.784 53.8452 133.545C53.4198 132.232 52.5479 131.092 51.2652 130.289C50.4492 129.779 49.3358 129.508 48.3198 129.603C48.3438 129.351 48.3639 129.097 48.3465 128.853C48.2452 127.417 47.7398 126.261 46.7865 125.185C45.2132 123.411 42.1505 123.511 40.5599 125.155C39.3892 126.363 39.2532 127.989 39.8532 129.315C39.5772 130.483 40.0025 131.765 40.8052 132.649C41.4945 133.412 42.7398 133.764 43.7532 133.697C43.2358 134.907 43.1318 136.321 43.4812 137.539C44.1732 139.936 46.3612 140.916 48.5745 140.792C49.3825 140.927 50.2185 140.936 51.0932 140.915L51.2212 140.969H51.2292C52.6225 141.543 54.1758 141.412 55.3865 140.201C56.7518 138.836 57.0278 136.068 55.3865 134.751Z" fill="#F1AC56"/>
<path d="M74.9464 133.376C73.6397 133.676 72.3224 134.296 71.257 135.175C70.933 134.967 70.581 134.792 70.185 134.631C71.761 135.273 70.8104 134.855 70.425 134.661C69.4264 134.161 68.7437 134.013 67.6423 133.897C66.797 133.809 65.7397 134.121 65.0264 134.563C64.1771 135.089 63.2223 136.056 63.073 137.076C62.9103 138.183 62.909 138.356 63.0744 139.46C63.2677 140.764 64.617 141.871 65.8117 142.199C66.189 142.303 66.5904 142.339 66.9931 142.321L67.141 142.376C68.0077 142.603 68.8077 142.499 69.5984 142.248C69.8691 142.784 70.2023 143.287 70.617 143.724C71.1197 144.913 72.1024 145.925 73.5677 146.411C76.1931 147.28 79.5304 146.811 81.7277 145.172C85.0424 142.704 86.253 138.413 83.3104 135.115C81.353 132.921 77.601 132.767 74.9464 133.376Z" fill="#F1AC56"/>
<path d="M58.8838 128.886C57.3518 128.886 56.0718 130.164 56.0718 131.699C56.0718 133.232 57.3518 134.511 58.8838 134.511C60.4171 134.511 61.6971 133.232 61.6971 131.699C61.6971 130.164 60.4171 128.886 58.8838 128.886Z" fill="#F1AC56"/>
<path d="M131.772 142.924C130.381 142.924 129.22 144.084 129.22 145.476C129.22 146.868 130.381 148.028 131.772 148.028C133.162 148.028 134.324 146.868 134.324 145.476C134.324 144.084 133.162 142.924 131.772 142.924Z" fill="#F1AC56"/>
<path d="M33.7421 134.951L33.6435 135.024C32.5848 135.32 31.9021 136.733 32.8741 137.707C33.8501 138.683 35.2715 137.993 35.5621 136.931L35.6301 136.839C36.4381 135.745 34.8341 134.14 33.7421 134.951Z" fill="#F1AC56"/>
<path d="M99.6688 138.849C98.6408 138.393 97.8594 138.139 96.7034 138.112C95.6608 138.089 94.5941 138.516 93.6941 138.983C91.2395 140.253 89.9982 143.639 91.5342 146.047C92.0035 146.781 92.6381 147.36 93.3808 147.732C93.9714 148.365 94.7328 148.836 95.5741 149.016C96.7995 149.276 97.8648 149.065 98.9821 148.513L99.1701 148.392C100.029 147.721 100.133 147.647 99.4821 148.164C99.8675 147.925 100.223 147.625 100.559 147.32C101.755 146.227 102.366 144.991 102.521 143.367C102.694 141.549 101.273 139.56 99.6688 138.849Z" fill="#F1AC56"/>
<path d="M126.177 138.401C124.477 136.644 122.093 135.824 119.716 135.574C116.716 135.264 114.254 136.117 112.474 138.641C112.261 138.942 112.084 139.252 111.924 139.565C110.608 138.968 109.037 138.88 107.608 139.128C107.294 139.182 106.998 139.282 106.717 139.412C104.761 140.1 103.436 142.257 103.673 144.313C103.933 146.569 105.306 148.466 107.618 148.98C109.604 149.42 111.508 148.912 113.06 147.628L113.092 147.594C114.096 148.701 115.45 149.534 117.057 149.89C117.465 149.982 117.869 150.028 118.274 150.052C119.16 150.216 120.066 150.172 120.906 149.917C121.04 149.928 121.169 149.941 121.305 149.948C126.98 150.188 129.974 142.326 126.177 138.401Z" fill="#F1AC56"/>
<path d="M147.738 134.573C147.71 134.364 147.672 134.156 147.605 133.951C147.248 132.868 146.182 131.78 144.929 131.915C143.566 132.06 142.384 132.559 141.649 133.803C141.25 134.48 141.158 135.209 141.257 135.901C139.03 136.033 137.186 137.731 137.116 140.013C137.057 140.204 137.006 140.393 136.97 140.581C136.637 142.269 137.425 144.352 139.321 144.721C140.544 144.961 141.626 145.063 142.853 144.828C145.112 144.399 146.474 142.332 146.561 140.143C146.585 139.557 146.442 138.997 146.2 138.483C147.22 137.876 147.896 136.727 147.83 135.56L147.841 135.48C147.83 135.1 147.709 134.259 147.738 134.573Z" fill="#F1AC56"/>
<path d="M189.216 128.492C188.345 128.492 187.54 128.792 186.878 129.28L186.778 129.025C186.649 128.751 186.342 127.893 186.732 129.068C186.542 128.497 186.262 127.852 185.918 127.337C184.31 124.933 181.805 123.937 178.974 124.365C180.621 124.117 178.738 124.328 178.188 124.513C177.35 124.792 176.594 125.185 175.964 125.816C174.757 127.021 174.217 128.9 174.665 130.555L174.606 130.903C173.964 130.868 173.272 130.937 172.792 131.112C171.636 131.533 170.908 132.147 170.18 133.019C169.765 132.885 169.336 132.793 168.882 132.793C166.776 132.793 164.988 134.357 164.614 136.368C164.197 135.985 163.729 135.656 163.286 135.417C161.884 134.663 160.333 134.428 158.784 134.823C157.094 135.252 155.684 136.98 155.752 138.757L155.697 138.824C155.11 139.652 155.149 140.813 155.354 141.745C155.581 142.784 156.468 143.699 157.344 144.251C158.36 144.892 159.697 145.139 160.881 145.019C162.249 144.883 163.892 144.536 164.852 143.443C165.442 142.769 165.921 142.097 166.134 141.208C166.189 140.977 166.206 140.761 166.226 140.544C166.968 141.127 167.884 141.492 168.882 141.492C169.562 141.492 170.2 141.315 170.778 141.027C171.009 141.193 171.253 141.336 171.512 141.456C171.925 142.143 172.713 142.86 173.53 142.992C174.704 143.185 175.666 143.396 176.868 143.156C178.637 142.803 179.753 141.089 180.333 139.521C180.554 138.924 180.626 138.328 180.59 137.753C181.425 137.751 182.25 137.647 182.946 137.491C184.232 137.203 185.478 136.311 186.325 135.181C187.057 135.961 188.084 136.46 189.216 136.46C191.388 136.46 193.2 134.648 193.2 132.476C193.2 130.304 191.388 128.492 189.216 128.492Z" fill="#F1AC56"/>
<path d="M203.03 122.019C202.304 120.693 201.149 119.956 199.785 119.42C198.68 118.984 197.176 118.836 196.054 119.264C194.212 119.964 192.846 121.391 192.846 123.476C192.846 124.316 193.076 125.043 193.461 125.663C193.546 126.647 193.884 127.279 194.485 128.055C194.878 128.563 195.514 128.933 196.1 129.196C197.33 129.753 198.721 130.299 200.078 129.779C201.737 129.147 202.752 128.073 203.362 126.423C203.898 124.971 203.774 123.373 203.03 122.019Z" fill="#F1AC56"/>
</g>
<defs>
<clipPath id="clip0_1_169">
<rect width="221.81" height="91.3497" fill="white" transform="translate(0.205078 77)"/>
</clipPath>
</defs>
</svg>
