<?xml version="1.0" standalone="no"?>
<!DOCTYPE svg PUBLIC "-//W3C//DTD SVG 20010904//EN"
 "http://www.w3.org/TR/2001/REC-SVG-20010904/DTD/svg10.dtd">
<svg version="1.0" xmlns="http://www.w3.org/2000/svg"
 width="7000.000000pt" height="2625.000000pt" viewBox="0 0 7000.000000 2625.000000"
 preserveAspectRatio="xMidYMid meet">

<g transform="translate(0.000000,2625.000000) scale(0.100000,-0.100000)"
fill="#d1d1d1" stroke="none">
<path d="M13020 21444 c0 -5 17 -18 38 -28 34 -18 69 -20 487 -24 248 -2 455
-8 460 -12 10 -7 723 -25 1015 -25 122 0 151 3 183 19 33 16 53 18 178 12 77
-3 144 -8 149 -11 15 -9 212 -7 221 2 7 7 -44 13 -138 17 -81 4 -233 11 -338
17 -104 5 -278 14 -385 20 -260 13 -1870 24 -1870 13z"/>
<path d="M11730 21409 c-543 -29 -609 -34 -615 -52 -111 -370 -279 -984 -320
-1172 -3 -11 -12 -49 -21 -84 -9 -36 -18 -73 -20 -83 -2 -10 -6 -27 -9 -38 -3
-11 -7 -28 -9 -38 -2 -9 -9 -35 -14 -57 -6 -22 -13 -51 -16 -65 -3 -14 -7 -34
-10 -45 -3 -11 -12 -54 -21 -95 -9 -41 -18 -82 -20 -90 -25 -99 -46 -197 -120
-565 -48 -236 -89 -443 -92 -460 -2 -16 -11 -61 -19 -100 -18 -87 -61 -325
-69 -385 -3 -25 -15 -97 -26 -160 -11 -63 -22 -137 -25 -165 -3 -27 -8 -53
-10 -57 -2 -3 -7 -33 -10 -65 -3 -32 -7 -64 -10 -71 -2 -8 -7 -37 -10 -65 -2
-29 -7 -63 -10 -76 -3 -13 -7 -46 -10 -75 -2 -28 -7 -60 -9 -72 -2 -11 -7 -45
-10 -75 -3 -30 -8 -63 -10 -74 -2 -11 -7 -51 -10 -90 -3 -38 -10 -92 -15 -120
-10 -54 -32 -276 -52 -530 -14 -178 -18 -884 -5 -1010 25 -252 67 -520 102
-645 9 -30 18 -64 20 -76 17 -80 140 -427 174 -492 5 -9 32 -64 60 -122 166
-349 502 -787 677 -885 35 -20 65 -34 68 -33 2 2 12 -4 22 -13 11 -9 51 -33
89 -52 39 -19 106 -56 150 -82 126 -75 302 -160 395 -190 47 -15 118 -43 159
-62 40 -19 78 -32 83 -31 6 2 -6 25 -25 50 l-36 47 52 -4 c29 -2 106 -25 172
-50 66 -25 145 -55 175 -66 49 -18 69 -32 70 -51 0 -4 -20 -19 -45 -34 -25
-14 -45 -29 -45 -34 0 -41 295 -116 573 -146 78 -8 270 -18 427 -21 420 -9
659 15 890 89 113 36 157 57 189 92 51 54 -10 87 -175 94 -103 4 -121 2 -222
-27 -189 -54 -286 -65 -592 -65 -302 -1 -384 8 -588 65 -127 36 -157 51 -177
89 -42 82 9 90 490 77 160 -4 324 -10 365 -13 78 -5 578 13 618 23 29 7 28 24
-5 55 -60 55 -197 78 -484 78 -330 0 -772 30 -1257 85 -117 14 -216 24 -220
23 -18 -4 -102 15 -102 23 0 5 -8 9 -17 9 -15 0 -15 2 2 13 28 19 116 55 151
62 84 17 144 25 189 26 28 0 66 6 85 13 l35 13 -85 26 c-47 14 -114 33 -150
42 -295 75 -857 275 -974 347 -28 17 -114 66 -193 109 -151 82 -201 116 -353
239 -114 93 -170 152 -232 245 -58 88 -131 233 -153 305 -9 30 -21 64 -25 75
-5 11 -19 54 -31 95 -12 41 -25 80 -29 85 -6 9 -19 57 -35 133 -3 12 -7 31 -9
41 -3 11 -8 40 -12 66 -3 26 -12 49 -19 51 -7 3 -16 31 -20 62 -4 31 -9 65
-11 77 -23 114 -45 621 -45 1060 0 346 14 639 42 876 20 171 96 646 124 778 8
41 20 113 25 160 5 47 12 97 15 111 2 13 11 63 20 110 8 47 17 96 20 110 2 13
12 65 20 115 16 95 70 377 111 585 14 69 29 134 35 145 8 18 53 224 65 305 3
19 10 55 16 80 5 25 12 54 14 65 2 11 6 31 9 45 3 14 10 48 16 75 16 76 17 80
49 230 17 77 32 149 34 160 2 11 14 63 26 115 12 52 21 104 22 115 0 33 27
155 95 435 36 146 66 270 67 275 1 6 12 40 25 78 l23 67 51 0 c29 1 84 7 122
14 39 8 74 12 78 9 4 -3 57 -5 118 -5 60 0 109 -5 109 -10 0 -11 86 0 112 13
10 5 66 16 125 24 77 11 119 23 150 41 24 14 43 26 43 28 0 5 -164 3 -300 -5z"/>
<path d="M15855 21370 c3 -5 14 -10 25 -10 11 0 22 -11 28 -29 6 -16 20 -34
31 -41 12 -6 21 -19 21 -30 0 -10 20 -99 44 -197 46 -184 74 -300 82 -343 3
-14 16 -71 29 -126 13 -56 27 -123 30 -149 3 -27 16 -96 30 -154 33 -144 169
-781 195 -911 11 -58 25 -113 30 -122 6 -10 10 -32 10 -50 0 -18 5 -53 11 -78
24 -105 120 -612 176 -930 81 -470 173 -1102 188 -1295 8 -114 16 -217 21
-265 6 -64 5 -563 -1 -619 -2 -25 -9 -102 -15 -171 -32 -371 -90 -620 -198
-851 -22 -46 -54 -118 -72 -159 -31 -72 -65 -137 -153 -300 -97 -180 -305
-477 -385 -551 -165 -153 -391 -286 -777 -459 -209 -93 -183 -83 -845 -329
l-55 -20 100 4 c55 2 169 9 253 14 153 11 296 3 370 -18 51 -15 123 -60 165
-103 20 -21 37 -41 38 -46 0 -4 2 -16 5 -27 7 -33 -5 -81 -31 -119 -13 -19
-27 -52 -31 -72 l-7 -36 29 15 c131 68 400 247 544 362 108 87 454 392 551
487 67 65 146 163 264 327 165 230 332 739 389 1188 29 227 39 458 33 798 -7
373 -25 638 -72 1015 -2 14 -6 50 -10 80 -9 82 -13 110 -20 160 -3 25 -8 65
-11 90 -3 25 -7 56 -9 70 -2 14 -9 61 -15 105 -15 102 -13 92 -54 345 -19 118
-37 237 -40 263 -35 288 -324 1655 -470 2222 -91 350 -236 877 -277 1001 -22
68 -30 74 -107 74 -26 0 -41 -4 -37 -10z"/>
<path d="M5535 21319 c15 -41 31 -42 565 -50 283 -5 553 -11 600 -15 207 -15
232 -15 263 -3 18 7 34 16 37 20 4 6 250 -14 292 -25 20 -5 56 19 46 30 -7 6
-297 28 -518 39 -47 2 -356 7 -688 11 -519 6 -602 5 -597 -7z"/>
<path d="M4630 21299 c-183 -12 -272 -19 -315 -27 l-40 -7 -37 -195 c-33 -170
-162 -922 -174 -1005 -2 -16 -6 -41 -9 -55 -3 -14 -7 -43 -10 -65 -5 -41 -13
-94 -19 -130 -2 -11 -7 -38 -10 -60 -3 -22 -8 -53 -11 -70 -2 -16 -13 -88 -24
-160 -19 -127 -25 -170 -36 -270 -4 -27 -22 -167 -41 -310 -20 -143 -37 -273
-39 -290 -2 -16 -18 -147 -35 -290 -17 -143 -33 -267 -35 -275 -13 -43 -99
-917 -116 -1172 -5 -84 -11 -178 -14 -208 -2 -30 -7 -102 -10 -160 -4 -58 -8
-121 -10 -140 -2 -19 -6 -102 -10 -185 -3 -82 -8 -172 -11 -200 -2 -27 -7
-223 -10 -435 -7 -414 3 -673 35 -940 6 -47 13 -106 16 -132 5 -43 12 -98 20
-137 1 -9 6 -41 10 -71 4 -30 13 -82 21 -115 7 -33 16 -75 19 -93 13 -76 37
-183 61 -267 14 -49 27 -97 29 -106 5 -23 60 -193 95 -292 45 -129 130 -320
198 -444 108 -198 142 -243 254 -339 56 -48 105 -91 108 -94 3 -3 45 -40 93
-82 119 -103 174 -139 203 -132 13 3 37 -1 55 -10 18 -9 35 -16 38 -16 3 0 7
26 8 58 7 183 85 304 216 336 15 3 27 10 27 14 0 10 -85 49 -210 98 -52 20
-149 64 -214 98 -111 56 -131 72 -274 206 -245 230 -424 489 -505 732 -43 129
-120 501 -137 668 -12 112 -19 159 -30 195 -12 41 -28 246 -34 435 -3 85 -11
298 -17 472 -12 316 -1 909 21 1158 18 201 88 881 105 1015 9 75 25 233 26
260 4 80 135 1169 145 1195 3 8 18 116 35 240 16 124 31 243 35 265 3 22 7 54
9 70 16 114 67 493 75 550 5 39 14 111 20 160 11 97 14 115 35 245 8 47 16
101 19 120 22 142 47 265 55 273 10 10 64 11 262 6 84 -2 100 0 126 19 16 11
59 26 96 33 49 9 73 19 92 39 l26 28 -68 -1 c-37 0 -120 -4 -183 -8z"/>
<path d="M7411 21264 c6 -8 15 -11 20 -8 5 3 9 0 9 -6 0 -6 7 -27 17 -48 9
-20 15 -40 15 -44 -1 -4 14 -103 33 -219 20 -116 45 -273 56 -348 11 -75 24
-152 28 -171 5 -19 12 -57 15 -85 3 -27 33 -248 66 -490 32 -242 64 -478 70
-525 15 -130 58 -471 75 -600 8 -63 26 -209 40 -325 14 -115 32 -264 40 -330
39 -313 126 -1284 146 -1629 14 -250 6 -895 -15 -1207 -9 -124 -27 -293 -41
-375 -39 -227 -179 -702 -282 -954 -65 -158 -180 -385 -229 -450 -27 -36 -57
-78 -68 -94 -68 -106 -336 -328 -580 -481 l-176 -110 83 -6 c105 -7 162 -33
213 -93 57 -68 75 -164 43 -227 -16 -31 -27 -99 -17 -105 13 -8 257 241 354
362 44 55 111 145 149 199 37 55 94 134 125 175 82 108 122 174 197 323 122
244 166 372 228 660 40 188 94 542 110 722 21 237 27 922 12 1255 -12 245 -18
351 -22 410 -3 30 -7 96 -10 145 -4 50 -8 113 -10 140 -3 28 -9 122 -15 210
-16 246 -92 1021 -104 1057 -3 7 -8 49 -11 93 -9 136 -137 1141 -150 1185 -3
8 -21 125 -40 260 -20 135 -60 399 -90 588 -30 188 -57 364 -61 390 -5 39 -34
206 -59 337 -3 17 -8 46 -11 65 -3 19 -16 89 -29 155 -13 66 -26 136 -29 156
-8 46 -21 57 -69 57 -31 0 -36 -2 -26 -14z"/>
<path d="M55568 20285 c-2 -1 -176 -5 -388 -9 -483 -8 -1343 -44 -1470 -61
-19 -2 -69 -7 -110 -10 -41 -2 -113 -8 -160 -11 -47 -4 -103 -8 -125 -9 -22
-2 -94 -8 -160 -14 -66 -6 -138 -12 -160 -14 -66 -5 -68 -9 -62 -101 6 -94 40
-212 152 -526 156 -436 326 -934 340 -995 3 -11 23 -81 45 -155 87 -286 173
-651 219 -925 22 -130 27 -172 46 -340 3 -33 9 -78 11 -100 30 -247 13 -806
-30 -1025 -7 -38 -16 -88 -20 -115 -49 -342 -183 -842 -376 -1404 -306 -889
-422 -1327 -479 -1795 -20 -173 -27 -505 -11 -646 70 -658 333 -1253 730
-1650 186 -185 451 -367 618 -424 66 -23 72 -23 81 -8 9 16 15 15 73 -7 93
-35 328 -115 443 -150 314 -97 795 -148 1300 -138 337 7 424 16 657 68 255 57
348 89 348 118 0 14 -70 38 -132 45 -49 6 -66 3 -133 -23 -87 -35 -115 -40
-95 -16 11 13 7 15 -22 15 -19 0 -102 -9 -184 -19 -211 -28 -276 -32 -543 -32
-288 0 -479 19 -671 66 -30 7 -67 16 -82 19 -15 3 -41 21 -57 38 -26 28 -28
35 -17 47 25 25 164 30 496 19 314 -10 1046 -5 1103 8 35 8 34 20 -5 44 -73
44 -138 50 -643 61 -430 9 -954 36 -1392 71 -148 11 -168 20 -120 50 12 8 56
23 97 34 68 17 114 19 480 18 223 -1 578 -4 790 -7 353 -5 601 3 890 27 356
30 646 28 797 -4 97 -21 149 -76 144 -154 -2 -47 -30 -85 -98 -137 -51 -38
-71 -79 -39 -79 18 0 117 35 281 98 240 92 505 312 719 596 348 463 565 1226
526 1855 -16 260 -71 598 -134 826 -64 231 -149 505 -290 935 -91 278 -186
570 -211 650 -98 304 -188 670 -231 930 -9 58 -18 114 -21 125 -4 19 -8 48
-17 125 -3 19 -8 71 -11 115 -4 44 -11 109 -15 145 -14 109 -4 639 14 790 49
404 129 782 262 1245 54 187 262 822 290 880 37 82 219 617 244 720 25 99 25
147 3 173 -16 19 -42 23 -278 41 -143 11 -309 23 -370 26 -60 4 -135 8 -165
10 -30 2 -107 7 -170 10 -63 4 -137 9 -165 10 -27 2 -113 6 -190 9 -77 4 -167
8 -200 11 -151 13 -783 27 -1337 29 -334 2 -608 2 -610 1z m1422 -70 c30 -2
172 -6 315 -9 143 -3 334 -11 425 -16 249 -15 715 -59 805 -75 44 -8 130 -24
190 -35 176 -32 208 -44 173 -67 -7 -4 -166 -8 -353 -8 -273 0 -347 -3 -377
-15 -21 -7 -38 -18 -38 -22 0 -21 56 -67 93 -77 89 -23 174 -32 237 -26 57 6
131 -1 219 -21 l23 -5 -6 -173 c-5 -142 -11 -192 -32 -273 -15 -54 -27 -111
-28 -128 -2 -16 -17 -70 -35 -120 -18 -49 -40 -111 -49 -137 -9 -27 -21 -48
-27 -48 -5 0 -19 -24 -29 -52 -10 -29 -40 -111 -66 -183 -58 -159 -171 -503
-186 -570 -2 -11 -6 -36 -8 -56 -4 -33 -44 -213 -81 -359 -7 -30 -23 -111 -35
-180 -12 -69 -26 -145 -32 -170 -5 -25 -13 -76 -18 -115 -25 -219 -43 -344
-53 -379 -7 -25 -11 -159 -11 -395 -1 -362 8 -485 50 -711 44 -239 152 -657
254 -980 34 -107 73 -233 86 -280 14 -47 49 -157 79 -245 220 -646 339 -1075
391 -1415 26 -165 26 -489 0 -625 -29 -155 -62 -257 -126 -383 -78 -152 -160
-260 -308 -404 -230 -223 -515 -414 -811 -542 -458 -199 -1028 -324 -1566
-342 -251 -9 -734 25 -953 66 -323 61 -780 194 -900 262 -106 60 -457 301
-526 361 -341 295 -509 542 -578 852 -36 159 -28 479 18 740 39 220 89 440
123 535 10 30 33 109 51 175 35 133 140 495 160 555 4 14 21 68 35 120 15 52
41 137 56 188 16 51 29 101 29 112 0 17 55 214 115 414 8 26 15 57 15 67 0 11
4 19 9 19 17 0 145 550 161 695 5 44 16 125 24 180 22 146 25 175 35 330 9
139 -1 594 -14 626 -3 10 -2 20 4 23 5 4 8 23 6 44 -2 20 -6 71 -10 112 -26
312 -138 961 -180 1039 -7 14 -18 58 -24 98 -6 39 -35 156 -66 260 -65 224
-251 791 -265 808 -16 19 -58 149 -86 260 -58 238 -26 278 281 341 99 20 190
40 203 45 25 10 30 46 8 55 -8 3 -142 6 -298 7 -242 2 -288 4 -320 19 -45 20
-50 48 -13 72 54 35 357 88 575 101 58 3 121 8 140 10 81 10 530 33 890 46
173 6 317 13 320 16 5 6 1816 -5 1910 -12z m1673 -9129 c-61 -74 -231 -205
-330 -255 -85 -43 -50 -9 150 143 170 130 192 146 200 146 5 0 -4 -15 -20 -34z
m-3933 -1162 c41 -12 94 -27 116 -33 57 -15 64 -37 16 -51 -59 -16 -116 -12
-170 13 -61 28 -120 86 -100 98 15 9 32 6 138 -27z"/>
<path d="M62900 20007 c-3 -3 -86 -6 -185 -7 -224 -1 -888 -18 -1176 -29 -172
-7 -224 -13 -253 -26 -37 -18 -72 -66 -58 -80 4 -3 10 -302 13 -663 4 -361 12
-835 17 -1052 6 -217 14 -595 17 -840 10 -790 5 -5618 -6 -6089 -12 -489 -15
-1277 -5 -1411 3 -47 8 -130 11 -185 3 -55 8 -120 10 -145 2 -25 7 -76 10
-115 22 -248 81 -815 97 -915 6 -41 12 -105 13 -142 2 -61 5 -70 39 -109 20
-23 36 -45 36 -49 0 -3 -16 -14 -36 -23 -24 -12 -34 -22 -30 -32 5 -13 6 -255
2 -381 0 -23 -8 -50 -17 -60 -25 -30 -43 -108 -30 -132 6 -11 11 -32 11 -45 0
-14 7 -27 18 -31 9 -3 42 -24 72 -45 30 -22 58 -37 62 -35 5 3 8 -2 8 -10 0
-12 -15 -15 -76 -15 -42 0 -78 -2 -80 -4 -2 -2 0 -60 6 -129 5 -69 7 -192 5
-274 -9 -325 -17 -469 -27 -475 -6 -4 -7 -24 -3 -50 12 -70 21 -86 54 -92 17
-4 39 -15 50 -26 36 -36 68 -52 196 -95 110 -38 130 -48 146 -75 l19 -31 -23
0 c-23 0 -56 9 -264 73 -62 19 -113 30 -113 25 0 -5 5 -19 11 -31 16 -31 -41
22 -91 85 -36 45 -38 46 -54 27 -23 -27 -20 -87 7 -126 47 -71 222 -165 432
-233 125 -40 363 -100 390 -98 17 1 71 -8 210 -36 162 -32 505 -76 755 -96 69
-6 187 -17 263 -26 205 -23 1187 -26 1187 -3 0 5 26 9 58 9 53 0 357 24 447
35 22 3 63 7 90 10 119 14 347 46 425 60 47 9 126 20 175 25 157 16 460 97
653 174 172 69 279 143 309 215 14 34 11 81 -6 81 -5 0 -25 16 -45 36 -20 20
-36 32 -36 28 0 -5 -4 -3 -8 4 -6 9 -20 -5 -45 -46 -62 -101 -172 -190 -277
-227 l-45 -15 25 20 c14 10 40 27 58 37 36 20 43 38 11 28 -12 -4 -41 -4 -66
0 -57 8 -49 18 60 75 46 23 91 48 100 55 47 34 49 246 7 565 -7 47 -13 101
-15 120 -2 19 -11 100 -20 180 -10 80 -20 195 -22 256 l-5 111 44 22 43 23
-90 -5 c-49 -3 -151 -19 -225 -37 -140 -32 -237 -44 -258 -31 -20 12 52 41
166 66 85 20 109 30 144 59 22 20 80 56 127 80 47 25 95 52 106 61 11 9 14 14
8 10 -10 -5 -12 29 -9 157 3 90 7 175 11 189 l7 26 -74 -18 c-98 -25 -161 -33
-194 -25 -25 7 -25 8 -9 26 9 10 72 47 140 81 68 34 135 72 148 84 27 26 45
117 73 374 20 187 22 184 -106 161 -137 -23 -297 -65 -327 -86 -13 -8 -23 -24
-23 -36 0 -12 -6 -29 -14 -37 -15 -18 -68 -210 -61 -222 3 -4 0 -9 -6 -11 -6
-2 -12 -23 -15 -47 -2 -24 -8 -49 -13 -55 -6 -6 -12 -24 -15 -39 -9 -49 -29
-96 -39 -90 -6 3 -7 1 -3 -5 4 -6 -3 -31 -14 -54 -12 -26 -16 -44 -10 -46 6
-2 17 -10 25 -18 12 -13 12 -17 -3 -32 -24 -24 -120 -92 -130 -92 -26 0 -94
-67 -116 -113 -56 -118 -236 -243 -459 -317 -38 -12 -67 -24 -65 -25 2 -2 50
1 106 7 105 12 126 8 101 -17 -27 -27 -132 -45 -289 -51 -85 -3 -231 -17 -325
-30 -93 -13 -246 -28 -340 -34 -218 -13 -876 -13 -1115 0 -208 11 -470 29
-515 35 -16 2 -66 6 -110 10 -44 3 -107 15 -140 25 -33 10 -96 21 -140 24
-139 11 -332 56 -321 75 3 4 31 4 63 0 133 -19 259 -27 269 -16 3 3 -37 25
-88 49 -103 49 -142 80 -151 120 -5 18 -20 33 -52 48 -46 22 -97 77 -110 119
-4 13 -24 42 -45 65 -21 23 -41 56 -45 73 -7 37 -19 44 -153 93 -153 55 -158
71 -21 66 131 -5 130 -5 113 57 -13 47 -63 310 -79 414 -4 24 -11 45 -16 49
-5 3 -7 9 -5 13 3 4 1 36 -5 72 -5 35 -12 80 -14 99 -3 19 -8 55 -11 80 -13
88 -13 93 -33 281 -15 134 -19 190 -26 299 -3 52 -8 113 -11 135 -6 42 -8 120
-18 740 -8 474 -14 809 -22 1055 -3 102 -7 489 -9 860 -5 823 -10 1071 -21
1079 -5 3 -9 53 -9 111 0 104 -12 685 -20 932 -2 76 0 130 6 134 5 3 7 20 5
37 -3 18 -8 190 -11 382 -8 538 -16 759 -26 771 -5 6 -8 53 -8 105 0 108 -20
925 -25 1012 -2 31 0 57 5 57 6 0 7 239 3 588 -6 514 -8 589 -22 599 -14 12
-14 68 -3 569 13 571 13 580 28 611 5 10 10 72 12 138 1 66 7 134 12 151 5 17
8 46 7 65 -3 31 1 36 41 57 34 18 72 25 160 33 136 11 181 22 205 48 18 19 17
20 -5 25 -13 3 -64 8 -114 11 -72 5 -92 10 -103 26 -7 10 -20 19 -28 19 -27 0
-14 18 19 24 42 7 184 24 272 31 39 3 111 10 160 15 186 20 853 30 1889 30
1152 0 1602 -5 1736 -20 47 -5 150 -14 230 -20 80 -6 180 -18 224 -26 43 -8
80 -14 83 -14 2 0 2 -4 -2 -9 -3 -5 -36 -13 -73 -16 -37 -4 -83 -14 -102 -21
-19 -8 -71 -17 -115 -21 -78 -8 -80 -9 -83 -35 -2 -16 -2 -28 0 -28 2 0 73 -7
158 -14 153 -14 308 -40 322 -54 4 -4 10 -95 14 -202 3 -107 9 -197 14 -200 8
-5 19 -429 22 -886 2 -226 0 -275 -12 -290 -13 -15 -14 -100 -11 -598 2 -359
7 -583 13 -587 12 -8 6 -1158 -6 -1177 -9 -15 -9 -420 0 -1556 5 -587 3 -800
-5 -805 -8 -5 -13 -295 -16 -1058 -3 -578 -9 -1122 -15 -1210 -5 -87 -12 -219
-15 -293 -7 -155 -34 -525 -50 -660 -11 -105 -18 -157 -21 -175 -3 -11 -7 -63
-10 -115 -6 -96 -67 -489 -104 -665 -5 -27 -14 -79 -20 -115 -5 -36 -16 -90
-24 -120 -8 -30 -17 -77 -21 -104 l-8 -49 104 7 c186 12 293 42 326 92 19 29
11 54 -17 54 -26 0 -26 17 0 38 18 15 19 21 10 49 -10 26 -8 39 8 76 21 46 23
83 37 627 14 559 33 2163 40 3545 3 512 8 1083 11 1270 4 187 10 1440 14 2785
5 1345 11 2463 15 2486 6 34 3 45 -19 71 -57 68 -71 69 -896 94 -395 11 -2831
25 -2840 16z m-1225 -12607 c151 -28 709 -91 1005 -115 107 -9 274 -22 370
-30 96 -8 274 -19 395 -25 121 -5 245 -12 275 -15 53 -6 575 9 710 20 36 3
155 12 265 20 221 16 506 45 750 75 88 11 200 25 248 31 58 7 92 8 99 1 5 -5
6 -25 3 -44 -6 -33 -11 -37 -67 -54 -45 -13 -62 -24 -69 -42 -16 -41 -8 -227
17 -414 5 -36 1 -65 -17 -120 -32 -97 -81 -147 -109 -112 -7 8 -16 14 -21 14
-5 0 -18 9 -29 20 -14 14 -34 20 -67 21 -27 1 -64 2 -83 4 -19 1 -118 6 -220
10 -164 7 -187 10 -215 29 -16 11 -33 25 -37 30 -3 6 -108 6 -255 2 -136 -3
-394 -9 -573 -12 -179 -4 -327 -8 -330 -11 -2 -2 -4 -16 -5 -30 0 -22 -7 -29
-53 -44 -63 -21 -44 -21 -422 -20 -162 1 -376 -4 -475 -10 -160 -9 -188 -8
-254 7 -70 17 -84 17 -254 1 -246 -23 -252 -20 -275 160 -13 96 -8 292 8 341
13 38 12 45 -4 72 -10 17 -15 39 -11 50 4 14 -1 23 -22 33 -37 18 -161 61
-243 83 -64 17 -140 58 -140 75 0 11 40 11 105 -1z m2230 -750 c-11 -5 -38 -8
-60 -8 l-40 1 35 7 c19 4 46 8 60 8 23 1 23 0 5 -8z m222 -4 c4 -3 -10 -6 -30
-6 -20 0 -37 -4 -37 -10 0 -5 -7 -10 -16 -10 -8 0 -12 5 -9 10 3 6 -3 10 -15
10 -12 0 -19 -3 -17 -7 4 -6 -70 -8 -103 -3 -3 0 6 7 20 15 18 10 50 13 113
11 49 -2 91 -7 94 -10z m-102 -146 c431 -11 793 -28 1245 -60 282 -20 416 -40
435 -64 6 -7 19 -18 30 -24 17 -10 12 -11 -32 -12 -28 0 -55 -5 -59 -11 -5 -9
-72 -10 -253 -5 -135 4 -273 9 -306 11 -33 2 -181 9 -330 15 -148 5 -315 12
-370 15 -239 12 -744 26 -785 21 -25 -3 -281 -8 -570 -12 -289 -3 -596 -7
-682 -8 -87 -1 -158 1 -158 5 0 10 172 69 231 79 30 4 74 13 99 19 25 5 153
15 285 21 454 20 709 23 1220 10z m500 -236 c116 -5 271 -26 282 -38 14 -14
-184 -17 -382 -7 -330 18 -464 46 -255 54 89 3 139 2 355 -9z m-1025 -150 c80
-4 582 -9 1115 -13 534 -4 978 -11 988 -15 70 -32 -99 -80 -478 -136 -115 -17
-273 -41 -350 -55 -281 -48 -309 -50 -780 -50 -280 0 -510 5 -610 13 -571 47
-865 103 -865 167 0 24 51 63 98 75 96 26 461 31 882 14z m-1393 -19 c110 -29
163 -50 163 -64 0 -13 -22 -14 -75 -1 -22 5 -85 13 -140 19 -121 12 -171 27
-155 46 25 30 95 30 207 0z"/>
<path d="M21740 19650 c-132 -5 -141 -6 -105 -17 68 -20 135 -23 570 -28 231
-2 512 -7 625 -9 579 -15 807 -16 880 -5 92 15 225 17 431 5 109 -6 162 -5
175 3 15 8 3 10 -56 11 -41 0 -183 5 -315 11 -756 34 -1740 47 -2205 29z"/>
<path d="M20185 19620 c-77 -4 -213 -11 -302 -15 -89 -5 -166 -11 -171 -14 -4
-3 -36 -84 -71 -179 -272 -751 -509 -1597 -726 -2597 -29 -134 -97 -526 -120
-690 -9 -66 -18 -131 -20 -145 -2 -14 -6 -56 -10 -95 -3 -38 -10 -95 -15 -125
-49 -294 -51 -908 -4 -1140 71 -344 105 -452 224 -695 194 -397 537 -786 807
-916 56 -27 106 -49 111 -49 6 0 64 -25 129 -56 235 -111 458 -194 493 -182 6
2 -5 21 -27 45 -46 50 -73 94 -73 120 0 11 -7 28 -15 39 -18 24 -19 88 -1 103
20 17 27 3 36 -76 7 -57 13 -71 47 -105 60 -63 114 -85 433 -178 96 -28 181
-54 189 -59 26 -14 22 -28 -14 -51 -19 -12 -35 -26 -35 -31 0 -38 321 -97 642
-119 294 -20 805 -12 1001 16 126 18 320 65 372 92 63 32 69 54 23 79 -52 28
-294 26 -408 -4 -123 -32 -227 -43 -475 -50 -241 -6 -422 5 -595 38 -166 32
-235 55 -255 86 -17 26 -17 27 3 43 35 29 106 31 515 19 397 -11 900 -5 945
12 33 13 24 30 -28 56 -65 32 -150 41 -465 47 -468 10 -727 25 -1325 75 -124
11 -249 17 -277 14 -53 -6 -66 4 -45 32 35 51 134 81 306 94 70 6 130 12 133
14 5 6 -128 38 -337 81 -91 19 -184 41 -206 49 -23 9 -97 27 -165 42 -171 37
-293 79 -509 175 -218 96 -271 124 -446 241 -175 117 -264 212 -333 353 -79
162 -141 328 -171 456 -7 30 -21 62 -30 70 -25 24 -51 179 -66 405 -3 50 -8
106 -10 125 -2 19 -7 153 -10 298 -7 262 -6 281 31 669 15 145 47 337 114 668
21 105 39 199 39 210 2 52 254 1125 272 1157 7 13 41 132 55 198 13 59 211
782 224 820 18 51 45 146 46 160 1 8 5 31 10 50 11 44 11 42 17 60 4 8 18 50
33 92 15 42 32 79 39 81 6 2 31 5 56 6 25 1 72 6 105 10 35 5 82 5 113 -1 135
-24 591 30 618 74 6 9 -211 8 -421 -2z m-228 -6411 c38 -17 100 -44 138 -62
106 -47 175 -93 175 -117 0 -11 -2 -20 -5 -20 -10 0 -222 72 -255 87 -44 20
-116 68 -152 101 -55 51 -1 57 99 11z"/>
<path d="M24435 19590 c4 -6 11 -8 16 -5 5 4 14 -5 20 -19 7 -14 20 -28 30
-31 10 -4 24 -26 32 -53 34 -107 59 -199 63 -226 2 -16 12 -57 23 -90 11 -34
49 -167 85 -296 36 -129 88 -318 116 -420 76 -271 73 -261 245 -960 100 -407
246 -1158 291 -1505 21 -162 29 -515 15 -665 -21 -214 -59 -453 -87 -540 -102
-325 -316 -659 -662 -1033 -54 -59 -231 -171 -407 -257 -307 -151 -495 -219
-980 -351 -181 -50 -332 -93 -335 -96 -3 -3 72 -1 165 3 286 15 460 11 538
-10 96 -26 183 -85 206 -139 18 -41 18 -43 -2 -79 -11 -21 -24 -38 -27 -38 -8
0 -32 -51 -27 -56 1 -2 81 36 177 85 255 127 400 215 599 360 59 42 160 115
226 162 200 140 402 356 497 530 136 252 228 540 273 860 34 235 27 716 -15
1024 -5 39 -12 97 -15 130 -3 33 -8 71 -10 85 -2 14 -16 102 -30 195 -66 444
-166 938 -285 1415 -77 310 -108 420 -211 770 -39 135 -80 274 -90 310 -63
228 -305 920 -327 938 -19 15 -116 17 -107 2z m198 -6027 c-12 -32 -125 -142
-199 -193 -125 -86 -274 -145 -274 -108 0 24 112 115 230 188 218 134 258 152
243 113z"/>
<path d="M45917 19276 c-80 -22 -112 -70 -83 -127 13 -25 12 -48 -4 -191 -83
-739 -89 -1890 -14 -2933 31 -441 88 -992 125 -1210 45 -267 229 -1140 324
-1540 13 -55 38 -158 55 -230 17 -71 36 -148 41 -170 5 -22 16 -69 24 -105 9
-36 18 -76 21 -90 3 -14 12 -52 21 -85 8 -33 17 -70 19 -82 2 -12 23 -98 45
-190 23 -92 61 -253 85 -358 25 -104 46 -197 48 -205 3 -8 10 -37 16 -65 6
-27 14 -59 16 -70 3 -11 7 -31 10 -45 3 -14 11 -47 19 -75 8 -27 16 -61 19
-75 13 -71 28 -139 61 -280 65 -278 203 -912 229 -1050 38 -201 52 -301 81
-554 14 -126 30 -252 36 -279 14 -74 11 -277 -6 -402 -9 -60 -22 -198 -30
-305 -36 -460 -97 -698 -255 -982 -39 -70 -74 -147 -78 -170 -8 -43 -8 -43
-48 -41 l-40 3 -111 -228 c-62 -125 -113 -233 -115 -241 -2 -9 33 -28 100 -56
114 -48 176 -84 192 -115 9 -17 7 -22 -14 -29 -29 -12 -66 -3 -66 14 0 15 -74
62 -140 89 -69 28 -90 36 -96 36 -9 0 -63 -129 -94 -225 -62 -194 -78 -439
-36 -530 11 -22 18 -43 18 -48 -1 -4 3 -7 8 -7 6 0 10 -16 10 -36 0 -19 7 -42
15 -51 8 -8 12 -19 9 -25 -4 -7 -2 -8 4 -4 7 4 12 1 12 -9 0 -9 4 -14 8 -11 5
3 19 -4 30 -15 12 -10 25 -19 29 -19 5 0 15 -6 23 -13 8 -7 18 -12 22 -12 4 0
13 -7 20 -16 32 -39 448 -155 658 -184 19 -2 85 -11 145 -19 61 -9 151 -21
200 -27 88 -12 258 -20 383 -18 35 0 62 -3 59 -8 -3 -4 52 -8 121 -9 70 0 274
-2 453 -3 180 -2 341 0 358 4 21 4 31 3 31 -5 0 -8 19 -10 63 -6 34 3 125 8
202 11 77 4 149 8 160 10 11 2 54 7 95 10 219 16 692 88 698 106 2 5 8 7 13 3
5 -3 9 -1 9 3 0 5 11 10 25 11 46 3 55 5 55 12 0 4 13 6 30 5 16 -1 27 1 25 5
-2 4 33 17 78 30 45 13 93 30 107 37 14 7 30 13 37 13 7 0 27 8 45 18 18 10
39 17 47 14 8 -3 11 0 7 6 -3 6 7 16 24 24 16 7 30 17 30 22 0 4 7 3 15 -4 8
-7 16 -9 16 -4 1 5 2 16 3 24 0 8 7 14 14 12 8 -1 11 2 8 7 -4 5 -2 12 3 16
18 11 30 74 20 107 -6 23 -5 35 4 41 8 6 7 7 -4 4 -10 -3 -26 4 -39 18 -20 21
-23 36 -26 146 -5 132 -30 278 -71 401 l-26 78 -61 1 c-33 0 -94 1 -133 2 -40
1 -73 -1 -73 -5 0 -5 -4 -8 -10 -8 -25 0 -6 37 27 53 63 31 144 89 160 113 14
22 11 31 -52 161 -37 76 -87 179 -112 230 l-44 92 -46 -14 c-26 -8 -48 -13
-49 -12 -1 1 -12 36 -24 77 -12 41 -44 129 -70 195 -199 503 -278 1008 -250
1598 29 606 90 914 619 3148 88 371 198 841 245 1045 47 203 97 407 112 454
43 138 61 222 98 460 99 624 172 1299 211 1950 53 885 44 1972 -22 2595 -18
168 -20 256 -8 316 9 49 -23 88 -85 100 -25 4 -1165 8 -2535 8 -1989 0 -2500
-3 -2538 -13z m4333 -37 c206 -6 400 -14 430 -17 51 -6 55 -9 58 -34 2 -16 2
-28 0 -29 -2 0 -75 -6 -163 -12 -149 -11 -160 -13 -160 -32 0 -17 9 -21 60
-28 84 -11 268 -47 274 -53 3 -2 4 -21 3 -42 -1 -30 1 -33 9 -17 7 15 8 10 4
-21 -3 -23 3 -91 11 -150 9 -60 16 -133 16 -161 -1 -29 2 -53 6 -53 4 0 8 -37
9 -83 1 -45 7 -143 13 -217 10 -120 13 -152 18 -197 1 -8 19 -13 47 -13 l46 0
0 -37 c0 -21 4 -119 9 -218 4 -99 11 -345 16 -547 l7 -366 -47 -7 -47 -7 0
-197 c-1 -293 -3 -379 -10 -376 -3 2 -5 -71 -5 -163 0 -92 -4 -229 -8 -304
l-8 -138 36 0 c27 0 36 -4 37 -17 3 -37 -2 -132 -13 -248 -6 -66 -12 -142 -13
-170 -2 -27 -4 -50 -5 -50 -4 0 -7 -30 -14 -125 -4 -47 -14 -132 -22 -190 -9
-58 -17 -118 -19 -135 -2 -16 -8 -66 -14 -111 -15 -125 -18 -132 -54 -136 -37
-4 -44 -22 -46 -118 -1 -36 -8 -101 -16 -145 -8 -44 -14 -101 -15 -127 0 -27
-4 -48 -8 -48 -4 0 -8 -8 -9 -17 -6 -79 -16 -165 -24 -203 -5 -25 -14 -83 -19
-129 -6 -47 -14 -87 -19 -91 -6 -3 -10 -23 -9 -46 1 -88 -94 -522 -222 -1017
-88 -340 -286 -1049 -471 -1687 -154 -535 -225 -841 -264 -1145 -44 -350 -49
-437 -50 -850 0 -425 9 -577 51 -895 35 -258 45 -301 115 -476 43 -107 59
-158 52 -165 -7 -7 -43 -4 -115 10 -122 24 -363 55 -563 73 -194 18 -1119 18
-1136 1 -7 -7 -13 -22 -14 -34 -3 -44 25 -46 615 -52 693 -7 956 -26 1027 -72
24 -16 24 -17 7 -36 -21 -23 -93 -46 -177 -55 l-62 -7 25 22 c24 20 24 22 6
35 -55 43 -320 66 -842 73 -416 5 -550 1 -539 -17 3 -5 128 -6 278 -3 163 3
372 0 522 -7 138 -7 291 -14 340 -15 102 -2 173 -19 182 -42 11 -28 -40 -46
-180 -63 -133 -16 -721 -40 -1004 -40 l-251 0 1 -37 c3 -64 20 -66 547 -62
1082 8 1428 -1 1465 -37 7 -8 18 -14 23 -14 25 0 18 -30 -11 -53 -43 -32 -162
-99 -214 -120 -97 -38 -316 -90 -433 -102 -30 -3 -62 -8 -70 -10 -8 -3 -76
-12 -150 -22 -108 -13 -237 -17 -635 -19 -627 -2 -572 0 -592 -24 -15 -17 -30
-20 -91 -20 -69 0 -74 1 -69 20 3 10 0 23 -7 29 -18 14 -112 38 -238 61 -136
24 -393 107 -443 144 -16 11 -17 17 -7 29 10 12 7 21 -21 48 -69 70 -107 99
-176 134 -86 43 -92 60 -18 51 28 -3 67 -2 85 2 l34 7 -24 21 c-13 11 -52 28
-88 38 -77 21 -100 39 -100 79 0 27 2 29 27 22 15 -3 65 -21 112 -39 48 -19
96 -37 109 -40 26 -9 28 -19 6 -37 -25 -21 206 -67 573 -115 145 -19 196 -13
201 26 2 14 8 30 13 36 16 19 -38 34 -195 54 -163 20 -245 41 -272 67 -15 16
-15 18 5 34 26 21 164 47 296 55 108 6 157 17 180 41 23 23 18 50 -10 57 -41
10 -413 -38 -539 -70 -34 -8 -34 -15 9 146 53 196 102 503 132 818 20 224 23
860 5 1072 -54 616 -83 743 -462 2055 -78 270 -165 585 -195 700 -30 116 -88
343 -131 505 -123 474 -142 551 -154 620 -7 36 -23 115 -36 175 -29 137 -77
359 -103 485 -11 52 -38 199 -61 325 -23 127 -45 239 -50 250 -25 59 -126 769
-149 1050 -27 327 -61 988 -61 1182 0 70 -5 133 -11 147 -14 31 6 1157 21
1166 10 6 21 103 34 300 1 25 5 52 9 60 3 8 5 38 3 65 -2 28 2 56 8 64 9 12 8
13 -2 7 -11 -7 -12 -4 -3 12 6 11 10 45 8 75 -1 30 2 53 6 50 4 -3 5 19 2 49
-4 39 -3 48 5 33 7 -15 9 -3 5 45 -3 45 -2 59 5 45 7 -15 9 -3 9 45 0 76 3 96
17 110 12 12 183 35 332 45 89 6 102 9 102 25 0 23 -19 30 -89 30 -93 0 -325
21 -335 31 -20 19 18 37 97 48 172 22 224 24 647 30 650 9 3011 2 3440 -10z
m627 -2786 c-3 -10 -5 -4 -5 12 0 17 2 24 5 18 2 -7 2 -21 0 -30z m-1763
-9322 c8 -12 -23 -19 -146 -33 -117 -13 -782 -17 -813 -5 l-20 8 20 12 c13 7
133 13 350 17 540 10 604 10 609 1z m256 -501 c19 -35 3 -41 -83 -36 -88 5
-108 18 -55 34 86 27 124 28 138 2z m-245 -19 c17 -28 -141 -57 -252 -46 -113
10 -89 28 58 41 169 15 187 15 194 5z m-1275 -51 l0 -30 -83 0 c-46 0 -86 3
-89 6 -11 10 4 43 21 47 9 3 46 5 84 6 l67 1 0 -30z m8 -66 c22 -15 22 -17 7
-34 -12 -13 -40 -21 -103 -27 -96 -9 -102 -9 -152 0 -47 9 -304 -11 -360 -28
-25 -8 -83 -21 -130 -29 -47 -9 -157 -29 -245 -46 -150 -29 -160 -30 -172 -14
-19 27 -16 88 5 107 56 51 206 66 587 60 244 -4 296 -2 330 10 56 22 203 22
233 1z m35 -154 c7 0 26 -12 42 -26 28 -24 35 -25 90 -19 53 7 695 17 1140 19
180 1 303 -19 392 -61 97 -47 104 -76 27 -120 -32 -18 -35 -23 -17 -23 21 0
226 39 261 49 1 1 4 1 7 2 2 0 26 7 52 15 26 8 43 10 38 5 -14 -12 -112 -47
-186 -66 -121 -30 -117 -27 -106 -98 6 -34 11 -63 12 -65 4 -5 171 23 220 38
71 21 266 60 301 60 41 0 74 -21 93 -57 9 -18 7 -25 -19 -46 -16 -14 -55 -32
-87 -42 -32 -9 -94 -28 -138 -41 -44 -14 -116 -30 -160 -36 -44 -6 -100 -18
-125 -28 -205 -80 -679 -133 -1205 -133 -317 0 -759 23 -910 47 -242 39 -413
87 -460 130 -19 18 -33 35 -31 37 3 3 -30 5 -74 5 -69 0 -82 2 -104 23 -14 13
-23 27 -21 31 3 5 -3 11 -12 14 -11 5 -13 10 -6 17 7 7 37 5 94 -5 112 -21
363 -53 469 -61 47 -3 132 -10 190 -15 335 -30 1267 -37 1310 -10 18 11 3 118
-18 122 -8 2 -85 -1 -171 -5 -196 -10 -1134 -1 -1221 11 -379 56 -548 92 -558
121 -3 8 0 11 7 7 6 -4 11 -3 11 2 0 10 30 8 98 -7 116 -25 331 -51 337 -41 3
4 -20 17 -51 29 -30 11 -61 26 -68 33 -18 19 -27 48 -15 48 6 0 8 4 5 8 -7 12
110 69 159 78 37 7 137 54 160 75 5 5 27 9 50 10 22 0 63 6 90 13 49 11 51 11
73 -16 13 -16 29 -28 35 -28z m2727 -30 c16 -30 -7 -70 -55 -96 -51 -28 -236
-91 -294 -100 -39 -6 -43 -5 -40 12 3 12 33 33 84 59 44 22 106 57 138 78 53
36 117 65 144 66 7 1 17 -8 23 -19z m-4125 -95 c61 -23 134 -50 163 -61 54
-19 65 -36 33 -54 -30 -16 -78 -12 -176 14 -157 43 -185 61 -185 121 0 33 1
35 28 29 15 -4 77 -25 137 -49z m447 -145 c103 -27 162 -50 151 -61 -8 -8
-185 11 -272 29 -44 9 -50 27 -14 40 40 15 46 14 135 -8z m1906 -108 c16 -10
-9 -35 -51 -51 -52 -20 -247 -7 -255 17 -2 8 11 12 45 13 26 0 84 6 128 14
100 16 117 17 133 7z"/>
<path d="M47620 7300 l-35 -7 37 -2 c20 0 40 4 43 9 7 11 7 11 -45 0z"/>
<path d="M48945 6047 c-38 -4 -108 -12 -155 -17 -73 -8 -65 -8 55 -4 77 3 160
9 185 13 41 6 42 7 15 12 -16 2 -61 1 -100 -4z"/>
<path d="M47995 6030 c50 -8 202 -13 194 -6 -2 2 -58 6 -124 9 -79 3 -103 2
-70 -3z"/>
<path d="M29980 17044 c-52 -2 -250 -8 -440 -14 -190 -6 -475 -15 -635 -20
-159 -5 -369 -12 -466 -15 -209 -6 -262 -18 -309 -72 -30 -33 -32 -40 -28 -91
4 -48 10 -60 41 -89 l37 -33 -84 -222 c-369 -980 -652 -1905 -821 -2683 -20
-93 -39 -181 -41 -195 -2 -14 -7 -36 -9 -50 -10 -49 -13 -67 -39 -226 -52
-317 -67 -485 -73 -789 -6 -335 5 -462 62 -693 40 -164 67 -235 149 -407 155
-324 383 -611 664 -838 124 -100 146 -111 382 -202 80 -31 204 -82 275 -115
163 -73 272 -115 352 -135 34 -8 70 -18 78 -22 14 -5 16 0 10 28 -17 84 -17
106 -1 112 11 4 19 0 23 -11 14 -38 81 -115 128 -146 51 -34 135 -71 135 -60
0 4 -15 20 -32 36 l-33 30 60 -6 c69 -8 142 -25 275 -66 52 -15 111 -32 130
-36 33 -6 49 -19 50 -37 0 -4 -18 -15 -40 -24 -22 -10 -40 -21 -40 -26 0 -25
202 -72 430 -101 274 -34 840 -45 1125 -22 183 15 218 19 330 37 321 52 447
114 311 154 -87 25 -268 22 -406 -9 -156 -34 -276 -46 -525 -53 -249 -7 -474
8 -659 42 -192 36 -237 50 -265 82 l-23 27 21 17 c35 29 104 31 586 19 472
-11 889 -6 983 12 45 8 51 12 41 24 -43 52 -164 72 -467 79 -130 3 -336 7
-457 10 -213 5 -434 18 -865 50 -113 9 -272 17 -355 18 -142 2 -150 3 -150 22
0 39 130 77 329 95 60 5 111 12 113 14 5 5 -113 31 -237 51 -139 24 -508 104
-770 167 -91 22 -181 40 -200 40 -23 0 -52 12 -85 34 -61 40 -123 68 -287 129
-121 45 -319 144 -428 213 -124 79 -229 203 -302 358 -142 304 -200 649 -202
1199 -1 200 9 510 19 595 3 25 7 81 10 125 5 101 28 253 60 403 27 125 111
468 126 517 5 17 23 77 39 135 70 251 242 814 339 1110 34 102 61 189 61 193
0 17 104 305 173 481 39 99 95 229 126 290 73 145 97 163 266 193 66 12 144
25 173 28 28 4 62 15 75 25 20 17 21 20 6 35 -17 18 -142 35 -259 35 -141 0
-250 28 -250 64 0 19 40 32 155 50 97 15 196 22 655 47 264 14 2675 14 3130
-1 168 -5 388 -12 490 -15 492 -15 722 -31 798 -56 35 -12 39 -20 17 -39 -15
-12 -66 -17 -439 -39 -94 -6 -174 -15 -179 -20 -17 -17 2 -42 45 -60 30 -13
92 -23 203 -31 328 -25 318 -24 353 -48 42 -31 43 -32 92 -212 76 -281 181
-643 225 -775 43 -128 104 -335 205 -690 121 -422 290 -1145 349 -1485 55
-319 64 -633 26 -900 -8 -58 -19 -141 -25 -186 -13 -103 -79 -308 -128 -399
-200 -364 -308 -518 -542 -766 -79 -84 -147 -146 -193 -176 -97 -62 -348 -192
-479 -247 -154 -65 -462 -159 -818 -250 -74 -19 -191 -50 -260 -69 -69 -20
-152 -42 -185 -51 l-60 -16 130 5 c547 22 659 17 768 -34 66 -31 117 -88 117
-131 0 -30 -23 -71 -59 -103 -31 -27 -33 -47 -6 -47 17 0 233 85 345 136 151
68 325 161 484 259 86 52 158 95 160 95 6 0 138 81 201 123 194 131 447 375
532 512 234 375 346 815 329 1290 -6 190 -8 229 -20 360 -8 86 -32 271 -45
345 -6 30 -12 71 -15 90 -66 455 -280 1298 -515 2028 -123 380 -393 1142 -472
1331 -5 13 -8 25 -7 26 2 1 13 7 25 13 24 13 63 87 63 121 0 43 -37 87 -92
111 -41 18 -82 24 -202 31 -242 14 -586 28 -951 39 -326 10 -2319 21 -2515 14z"/>
<path d="M38789 17006 c-3 -3 -188 -6 -412 -6 -224 0 -407 -4 -407 -8 0 -4
-170 -8 -378 -9 -463 -2 -1447 -30 -1700 -49 -96 -7 -137 -31 -148 -89 -8 -44
12 -79 249 -445 451 -697 1051 -1556 2002 -2865 891 -1226 1061 -1468 1198
-1705 165 -287 294 -640 332 -913 3 -27 9 -59 12 -70 12 -44 14 -793 4 -1162
-20 -667 -64 -1341 -107 -1642 -8 -56 8 -56 64 -3 37 36 42 46 41 83 -1 23 -4
53 -8 66 -3 13 -1 65 5 115 6 50 14 122 18 159 3 38 12 87 20 110 8 23 17 94
20 157 4 63 8 135 11 160 2 25 7 95 10 155 3 61 12 239 20 397 35 671 40 1225
15 1448 -21 182 -77 442 -125 580 -14 41 -30 95 -34 120 -5 25 -12 54 -16 64
-8 18 -3 19 141 12 82 -3 226 -6 320 -7 118 0 177 -4 188 -12 24 -18 23 -62
-7 -237 -68 -396 -72 -454 -72 -1250 0 -425 6 -874 13 -1085 18 -462 16 -438
35 -525 21 -98 38 -325 28 -370 -13 -61 -2 -106 38 -151 30 -34 41 -40 59 -35
27 9 26 -2 3 226 -60 570 -91 1247 -94 2025 -1 270 2 525 6 568 24 240 92 497
196 737 99 228 176 344 749 1135 124 171 260 357 302 415 238 324 812 1121
995 1382 373 532 491 701 711 1023 222 326 650 974 722 1093 12 20 45 73 72
117 51 81 59 114 38 159 -24 55 -36 57 -381 71 -384 17 -902 32 -1537 46 -543
11 -3202 24 -3211 15z m2536 -46 c967 -16 1926 -42 2030 -55 17 -2 137 -7 267
-11 l237 -7 6 -29 c5 -21 2 -35 -9 -46 -9 -9 -38 -48 -64 -87 -49 -72 -360
-515 -581 -828 -69 -97 -160 -226 -200 -285 -81 -115 -241 -324 -502 -654 -90
-113 -222 -281 -294 -373 -71 -91 -163 -207 -202 -258 -40 -51 -126 -164 -190
-252 -141 -193 -339 -448 -437 -564 -39 -46 -102 -123 -140 -170 -189 -234
-584 -688 -659 -755 -171 -155 -378 -210 -802 -211 -366 0 -479 37 -692 225
-54 49 -401 459 -574 680 -35 45 -149 186 -252 313 -254 313 -720 897 -837
1048 -52 67 -107 136 -121 153 -14 17 -61 78 -105 135 -43 57 -136 179 -206
270 -278 363 -446 600 -630 885 -117 183 -215 319 -381 529 -64 81 -128 168
-143 193 -43 74 -41 74 257 84 352 12 531 20 554 25 42 9 653 26 1155 31 289
3 703 9 920 13 626 11 1941 12 2595 1z m617 -2977 c-22 -32 -86 -119 -143
-193 -57 -74 -151 -200 -209 -280 -57 -80 -246 -334 -419 -565 -174 -231 -361
-486 -416 -568 -65 -95 -105 -146 -115 -144 -23 4 -15 31 44 152 108 219 256
425 680 946 572 703 606 743 613 722 2 -7 -13 -38 -35 -70z m-3594 -761 c43
-53 170 -209 283 -347 241 -295 282 -349 337 -435 50 -79 101 -188 112 -237
l8 -35 -29 28 c-16 15 -100 127 -186 249 -87 121 -264 363 -395 538 -131 176
-238 322 -238 326 0 12 12 21 21 15 5 -3 44 -49 87 -102z m1155 -904 c143 -31
163 -33 347 -32 121 0 242 7 320 17 68 9 148 17 178 17 49 0 53 -2 50 -22 -4
-26 -55 -63 -107 -78 -160 -46 -616 -62 -781 -27 -113 24 -232 82 -241 119 -4
15 -4 29 -1 32 12 13 91 4 235 -26z m459 -238 c236 0 253 -4 244 -56 -15 -79
-202 -132 -429 -121 -127 6 -197 21 -271 56 -58 29 -80 54 -72 85 9 38 47 46
186 41 69 -3 223 -5 342 -5z m-39 -313 c154 2 277 -1 277 -6 0 -62 -677 -68
-737 -7 -18 18 27 26 102 19 44 -5 205 -7 358 -6z"/>
<path d="M12695 13180 c53 -21 136 -40 176 -39 40 0 41 1 19 10 -36 15 -157
39 -188 38 -24 0 -25 -1 -7 -9z"/>
<path d="M21375 13020 c11 -5 36 -8 55 -8 32 0 33 1 10 8 -14 4 -38 8 -55 8
-25 1 -27 -1 -10 -8z"/>
<path d="M6275 12529 c-117 -13 -243 -19 -465 -21 -296 -3 -306 -4 -348 -26
-71 -38 -109 -126 -59 -136 12 -3 169 -10 349 -17 257 -10 350 -10 435 0 158
17 203 1 188 -68 -25 -114 -356 -203 -630 -170 -115 14 -190 34 -270 74 -88
43 -149 57 -198 45 -51 -11 -82 -33 -97 -69 -10 -26 -10 -35 3 -54 34 -52 231
-133 398 -164 132 -25 530 -25 639 0 78 17 207 76 235 107 9 9 18 45 22 81 l6
64 76 50 c81 54 145 128 155 178 8 41 -21 96 -65 122 -46 27 -172 28 -374 4z"/>
<path d="M23103 12379 c-26 -8 -46 -28 -93 -98 -59 -89 -101 -141 -114 -141
-16 0 -2 54 34 129 l41 84 -73 -6 c-40 -3 -143 -14 -228 -23 -119 -14 -242
-18 -530 -18 -356 -1 -447 4 -805 39 l-40 4 42 -87 c49 -103 63 -147 42 -140
-12 3 -174 210 -182 231 -3 9 -89 28 -96 21 -2 -2 3 -14 12 -26 113 -162 250
-366 308 -458 198 -315 328 -647 396 -1010 16 -85 18 -160 17 -700 -1 -824
-34 -1524 -99 -2089 -8 -68 -12 -128 -9 -133 7 -11 51 24 81 65 21 28 23 38
17 82 -9 62 -8 70 10 246 8 80 22 163 30 185 17 49 22 101 41 434 33 587 39
782 40 1310 0 535 -2 574 -31 760 -17 109 -50 248 -89 370 -21 63 -38 129 -39
146 0 17 -7 38 -14 47 -9 11 -10 17 -2 22 9 5 340 -4 615 -18 36 -2 40 -5 46
-35 4 -18 1 -61 -7 -96 -7 -35 -16 -76 -19 -92 -10 -50 -44 -316 -49 -394 -29
-368 -34 -982 -16 -1700 12 -484 25 -712 44 -776 20 -67 38 -303 30 -397 l-7
-76 37 -46 c30 -35 43 -45 65 -43 l27 2 -13 110 c-53 466 -85 1011 -103 1731
-21 864 -11 1045 76 1361 95 349 211 571 520 999 72 99 138 192 148 208 18 27
18 27 -5 26 -13 0 -39 -5 -56 -10z m-546 -191 c34 -28 6 -84 -61 -123 -85 -50
-183 -68 -376 -68 -186 -1 -274 14 -376 64 -86 41 -118 101 -72 133 20 14 73
15 447 10 279 -3 430 -9 438 -16z m-364 -461 c163 0 297 -3 297 -7 0 -5 -15
-13 -32 -19 -132 -42 -546 -42 -675 0 -66 21 -30 41 57 31 30 -4 189 -6 353
-5z"/>
<path d="M14542 12362 c-51 -15 -56 -19 -124 -119 -38 -56 -74 -101 -78 -98
-5 3 -10 -1 -13 -7 -2 -7 -8 -10 -12 -6 -4 4 -3 13 1 20 5 7 10 24 12 37 2 13
12 46 22 74 11 28 17 53 15 55 -3 3 -44 -1 -92 -7 -444 -63 -929 -67 -1382
-12 -78 9 -145 13 -147 9 -3 -5 4 -25 16 -46 27 -45 52 -112 42 -112 -11 0
-61 55 -115 127 -41 53 -52 62 -89 69 -40 7 -68 7 -76 -1 -12 -11 115 -181
209 -280 69 -73 146 -193 236 -372 148 -290 220 -506 279 -838 13 -69 15 -916
4 -1265 -20 -628 -67 -1341 -106 -1582 -5 -32 -3 -38 13 -38 10 0 34 17 53 39
l35 38 2 139 c1 77 4 148 6 159 2 11 7 52 11 90 4 39 13 86 21 105 7 20 16 89
19 155 4 66 9 136 11 155 8 60 45 810 55 1140 20 594 7 869 -50 1135 -16 77
-32 147 -34 155 -2 8 -11 42 -20 75 -8 33 -27 93 -41 134 -14 41 -25 86 -25
101 0 14 -5 31 -12 38 -9 9 -9 15 -1 23 9 9 58 9 197 0 101 -7 243 -11 315
-10 91 1 136 -3 146 -11 19 -16 19 -60 1 -147 -19 -91 -60 -379 -72 -508 -24
-264 -30 -853 -14 -1475 15 -608 29 -917 45 -964 17 -51 29 -203 30 -368 0
-126 0 -126 31 -165 23 -28 39 -38 60 -38 34 0 34 -26 5 265 -40 397 -65 811
-81 1345 -19 654 -18 1149 4 1275 2 14 7 50 10 80 4 30 18 102 32 160 88 378
282 766 496 997 114 124 240 294 215 292 -7 -1 -36 -8 -65 -17z m-574 -138
c17 -3 22 -11 22 -38 0 -26 -8 -41 -35 -65 -73 -63 -192 -93 -395 -97 -217 -4
-364 30 -449 103 -47 40 -53 73 -18 98 19 14 68 15 437 10 228 -4 425 -8 438
-11z m-58 -476 c0 -59 -591 -72 -715 -16 -14 6 -25 14 -25 17 0 3 166 6 370 6
203 0 370 -3 370 -7z"/>
<path d="M4887 12067 c5 -7 33 -46 64 -87 77 -104 189 -303 189 -337 0 -6 24
-59 54 -119 87 -176 137 -290 183 -414 19 -52 41 -108 48 -125 41 -93 121
-412 152 -605 30 -191 23 -1140 -12 -1770 -9 -148 -36 -473 -45 -540 -18 -126
-12 -134 52 -70 l41 40 -7 68 c-8 79 18 352 39 411 14 40 18 86 35 396 34 618
40 1211 15 1430 -25 224 -44 313 -116 547 -22 72 -39 141 -37 153 1 12 -4 30
-11 39 -21 26 3 38 59 31 25 -3 164 -8 310 -11 150 -4 270 -11 278 -17 14 -11
15 -75 2 -132 -9 -39 -12 -58 -26 -140 -8 -46 -8 -50 -18 -130 -4 -33 -10 -71
-12 -85 -30 -193 -40 -619 -32 -1384 6 -552 9 -644 23 -679 9 -23 20 -96 26
-176 12 -179 13 -185 5 -261 l-7 -65 40 -42 c39 -42 81 -57 81 -29 0 8 -7 74
-15 148 -20 186 -42 498 -56 798 -13 281 -18 1267 -7 1370 14 128 49 321 69
380 5 14 11 36 13 50 8 43 53 190 94 305 51 144 107 274 191 445 38 76 67 141
64 144 -8 7 35 115 74 186 45 82 127 207 161 242 14 15 24 30 21 32 -2 2 -35
-14 -74 -36 -220 -126 -495 -213 -755 -239 -317 -31 -698 53 -1047 232 -62 32
-110 53 -106 46z m1401 -423 c32 -6 31 -71 -2 -107 -34 -37 -115 -75 -198 -94
-106 -23 -341 -23 -433 1 -76 20 -157 56 -191 84 -47 40 -57 92 -21 117 19 14
67 15 422 10 220 -4 410 -8 423 -11z m-564 -435 c96 -7 196 -7 316 -1 96 5
183 7 194 2 20 -7 20 -7 1 -17 -118 -62 -725 -51 -725 14 0 16 27 16 214 2z"/>
<path d="M29985 10420 c17 -6 64 -12 105 -15 49 -3 66 -2 49 4 -14 4 -61 11
-105 14 -58 5 -71 4 -49 -3z"/>
<path d="M30129 9670 c59 -47 83 -85 149 -241 95 -221 179 -490 211 -674 72
-409 -21 -895 -237 -1231 -95 -148 -79 -141 -607 -265 -675 -159 -988 -263
-1235 -412 -95 -57 -205 -161 -235 -222 -11 -22 -29 -51 -40 -64 -11 -13 -14
-21 -7 -16 11 6 12 3 3 -14 -7 -11 -14 -21 -17 -21 -3 0 -2 5 1 10 3 6 4 10 1
10 -3 0 -12 -13 -21 -30 -9 -16 -13 -30 -9 -30 4 0 1 -7 -6 -15 -7 -8 -10 -24
-7 -35 3 -11 1 -18 -4 -14 -5 3 -9 -2 -9 -11 0 -8 6 -18 13 -21 8 -3 14 -11
14 -19 0 -8 -4 -12 -9 -9 -16 10 -8 -5 16 -31 14 -15 22 -33 19 -41 -13 -34
148 -154 284 -213 77 -34 87 -36 78 -21 -6 9 63 -18 75 -30 3 -3 10 -5 15 -5
29 -1 74 -18 70 -26 -4 -5 2 -8 12 -7 26 4 123 -24 123 -35 0 -5 7 -7 15 -3 8
3 32 -1 54 -9 22 -7 42 -11 45 -8 3 4 6 1 6 -5 0 -6 7 -9 15 -6 8 4 15 2 15
-4 0 -5 11 -7 25 -4 14 2 25 0 25 -7 0 -5 7 -8 15 -5 8 3 36 -1 62 -10 26 -9
66 -18 88 -21 163 -20 236 -36 228 -49 -3 -6 0 -6 8 2 14 13 33 17 25 4 -2 -4
11 -6 31 -4 22 3 33 1 30 -5 -4 -6 4 -8 18 -5 14 2 33 -2 42 -9 12 -10 14 -10
9 -1 -4 6 -2 12 3 12 6 0 11 -4 11 -10 0 -5 7 -7 15 -4 8 4 23 3 33 -1 9 -5
27 -7 40 -6 13 2 28 -2 35 -7 17 -13 59 -19 242 -36 417 -38 968 -59 977 -37
2 5 145 11 318 15 173 3 383 10 465 16 83 5 191 12 240 16 50 3 107 7 128 9
20 1 37 -2 37 -7 0 -7 22 -8 58 -4 428 50 725 99 970 160 165 42 187 50 196
71 4 11 13 15 26 12 11 -3 18 -2 15 3 -4 7 82 34 110 35 6 0 14 6 18 13 4 6
14 12 22 12 8 0 54 20 102 45 47 25 88 43 90 41 3 -2 -5 -7 -16 -11 -12 -3
-18 -11 -15 -17 4 -7 9 -6 14 2 4 6 16 13 26 14 12 2 18 10 16 22 -3 16 -2 16
14 3 16 -12 17 -12 11 3 -4 13 -2 15 10 11 8 -3 18 -2 22 3 3 6 20 20 36 33
17 13 30 32 30 43 0 15 8 22 25 25 31 4 47 25 61 77 27 99 -26 196 -167 306
-26 20 -161 100 -169 100 -4 0 -41 24 -84 54 -140 99 -358 195 -646 285 -170
53 -297 85 -660 170 -523 123 -509 117 -597 251 -225 340 -322 844 -244 1263
36 193 124 467 221 687 55 127 85 171 145 218 l45 35 -35 -6 c-99 -17 -361
-39 -571 -47 -320 -12 -717 4 -969 40 -104 15 -107 14 -51 -30z m841 -115
c157 -2 288 -4 292 -4 4 -1 12 -10 18 -22 28 -51 -54 -139 -164 -178 -37 -13
-65 -25 -64 -27 2 -1 32 -7 67 -13 76 -12 86 -23 102 -114 11 -60 10 -78 -9
-165 -12 -53 -24 -110 -27 -127 -2 -16 -8 -50 -13 -75 -4 -25 -5 -61 -1 -80
11 -54 -19 -367 -40 -414 -10 -23 -21 -74 -24 -115 l-5 -74 58 -56 c56 -54 58
-59 79 -151 12 -52 31 -106 41 -119 11 -13 20 -36 20 -51 0 -43 19 -88 41 -93
14 -4 19 -14 19 -37 0 -17 7 -44 15 -60 18 -34 27 -30 -130 -59 -142 -26 -384
-45 -494 -39 -47 3 -138 15 -201 28 -63 12 -125 24 -137 26 -29 6 -29 13 2 46
14 15 25 39 25 54 0 15 13 41 30 60 16 18 32 51 36 71 3 21 13 49 21 61 8 13
25 66 39 118 14 58 34 108 50 129 16 21 28 53 32 80 7 66 -16 615 -34 810
l-16 170 36 64 c21 36 46 71 56 78 56 39 55 41 -32 86 -130 66 -180 126 -149
176 12 19 76 31 131 24 25 -3 173 -7 330 -8z m205 -2094 c8 -15 -29 -31 -84
-38 -52 -6 -101 2 -101 16 0 20 173 40 185 22z m-125 -146 c24 -15 -20 -27
-122 -32 -110 -7 -230 11 -251 35 -10 13 10 14 174 10 103 -3 192 -9 199 -13z
m-760 -77 c25 -8 86 -31 135 -51 114 -46 246 -64 481 -66 280 -3 413 18 612
98 72 29 86 27 107 -13 l19 -34 -31 -36 c-17 -19 -35 -41 -40 -48 -20 -33 -96
-81 -171 -107 -71 -25 -145 -43 -392 -91 -56 -11 -251 -4 -305 11 -22 6 -78
20 -125 30 -47 11 -125 34 -175 52 -83 30 -96 38 -167 110 -76 76 -89 99 -67
112 5 4 9 17 8 28 0 12 -1 25 0 28 1 7 41 -1 111 -23z m2055 -99 c33 -5 139
-31 235 -56 322 -85 586 -211 680 -325 23 -28 28 -42 25 -79 -1 -25 -7 -55
-13 -66 -27 -49 -116 -63 -304 -49 -79 5 -87 4 -81 -11 5 -12 3 -14 -7 -8 -9
5 -11 4 -6 -4 5 -7 9 -23 11 -37 1 -14 17 -40 34 -58 22 -22 34 -47 38 -73 9
-69 -2 -77 -139 -106 -350 -76 -710 -120 -1218 -148 -267 -15 -1098 -15 -1360
0 -190 11 -508 37 -555 46 -11 2 -34 4 -52 4 -18 1 -44 12 -62 27 -17 14 -31
23 -31 20 0 -7 -228 110 -295 152 -54 33 -99 67 -127 95 -10 9 -21 17 -26 17
-7 0 -35 39 -35 50 -1 14 -26 28 -62 34 -108 19 -239 59 -274 82 -46 30 -63
68 -48 103 11 23 110 97 211 157 75 44 209 91 371 129 77 18 194 47 260 64 83
22 153 34 225 38 97 4 107 3 124 -15 27 -30 4 -69 -59 -100 -96 -48 -109 -53
-155 -62 -26 -5 -107 -32 -180 -61 -119 -46 -139 -58 -188 -106 -47 -48 -53
-58 -48 -84 11 -55 24 -60 176 -66 122 -4 141 -3 146 11 12 31 74 38 155 16
77 -20 252 -26 384 -11 l60 6 -70 28 c-76 31 -175 91 -175 107 0 9 6 11 43 13
21 2 138 -13 262 -33 98 -15 195 -20 520 -24 419 -6 672 3 815 29 47 8 122 18
168 22 71 5 82 4 82 -10 0 -21 -51 -59 -125 -91 -131 -58 -129 -55 -35 -49 47
2 127 11 178 19 98 15 115 13 105 -12 -5 -14 15 -15 193 -9 206 6 436 22 467
31 16 5 21 20 18 54 -3 29 -103 110 -184 150 -45 21 -131 55 -190 75 -142 47
-206 87 -208 129 0 17 -2 18 -7 5 -21 -50 -111 -123 -138 -112 -21 8 -17 45
11 85 14 20 25 42 25 47 0 17 43 23 73 12 23 -9 32 -7 50 9 20 19 31 20 137
15 63 -3 142 -10 175 -16z m1445 -927 c0 -5 -12 -14 -27 -21 l-28 -12 25 21
c29 22 30 23 30 12z m-850 -67 c0 -13 -145 -63 -235 -80 -49 -9 -175 -18 -175
-12 0 9 117 45 230 71 101 23 180 32 180 21z m-1094 -114 c86 -13 104 -19 104
-36 0 -20 -119 -55 -230 -70 -295 -37 -1197 -43 -1580 -10 -165 14 -342 48
-360 70 -16 19 0 26 100 46 77 15 174 17 990 14 548 -3 933 -8 976 -14z"/>
<path d="M55140 9564 c114 -58 155 -106 218 -257 227 -544 282 -905 201 -1325
-48 -250 -183 -558 -302 -690 -24 -26 -143 -66 -337 -112 -436 -103 -795 -196
-931 -241 -308 -103 -505 -202 -631 -318 -81 -75 -110 -121 -136 -217 -23 -82
-19 -119 15 -150 14 -13 22 -27 19 -33 -4 -5 -1 -13 5 -17 8 -5 9 -3 4 6 -5 9
-4 11 3 6 7 -4 12 -13 12 -19 0 -7 9 -20 20 -30 11 -9 20 -14 20 -11 0 3 7 -2
16 -10 8 -9 22 -16 30 -16 9 0 12 -5 8 -12 -4 -7 -4 -10 1 -6 8 8 95 -34 128
-61 9 -8 17 -11 17 -7 0 4 10 1 23 -6 12 -7 25 -11 30 -10 4 1 7 -3 7 -8 0 -5
3 -9 8 -8 14 3 62 -14 62 -22 0 -5 10 -6 22 -2 16 4 19 2 13 -8 -6 -9 -4 -11
4 -6 7 5 18 2 24 -7 7 -8 41 -22 77 -31 36 -10 79 -22 95 -27 80 -24 391 -88
505 -105 68 -9 115 -16 131 -19 9 -2 38 -6 65 -9 27 -3 105 -13 174 -21 147
-18 173 -18 165 -5 -7 11 8 14 18 4 4 -4 31 -7 62 -6 30 0 55 -3 55 -7 0 -4
10 -7 23 -6 12 1 28 -3 36 -9 9 -7 12 -7 9 0 -7 11 60 17 77 6 5 -3 42 -5 82
-4 41 0 71 -3 68 -7 -2 -5 9 -7 25 -6 17 1 33 -2 36 -7 4 -5 11 -5 18 1 16 13
97 11 115 -3 11 -8 13 -8 7 2 -6 11 11 12 44 2 3 -1 119 -1 258 0 187 1 252
-2 252 -11 0 -16 466 -4 815 21 294 21 395 33 395 48 0 10 10 13 40 9 26 -3
40 0 40 7 0 6 4 5 9 -3 7 -11 9 -11 13 0 4 12 8 11 23 -1 11 -9 16 -10 11 -2
-4 8 -1 13 11 14 10 0 25 2 33 3 8 1 20 -2 26 -7 13 -9 46 0 40 11 -2 3 9 7
25 7 18 1 27 -2 23 -10 -3 -6 1 -3 10 8 10 12 22 17 38 13 12 -4 27 -2 32 2
19 15 86 21 86 8 0 -8 3 -7 9 2 5 7 14 10 20 7 6 -4 11 -2 11 5 0 8 5 7 17 -2
14 -12 15 -12 9 0 -7 10 -4 12 12 7 11 -4 23 -2 27 4 4 6 19 10 33 9 15 -1 35
1 44 5 9 4 22 4 29 0 8 -4 9 -3 5 4 -5 8 2 11 23 8 19 -2 28 1 24 7 -4 6 2 8
15 5 12 -4 22 -2 22 4 0 6 9 8 20 5 11 -3 20 -1 20 3 0 9 85 26 108 22 6 -2
12 2 12 8 0 6 10 10 23 9 12 -2 31 2 42 8 11 6 26 8 33 6 6 -3 12 0 12 7 0 6
4 9 9 5 5 -3 12 -1 16 5 3 5 11 10 17 10 6 0 5 -7 -3 -17 -8 -9 3 -4 23 11 22
16 44 26 53 22 9 -3 14 -2 11 3 -3 5 5 11 19 13 13 3 26 1 28 -5 2 -6 40 6 86
26 183 79 288 165 308 251 11 49 2 109 -18 121 -5 4 -7 10 -4 14 2 5 -20 31
-50 59 -30 28 -57 47 -60 42 -3 -5 7 -16 22 -24 15 -8 23 -15 18 -16 -17 0
-54 30 -65 53 -11 21 -11 21 4 3 9 -11 16 -15 16 -9 0 16 -28 36 -40 28 -6 -4
-9 -1 -8 5 2 7 -15 22 -37 34 -22 12 -74 47 -115 78 -77 58 -245 146 -373 197
-216 85 -516 169 -1002 280 -238 54 -380 93 -433 118 -45 22 -120 129 -192
278 -70 144 -111 264 -147 434 -25 116 -27 145 -28 356 0 216 2 238 29 360 33
155 107 387 176 554 93 227 108 246 244 316 58 30 65 36 36 31 -109 -18 -287
-38 -478 -52 -380 -29 -990 -5 -1309 52 -32 5 -27 1 37 -32z m1012 -134 l198
0 11 -24 c9 -18 7 -31 -5 -58 -25 -52 -65 -85 -140 -117 l-67 -28 61 -13 c52
-11 64 -18 78 -44 25 -47 22 -187 -7 -316 -14 -63 -25 -145 -26 -205 -5 -189
-24 -365 -44 -404 -11 -20 -22 -72 -26 -118 l-7 -83 33 -27 c75 -63 84 -77
108 -176 12 -53 32 -108 43 -123 12 -15 21 -39 20 -57 -1 -19 16 -68 39 -115
22 -46 38 -90 35 -98 -3 -8 -19 -14 -35 -14 -16 0 -63 -7 -103 -15 -97 -21
-421 -46 -500 -39 -35 3 -105 14 -157 25 -52 10 -104 19 -117 19 -12 0 -35 5
-49 10 l-27 10 26 35 c33 42 96 173 96 198 0 10 9 36 20 57 11 22 29 75 39
118 20 85 31 112 55 131 8 7 18 33 22 58 12 80 -17 727 -41 940 -7 55 38 141
102 200 41 37 44 43 27 49 -67 23 -169 82 -199 115 -41 45 -45 81 -12 104 19
15 43 16 186 11 90 -3 254 -6 363 -6z m-22 -2240 c12 -7 11 -10 -10 -18 -70
-27 -258 -22 -335 9 -28 10 -29 12 -10 20 24 11 333 1 355 -11z m-759 -79 c46
-16 120 -43 164 -59 111 -41 241 -56 490 -55 249 1 330 11 484 65 150 52 181
60 181 43 0 -7 7 -18 15 -25 25 -21 18 -38 -42 -106 -64 -72 -126 -107 -253
-142 -262 -73 -445 -89 -621 -53 -256 52 -416 112 -461 172 -13 17 -38 46 -55
63 -33 32 -44 66 -22 66 7 0 9 11 6 30 -8 39 4 39 114 1z m2070 -102 c345 -71
646 -181 817 -298 90 -61 102 -79 104 -145 1 -54 -1 -59 -33 -87 -19 -16 -49
-32 -68 -35 -41 -8 -140 -9 -198 -3 -24 2 -43 1 -43 -4 0 -5 -7 -6 -16 -3 -25
9 -45 -12 -38 -40 4 -14 2 -24 -4 -24 -6 0 -12 -23 -14 -50 -3 -46 -1 -50 20
-50 32 0 28 -12 -22 -58 -24 -22 -41 -44 -38 -48 4 -4 2 -4 -4 -1 -7 4 -32 -4
-57 -18 -73 -41 -500 -105 -902 -135 -578 -42 -1531 -40 -1865 6 -254 34 -506
110 -743 223 -103 50 -127 64 -169 104 -10 9 -21 17 -26 17 -4 0 -19 13 -33
29 -15 17 -39 33 -55 37 -16 4 -33 9 -39 13 -5 3 -14 7 -20 8 -5 1 -39 10 -75
18 -80 20 -140 54 -162 93 -17 28 -17 31 9 81 17 32 41 60 63 73 19 12 37 25
40 29 3 4 41 25 86 48 79 40 271 99 449 139 50 11 142 33 205 50 145 37 300
48 332 22 17 -14 19 -21 11 -45 -9 -28 -20 -35 -148 -99 -11 -5 -45 -15 -75
-22 -30 -6 -113 -35 -185 -63 -110 -42 -136 -57 -167 -92 -47 -52 -50 -89 -10
-118 24 -17 46 -20 138 -21 82 -1 116 2 139 14 38 20 65 20 135 0 41 -12 100
-15 234 -15 99 1 182 3 184 6 2 2 -30 21 -71 41 -42 20 -91 49 -109 65 -30 25
-31 28 -14 35 20 8 146 -7 326 -38 107 -18 148 -19 645 -15 511 4 536 5 695
31 194 30 199 31 206 11 7 -17 -18 -40 -100 -93 l-51 -33 105 7 c58 3 114 10
126 14 11 5 38 10 60 12 33 2 39 0 39 -17 0 -18 7 -20 85 -19 224 2 494 15
511 25 42 22 13 92 -59 143 -49 33 -220 108 -298 130 -75 21 -133 50 -169 85
l-29 27 -41 -42 c-62 -65 -129 -72 -106 -11 6 14 22 44 36 67 24 39 27 40 80
40 29 0 57 5 60 10 11 18 209 11 316 -11z m1422 -564 c10 -14 14 -25 9 -25 -6
0 -17 11 -26 25 -21 32 -7 32 17 0z m56 -120 c0 -5 -4 -3 -9 5 -5 8 -9 22 -9
30 0 16 17 -16 18 -35z m-9 -31 c0 -8 -5 -12 -10 -9 -6 4 -8 11 -5 16 9 14 15
11 15 -7z m-885 -274 c-16 -26 -178 -74 -302 -90 -89 -12 -122 -3 -66 17 63
22 193 55 273 68 97 17 102 17 95 5z m-1168 -110 c171 -14 208 -31 138 -64
-45 -22 -148 -41 -305 -58 -176 -18 -1260 -18 -1455 0 -276 27 -422 63 -374
93 18 11 98 28 180 38 87 10 1663 2 1816 -9z"/>
<path d="M63450 7858 c-232 -13 -265 -23 -105 -31 182 -10 220 -17 220 -42 1
-33 -24 -49 -94 -63 -36 -7 -79 -15 -96 -19 -16 -3 -34 -9 -40 -13 -5 -4 -31
-13 -57 -20 -27 -7 -48 -17 -48 -22 0 -5 3 -7 8 -5 4 3 35 1 68 -4 34 -5 98
-10 141 -13 53 -3 111 -15 172 -35 83 -28 104 -31 214 -31 67 0 181 5 252 10
72 6 184 13 250 16 66 3 145 10 175 16 138 26 141 29 74 73 -40 27 -44 34 -42
65 l3 35 70 7 c39 4 108 10 154 14 56 5 78 10 64 15 -23 8 -283 36 -458 48
-159 11 -730 11 -925 -1z"/>
<path d="M40293 7450 c-51 -21 -403 -31 -667 -20 -144 6 -268 13 -278 16 -12
4 -20 -7 -32 -44 -19 -56 -36 -75 -87 -96 -40 -16 -241 -68 -334 -86 -98 -18
-105 -20 -220 -46 -514 -119 -611 -144 -845 -219 -226 -72 -393 -146 -521
-231 -79 -52 -180 -157 -198 -205 -7 -19 -26 -65 -42 -103 -23 -54 -27 -71
-17 -78 10 -6 9 -8 -2 -8 -13 0 -13 -1 0 -10 8 -5 10 -10 4 -10 -17 0 -12 -30
5 -30 14 0 14 -2 2 -9 -12 -8 -10 -17 14 -51 91 -131 414 -268 849 -360 82
-17 160 -30 172 -27 13 2 25 -1 28 -7 3 -7 5 -7 5 -1 1 6 18 9 41 7 22 -2 38
-7 36 -11 -3 -4 11 -5 30 -3 19 2 34 0 34 -5 0 -5 14 -8 30 -7 17 1 30 -1 30
-4 0 -4 15 -7 33 -8 38 0 162 -12 232 -21 28 -4 56 -6 64 -4 7 1 10 -2 7 -8
-5 -7 4 -9 25 -4 24 5 30 3 25 -6 -6 -10 -4 -10 11 0 16 10 26 9 52 -4 17 -9
29 -11 25 -6 -4 6 19 8 63 5 181 -13 261 -19 293 -20 93 -4 111 -7 106 -15
-10 -15 409 -24 818 -18 355 6 390 8 401 24 11 15 19 16 54 7 26 -7 41 -8 41
-1 0 6 16 7 39 3 23 -3 42 -2 46 4 3 5 30 10 58 10 29 0 150 9 271 21 120 11
225 18 232 15 8 -3 14 -1 14 4 0 5 12 8 28 6 15 -1 34 1 43 5 9 4 42 10 75 13
32 3 87 10 122 16 35 6 67 8 72 5 5 -3 12 0 15 6 4 6 18 8 30 5 14 -4 25 -1
28 7 4 9 7 9 15 -1 7 -11 30 -9 123 8 351 66 652 166 816 272 76 50 137 120
130 150 -3 10 -1 18 4 18 14 0 2 113 -13 125 -7 5 -21 23 -31 38 -24 37 -35
27 -13 -10 17 -27 17 -27 -8 2 -14 16 -25 37 -23 45 1 9 -5 14 -15 12 -9 -1
-20 3 -24 9 -4 8 -3 9 4 5 7 -4 12 -2 12 3 0 6 -7 11 -15 11 -8 0 -15 4 -15 9
0 5 -17 20 -37 32 -21 12 -61 44 -89 70 -220 204 -609 342 -1530 543 -551 120
-550 120 -585 215 -22 62 -27 66 -66 51z m-350 -206 c57 -9 30 -31 -46 -39
-74 -8 -246 8 -279 26 l-23 13 25 7 c27 8 260 3 323 -7z m-710 -90 c56 -20
131 -47 167 -60 99 -35 231 -48 475 -48 258 0 322 10 495 70 131 46 170 53
170 30 0 -8 7 -16 15 -20 20 -7 19 -42 -2 -58 -10 -7 -34 -33 -54 -58 -50 -63
-120 -97 -284 -139 -201 -52 -226 -56 -395 -55 -157 0 -172 2 -304 37 -230 60
-269 79 -359 171 -75 77 -77 80 -62 103 9 13 13 33 10 43 -9 28 9 26 128 -16z
m2212 -128 c249 -63 326 -89 520 -176 97 -44 237 -142 267 -188 16 -24 16 -28
1 -44 -9 -10 -21 -18 -28 -18 -6 0 -16 -15 -23 -33 -18 -50 -67 -72 -161 -70
-42 0 -92 3 -111 7 -19 3 -56 1 -82 -6 -38 -9 -45 -14 -36 -25 6 -7 7 -13 4
-13 -4 0 -2 -9 4 -19 6 -12 6 -22 1 -25 -5 -3 0 -23 10 -43 31 -62 21 -113
-22 -113 -10 0 -25 -9 -33 -21 -9 -13 -19 -18 -27 -14 -7 5 -10 4 -5 -3 3 -6
2 -13 -4 -17 -6 -4 -7 -11 -4 -17 4 -7 2 -8 -5 -4 -6 4 -17 3 -24 -2 -30 -25
-562 -98 -882 -122 -584 -43 -1397 -41 -1965 5 -179 15 -201 20 -306 66 -23
10 -52 20 -65 22 -13 1 -46 13 -73 25 -27 12 -52 22 -56 22 -14 0 -114 54
-162 87 -26 18 -52 33 -57 33 -5 0 -14 7 -21 15 -7 8 -18 14 -24 13 -16 -4
-102 72 -122 107 -7 12 -47 28 -125 50 -62 17 -128 39 -146 48 -40 21 -83 76
-75 95 3 10 1 13 -6 8 -16 -10 -26 38 -13 62 6 11 28 31 48 43 21 13 40 26 43
29 3 4 43 26 89 49 100 49 202 80 401 120 80 16 194 43 254 60 59 17 136 33
170 36 183 15 176 15 197 -4 35 -33 -5 -92 -83 -121 -18 -6 -51 -20 -74 -31
-23 -10 -50 -19 -62 -19 -27 0 -274 -93 -316 -119 -62 -39 -115 -100 -111
-128 2 -7 3 -17 4 -22 0 -5 15 -17 33 -25 23 -12 63 -16 160 -16 115 0 131 2
150 20 27 25 88 26 149 4 35 -13 83 -16 234 -15 104 1 191 3 193 5 2 2 -45 28
-104 57 -102 51 -137 79 -121 95 8 8 133 -6 325 -37 115 -19 160 -20 655 -16
513 4 538 5 697 30 154 24 210 26 210 7 0 -15 -76 -68 -143 -101 -37 -17 -67
-33 -67 -35 0 -6 155 8 240 22 110 18 109 18 102 -8 l-5 -21 330 6 c358 7 385
11 377 55 -7 36 -13 45 -63 87 -68 56 -202 118 -371 171 -92 29 -191 90 -182
113 3 8 -20 -10 -50 -42 -74 -75 -136 -79 -104 -7 43 94 70 113 129 91 19 -7
28 -5 41 11 17 19 26 20 159 15 125 -5 163 -11 322 -51z m1285 -631 c0 -8 -2
-15 -4 -15 -2 0 -6 7 -10 15 -3 8 -1 15 4 15 6 0 10 -7 10 -15z m-1 -63 c7
-13 6 -19 -2 -19 -7 0 -13 9 -13 19 0 10 1 18 3 18 1 0 7 -8 12 -18z m-864
-262 c-17 -28 -212 -83 -334 -94 -146 -14 -30 34 192 79 129 27 151 29 142 15z
m-1800 -101 c569 -1 733 -7 787 -30 38 -16 32 -28 -26 -50 -126 -50 -412 -70
-1016 -69 -522 0 -737 10 -954 46 -100 17 -161 38 -151 54 9 14 99 39 185 50
41 5 194 7 340 4 146 -2 522 -5 835 -5z"/>
<path d="M14009 7420 c-37 -21 -406 -33 -669 -22 -140 7 -264 14 -275 16 -17
3 -25 -6 -44 -54 -19 -50 -28 -62 -64 -79 -41 -19 -168 -52 -352 -90 -132 -28
-559 -127 -720 -167 -368 -93 -714 -225 -876 -334 -82 -56 -172 -149 -194
-203 -9 -23 -23 -56 -30 -73 -8 -18 -10 -36 -5 -45 5 -7 5 -18 -1 -25 -7 -8
-6 -14 1 -19 5 -3 10 -12 10 -18 0 -7 -4 -6 -10 3 -8 13 -10 13 -10 -2 0 -9 4
-19 10 -23 5 -3 6 -13 3 -21 -10 -27 121 -144 213 -188 88 -44 264 -117 264
-111 0 3 12 0 28 -6 15 -6 41 -15 57 -19 17 -5 73 -20 125 -35 56 -15 110 -24
132 -22 21 2 35 0 32 -5 -3 -5 6 -7 20 -4 15 3 24 1 21 -3 -2 -5 4 -11 15 -14
13 -3 18 -1 13 6 -4 6 0 8 9 4 9 -3 52 -11 97 -17 44 -7 79 -16 76 -20 -3 -5
4 -6 15 -3 11 3 27 0 35 -7 12 -10 15 -10 15 1 0 11 2 11 10 -1 5 -8 10 -10
10 -5 0 6 5 3 10 -5 5 -8 10 -10 10 -4 0 13 89 7 104 -6 4 -5 24 -6 42 -3 19
3 34 1 34 -4 0 -5 16 -7 35 -5 22 3 45 -2 61 -13 15 -9 23 -12 19 -6 -9 16
120 3 159 -15 34 -16 47 -18 26 -3 -11 7 -3 9 30 5 86 -9 225 -18 253 -18 16
1 38 -5 50 -12 33 -21 271 -30 765 -31 327 0 435 3 440 12 9 14 54 13 64 -2 5
-6 8 -6 8 3 0 8 16 12 46 12 33 0 43 -3 39 -12 -4 -7 0 -5 7 4 12 14 30 16
107 14 51 -1 95 2 98 7 3 5 35 7 72 6 36 -2 71 0 77 4 6 3 36 6 65 5 30 -1 59
1 64 4 11 6 168 20 247 23 26 1 51 4 54 8 4 4 14 1 22 -6 13 -10 14 -9 8 1 -6
9 -1 11 18 8 14 -3 28 0 32 5 3 6 20 9 38 8 17 -2 37 1 45 5 8 5 17 3 22 -5 7
-12 9 -12 9 0 0 7 6 11 15 8 8 -4 17 -1 21 5 5 7 9 6 15 -4 7 -12 26 -11 136
8 70 12 146 25 168 28 62 10 340 75 435 103 129 37 325 119 399 167 75 48 96
70 85 87 -4 7 -3 9 3 6 13 -8 59 40 72 76 16 41 13 76 -8 124 -20 44 -68 103
-83 103 -6 0 -28 15 -51 34 -72 58 -131 88 -146 73 -10 -9 -12 -9 -9 3 2 10
-15 24 -47 40 -27 14 -81 44 -120 67 -204 123 -614 257 -1130 372 -55 12 -136
31 -180 41 -44 11 -93 21 -108 24 -96 17 -293 62 -377 87 -134 40 -142 46
-180 152 -10 28 -24 33 -51 17z m-340 -212 c26 -11 25 -11 -19 -25 -75 -24
-330 -3 -330 27 0 19 302 17 349 -2z m-689 -100 c210 -81 292 -94 575 -97 242
-2 354 11 494 60 196 68 187 66 210 38 11 -13 20 -30 21 -38 0 -7 -23 -42 -51
-76 -77 -95 -157 -129 -444 -191 -104 -22 -155 -28 -255 -28 -112 1 -141 5
-285 41 -88 22 -185 50 -216 62 -60 23 -149 77 -149 91 0 5 -18 28 -40 51 -40
44 -48 63 -30 74 6 3 8 20 5 36 -5 30 -5 31 27 24 18 -4 80 -25 138 -47z
m2010 -79 c30 -6 87 -19 125 -29 39 -11 84 -21 100 -24 222 -40 580 -202 689
-311 33 -32 35 -46 27 -132 -2 -24 -62 -71 -104 -81 -24 -6 -76 -8 -122 -5
-140 11 -192 2 -179 -32 3 -7 1 -16 -5 -19 -5 -4 -7 -29 -4 -59 4 -41 2 -56
-11 -66 -9 -7 -16 -10 -16 -7 0 19 -44 -20 -56 -50 -8 -19 -19 -34 -25 -34 -6
0 -18 -8 -27 -18 -10 -10 -13 -11 -7 -2 5 8 -3 4 -18 -9 -15 -14 -35 -26 -45
-27 -9 -1 -38 -6 -63 -12 -131 -32 -578 -81 -944 -104 -441 -28 -1588 -11
-1735 26 -14 3 -54 11 -90 16 -118 19 -261 56 -345 90 -11 4 -51 20 -90 35
-86 34 -184 83 -203 101 -7 8 -23 19 -35 25 -24 13 -28 16 -106 89 -31 30 -66
53 -85 57 -87 16 -186 46 -233 69 -61 32 -95 82 -75 114 6 10 9 26 6 33 -5 13
44 59 101 94 101 63 254 119 430 158 44 10 145 35 225 57 98 26 185 42 268 50
140 12 172 6 172 -37 0 -29 -59 -77 -118 -96 -20 -6 -43 -16 -50 -22 -7 -5
-34 -14 -60 -18 -26 -4 -108 -31 -182 -60 -116 -45 -141 -59 -181 -100 -52
-53 -58 -85 -21 -120 21 -18 37 -21 143 -24 107 -3 125 -1 155 17 37 22 58 21
174 -3 44 -10 116 -13 223 -11 166 3 187 11 112 40 -52 20 -148 83 -153 101
-6 18 111 10 328 -23 150 -24 172 -24 640 -22 477 2 488 2 680 31 122 18 206
26 224 21 l30 -7 -40 -39 c-21 -21 -42 -36 -46 -33 -5 2 -8 -1 -8 -7 0 -6 -3
-9 -7 -7 -5 3 -24 -6 -43 -19 l-34 -24 69 0 c39 0 109 9 157 19 87 18 112 14
101 -15 -7 -18 34 -18 352 -3 215 11 242 14 262 31 37 34 12 88 -68 143 -45
31 -237 112 -319 135 -59 16 -123 54 -155 92 -14 16 -25 24 -25 16 0 -16 -83
-94 -108 -100 -35 -10 -46 5 -33 45 7 19 19 41 27 47 7 7 14 18 14 25 0 27 30
39 70 29 32 -9 42 -8 61 8 21 15 39 17 139 13 63 -3 140 -10 170 -16z m1417
-544 c0 -8 -4 -12 -9 -9 -4 3 -8 9 -8 15 0 5 4 9 8 9 5 0 9 -7 9 -15z m70
-221 c-3 -3 -12 -4 -19 -1 -8 3 -5 6 6 6 11 1 17 -2 13 -5z m-22 -31 c-19 -13
-31 -11 -21 5 3 5 13 9 22 9 15 0 15 -2 -1 -14z m-865 -199 c0 -10 -84 -45
-145 -60 -114 -27 -156 -34 -203 -33 l-57 1 34 14 c79 35 371 96 371 78z
m-1136 -115 c95 -10 146 -24 146 -40 0 -15 -110 -48 -211 -63 -199 -29 -482
-39 -997 -33 -503 5 -698 17 -858 51 -168 36 -154 64 46 95 76 11 1751 3 1874
-10z"/>
<path d="M6339 7410 c-9 -5 -110 -15 -225 -21 -163 -10 -261 -10 -449 0 -132
7 -247 14 -256 17 -11 3 -23 -11 -39 -47 -37 -77 -51 -86 -235 -134 -33 -8
-73 -18 -89 -21 -76 -13 -634 -140 -787 -179 -315 -80 -578 -169 -754 -258
-201 -100 -303 -192 -360 -324 -37 -85 -45 -152 -22 -172 8 -6 17 -9 20 -6 4
3 5 2 2 -2 -3 -3 1 -13 8 -21 10 -13 9 -14 -2 -7 -10 5 -12 4 -7 -3 4 -7 13
-12 21 -12 8 0 17 -4 20 -10 4 -6 -1 -7 -12 -3 -35 13 30 -47 105 -97 106 -71
380 -173 607 -225 214 -50 485 -95 536 -89 32 4 39 2 33 -8 -6 -11 -5 -11 8 0
11 9 18 10 23 2 3 -6 11 -8 16 -5 5 4 9 0 9 -7 0 -9 3 -9 10 2 9 13 10 13 10
0 0 -13 1 -13 10 0 8 13 13 12 41 -4 18 -11 28 -13 24 -6 -6 10 0 11 26 7 19
-4 63 -8 99 -11 118 -10 170 -18 164 -28 -5 -8 44 -1 55 8 2 2 19 -3 38 -11
38 -16 72 -20 38 -5 -13 6 4 8 50 4 39 -2 126 -7 194 -9 69 -3 127 -8 130 -13
10 -12 33 -13 25 -1 -5 8 11 10 57 5 35 -3 72 -6 82 -7 9 0 17 -5 17 -11 0 -8
137 -9 488 -4 587 8 719 14 732 36 6 10 277 33 291 24 5 -3 16 0 24 6 8 7 33
10 55 8 22 -2 40 0 40 5 0 5 12 7 27 4 15 -3 38 -1 51 4 13 5 21 5 18 1 -3 -5
1 -9 9 -9 8 0 12 4 9 9 -3 4 2 8 11 8 10 0 13 -5 9 -12 -6 -10 -5 -10 8 -1 8
7 18 10 21 6 4 -3 12 -1 20 5 7 6 22 11 32 11 11 0 35 3 53 7 19 4 32 2 32 -4
0 -6 13 -4 31 5 17 9 50 16 73 17 23 1 47 6 54 10 7 4 25 5 38 2 18 -5 24 -3
18 5 -5 8 2 10 24 7 17 -2 34 0 36 6 3 7 9 5 15 -4 6 -8 11 -10 11 -4 0 18 31
26 48 12 10 -8 13 -9 9 -2 -9 16 22 27 38 14 9 -7 16 -6 25 5 7 9 21 13 31 10
12 -4 19 -1 19 7 0 10 3 9 10 -2 8 -12 25 -10 127 14 228 56 465 148 577 225
57 39 126 118 127 145 1 12 2 36 4 53 2 21 -1 30 -8 26 -6 -3 -7 -1 -3 5 4 6
3 19 -2 29 -6 10 -15 30 -22 45 -12 26 -43 45 -63 40 -5 -1 -6 2 -2 8 9 15
-15 42 -31 36 -7 -3 -18 3 -26 12 -12 15 -11 16 5 3 10 -8 17 -9 17 -3 0 6 -9
14 -20 17 -11 3 -20 11 -20 17 0 5 -7 7 -16 4 -8 -3 -13 -2 -10 3 8 12 -40 35
-55 26 -8 -5 -10 -4 -5 3 5 8 -21 26 -71 50 -43 21 -100 52 -126 69 -110 71
-468 212 -653 257 -32 8 -115 29 -184 46 -157 39 -326 79 -365 86 -16 3 -66
14 -110 24 -44 10 -125 28 -180 40 -400 87 -427 98 -470 187 -31 63 -38 69
-66 53z m-351 -206 c23 -3 42 -9 42 -13 0 -16 -132 -34 -209 -28 -125 9 -212
38 -148 50 28 5 257 -1 315 -9z m-711 -88 c54 -18 120 -43 148 -55 108 -48
435 -72 685 -52 129 11 159 17 275 57 146 51 205 63 205 43 0 -7 8 -21 17 -31
15 -17 15 -20 -9 -46 -14 -15 -33 -40 -43 -55 -10 -16 -36 -41 -59 -56 -68
-46 -124 -64 -381 -127 -40 -10 -128 -19 -207 -22 -114 -3 -154 -1 -240 17
-269 57 -401 111 -462 190 -21 28 -42 51 -47 51 -4 0 -13 9 -19 21 -9 16 -8
24 4 38 9 10 13 26 9 39 -7 30 6 29 124 -12z m2079 -100 c229 -51 403 -104
571 -177 195 -83 332 -179 334 -233 4 -73 1 -91 -18 -113 -10 -11 -27 -23 -38
-28 -43 -19 -132 -30 -175 -23 -55 10 -143 12 -167 4 -16 -5 -39 -63 -59 -148
-5 -24 -3 -28 15 -28 12 0 21 -4 21 -9 0 -17 -108 -121 -113 -108 -3 7 -6 4
-6 -5 -1 -10 -3 -18 -6 -18 -3 0 -70 -11 -148 -24 -468 -81 -972 -116 -1667
-116 -391 0 -880 16 -890 29 -3 3 -23 6 -45 6 -22 -1 -53 3 -69 7 -17 4 -50
10 -75 13 -26 3 -54 8 -63 11 -9 3 -25 6 -35 8 -106 21 -303 86 -323 106 -3 3
-32 16 -65 29 -33 13 -71 32 -85 41 -14 9 -36 20 -51 23 -45 11 -199 128 -199
152 0 6 -40 21 -90 34 -135 34 -218 69 -238 100 -9 14 -20 29 -25 32 -4 3 -3
17 2 31 5 14 8 34 7 44 -3 22 46 62 149 121 115 66 210 97 445 148 63 13 167
38 230 55 69 19 159 35 225 40 100 8 112 7 129 -10 29 -28 14 -65 -41 -100
-26 -17 -54 -30 -63 -30 -8 0 -25 -7 -37 -15 -12 -8 -44 -19 -71 -25 -27 -5
-107 -32 -178 -59 -107 -42 -137 -58 -171 -93 -53 -56 -58 -76 -28 -111 24
-27 29 -28 144 -34 100 -5 123 -3 142 11 29 20 98 21 163 1 52 -16 187 -18
326 -6 l75 7 -59 27 c-113 53 -183 117 -128 117 27 0 237 -29 333 -45 67 -12
187 -15 570 -15 492 0 547 3 793 40 132 19 176 19 176 0 0 -10 -59 -57 -115
-91 l-40 -24 54 -3 c29 -2 83 2 120 8 148 25 140 25 134 1 -6 -24 -19 -22 157
-21 192 1 448 19 469 32 37 23 -1 90 -85 149 -45 31 -213 101 -310 129 -62 18
-129 54 -153 84 -20 24 -28 21 -77 -29 -45 -47 -89 -60 -100 -30 -4 8 9 41 28
73 36 61 72 78 105 50 13 -10 17 -10 20 0 3 6 8 10 13 7 4 -3 14 2 21 11 12
14 31 16 139 11 69 -3 157 -12 196 -21z m1428 -589 c4 4 4 -1 0 -12 -7 -18 -8
-18 -17 3 -6 12 -14 22 -19 22 -5 0 -6 5 -2 11 4 8 11 4 18 -10 7 -12 15 -18
20 -14z m3 -59 c-3 -8 -6 -5 -6 6 -1 11 2 17 5 13 3 -3 4 -12 1 -19z m18 -78
c3 -6 -1 -7 -9 -4 -18 7 -21 14 -7 14 6 0 13 -4 16 -10z m-1030 -130 c-3 -5
-12 -10 -18 -10 -7 0 -6 4 3 10 19 12 23 12 15 0z m133 -132 c-5 -16 -176 -74
-238 -82 -25 -3 -64 -9 -87 -12 -24 -3 -51 -3 -60 1 -16 6 -15 8 7 17 25 10
154 45 200 55 31 6 162 30 173 32 5 1 7 -5 5 -11z m-1398 -103 c288 -5 378
-13 407 -37 12 -10 11 -14 -9 -25 -84 -47 -283 -70 -725 -83 -513 -15 -1067 5
-1276 46 -42 9 -90 18 -105 20 -15 3 -33 11 -41 19 -11 11 -9 15 15 28 28 14
137 34 219 40 55 4 1152 -2 1515 -8z"/>
<path d="M22591 7411 c-14 -9 -76 -14 -332 -27 -106 -5 -566 11 -615 21 -17 4
-23 -4 -38 -44 -9 -27 -27 -58 -39 -69 -19 -17 -91 -43 -192 -68 -16 -4 -32
-8 -35 -9 -3 -1 -23 -5 -45 -9 -22 -4 -65 -14 -95 -22 -30 -7 -190 -43 -355
-80 -794 -176 -1181 -325 -1373 -528 -29 -31 -60 -73 -68 -93 -8 -21 -22 -53
-30 -71 -9 -18 -18 -47 -21 -65 -5 -37 11 -88 28 -85 6 2 14 -4 16 -12 4 -13
3 -13 -6 0 -6 8 -11 11 -11 7 0 -15 37 -57 44 -50 3 3 6 1 6 -6 0 -18 39 -56
58 -56 10 0 16 -6 14 -15 -2 -8 -1 -12 3 -8 11 10 106 -42 99 -54 -5 -7 -2 -8
5 -4 15 10 73 -13 65 -25 -3 -5 3 -6 12 -2 11 4 15 2 11 -4 -4 -6 0 -14 9 -17
8 -3 12 -2 9 4 -8 14 -2 13 31 -5 16 -8 37 -15 46 -15 9 0 20 -5 23 -10 4 -6
10 -8 15 -5 5 3 14 0 22 -7 14 -13 29 -19 60 -21 10 -1 18 -5 18 -9 0 -4 7 -5
15 -2 8 4 15 1 15 -5 0 -6 7 -8 16 -4 10 4 22 0 28 -9 6 -9 45 -23 86 -33 41
-9 89 -21 105 -26 17 -4 46 -11 65 -14 19 -3 80 -15 135 -25 232 -45 825 -115
825 -98 0 4 16 8 35 8 19 0 35 -4 35 -10 0 -5 5 -10 11 -10 5 0 7 5 4 10 -3 6
3 10 14 10 11 0 22 -4 26 -10 3 -5 13 -6 21 -3 9 3 20 0 25 -8 5 -8 9 -9 9 -3
0 7 24 10 73 8 39 -2 122 -4 182 -5 78 -1 117 -5 134 -16 13 -8 21 -10 17 -5
-5 8 96 11 324 11 224 0 330 -3 330 -10 0 -7 32 -9 98 -5 53 3 167 8 252 11
165 6 426 26 655 51 187 19 194 21 210 34 8 6 20 8 26 4 8 -4 9 -3 5 4 -4 8 4
10 26 7 18 -2 38 1 45 7 8 6 29 8 51 5 26 -5 33 -4 22 3 -11 8 -7 10 20 11 85
1 100 2 100 9 0 4 6 7 13 7 21 1 81 12 105 19 15 4 22 2 22 -7 1 -9 4 -8 11 4
8 14 14 15 31 6 11 -6 18 -7 15 -2 -7 11 119 46 133 38 6 -4 10 -1 10 6 0 6 8
9 20 6 11 -3 20 -1 20 5 0 6 7 8 15 5 8 -4 17 -2 20 2 2 5 18 7 35 6 16 -1 27
1 25 6 -3 4 14 13 37 19 66 18 220 71 251 87 15 7 33 11 39 7 7 -5 8 -3 3 6
-6 10 -4 12 9 7 10 -4 15 -3 11 3 -3 6 -1 10 6 10 7 0 21 8 31 17 15 14 21 15
27 4 10 -16 33 -5 104 47 49 38 102 106 92 122 -3 5 -1 11 4 14 10 6 8 69 -3
99 -3 9 -8 24 -11 33 -5 14 -8 14 -23 3 -15 -13 -16 -12 -3 4 8 9 11 21 7 24
-4 4 -11 1 -15 -6 -6 -9 -11 -10 -15 -2 -4 6 -2 11 3 11 6 0 11 5 11 11 0 6
-7 9 -14 6 -10 -4 -13 -1 -9 9 5 13 -8 19 -30 15 -5 -1 -6 3 -3 8 3 5 -9 21
-26 36 -18 14 -41 33 -51 41 -10 9 -67 39 -125 68 -59 29 -140 72 -180 95 -78
45 -245 116 -382 163 -89 30 -356 107 -399 115 -14 2 -71 15 -125 29 -54 14
-243 56 -419 95 -424 92 -506 113 -554 144 -12 8 -32 42 -44 75 -22 60 -31 68
-58 51z m-363 -206 c23 -4 42 -10 42 -15 0 -36 -296 -35 -364 2 -21 12 -21 12
4 18 28 7 252 3 318 -5z m-706 -91 c57 -21 132 -47 168 -60 105 -36 215 -48
475 -47 274 0 330 8 506 73 117 42 159 49 159 26 0 -8 7 -16 15 -20 21 -7 19
-42 -3 -58 -10 -7 -35 -34 -56 -61 -62 -76 -170 -119 -436 -173 -224 -45 -383
-32 -660 53 -151 46 -163 53 -242 136 -65 68 -81 98 -57 113 6 3 8 17 5 30 -9
32 3 31 126 -12z m2201 -129 c274 -71 441 -132 597 -219 131 -73 183 -124 183
-181 0 -57 -12 -79 -58 -109 -47 -29 -79 -32 -270 -24 -53 2 -96 -10 -94 -25
2 -12 -3 -29 -21 -72 -5 -11 -10 -35 -13 -52 -3 -27 0 -33 15 -33 26 0 23 -11
-16 -56 -18 -21 -34 -43 -34 -49 0 -5 -10 -13 -22 -17 -15 -6 -19 -4 -15 5 4
6 -1 3 -9 -7 -9 -11 -19 -17 -22 -13 -4 3 -14 2 -24 -3 -43 -23 -455 -79 -763
-105 -582 -47 -1693 -48 -1937 -1 -41 8 -118 22 -170 31 -166 29 -356 90 -522
168 -40 19 -94 44 -120 56 -27 12 -48 25 -48 30 0 5 -8 12 -17 15 -10 3 -44
31 -76 61 -31 30 -65 55 -74 55 -24 0 -118 29 -191 58 -73 29 -116 73 -106
106 4 11 8 32 10 46 2 21 18 39 69 78 113 87 250 139 506 192 77 16 143 31
147 34 28 17 229 59 318 66 93 7 111 6 130 -8 13 -10 24 -22 24 -29 0 -22 -49
-70 -92 -87 -24 -10 -61 -27 -84 -37 -23 -10 -50 -19 -61 -19 -19 0 -183 -59
-273 -98 -74 -32 -139 -116 -119 -154 5 -10 16 -18 24 -18 7 0 15 -4 17 -10 2
-5 54 -12 115 -15 90 -5 117 -3 135 9 38 25 82 27 155 7 60 -15 97 -17 242
-13 143 4 169 7 160 18 -6 8 -17 14 -24 14 -16 0 -134 66 -155 86 -10 10 -11
17 -3 25 11 11 171 -6 345 -36 65 -12 189 -15 573 -15 474 0 558 4 765 35 159
24 169 25 185 19 33 -13 10 -38 -89 -101 l-51 -33 61 0 c34 0 101 7 150 15 99
18 124 15 103 -12 -13 -15 2 -16 196 -8 116 4 254 9 309 10 82 3 102 7 118 23
26 26 17 54 -34 103 -55 52 -209 125 -343 164 -66 18 -151 63 -179 93 -16 19
-18 18 -67 -30 -39 -39 -56 -49 -77 -46 -28 3 -31 17 -11 62 31 70 44 81 95
81 27 0 58 6 69 13 15 10 55 12 155 8 119 -4 156 -10 313 -51z m1217 -477 c0
-12 -6 -9 -26 13 -19 22 -19 22 4 8 12 -8 22 -17 22 -21z m100 -112 c0 -3 -4
-8 -10 -11 -5 -3 -10 -1 -10 4 0 6 5 11 10 11 6 0 10 -2 10 -4z m-880 -365 c0
-12 -92 -47 -186 -71 -87 -23 -214 -36 -214 -23 0 22 172 67 393 102 4 0 7 -3
7 -8z m-1410 -106 c157 -2 301 -7 320 -10 50 -9 100 -25 100 -34 0 -29 -135
-64 -315 -81 -277 -28 -1002 -32 -1370 -9 -302 18 -510 57 -490 89 10 17 113
42 203 49 87 7 1016 5 1552 -4z"/>
<path d="M33830 6248 c0 -4 4 -8 9 -8 6 0 12 4 15 8 3 5 -1 9 -9 9 -8 0 -15
-4 -15 -9z"/>
<path d="M14688 5743 c7 -3 16 -2 19 1 4 3 -2 6 -13 5 -11 0 -14 -3 -6 -6z"/>
<path d="M41018 5743 c7 -3 16 -2 19 1 4 3 -2 6 -13 5 -11 0 -14 -3 -6 -6z"/>
<path d="M38988 5723 c7 -3 16 -2 19 1 4 3 -2 6 -13 5 -11 0 -14 -3 -6 -6z"/>
</g>
</svg>
