<svg width="58" height="12" viewBox="0 0 58 12" fill="none" xmlns="http://www.w3.org/2000/svg">
<path d="M9.13477 5.76953C9.13477 6.17969 9.08008 6.57031 8.9707 6.94141C8.86133 7.30859 8.70703 7.64844 8.50781 7.96094C8.3125 8.27344 8.07812 8.55664 7.80469 8.81055C7.53125 9.06055 7.22852 9.27344 6.89648 9.44922C6.56836 9.625 6.21484 9.76172 5.83594 9.85938C5.46094 9.95312 5.07422 10 4.67578 10H0.955078V1.5625H4.67578C5.07422 1.5625 5.46094 1.60938 5.83594 1.70312C6.21094 1.79688 6.5625 1.93164 6.89062 2.10742C7.22266 2.2793 7.52539 2.49023 7.79883 2.74023C8.07617 2.99023 8.3125 3.27148 8.50781 3.58398C8.70703 3.89258 8.86133 4.23242 8.9707 4.60352C9.08008 4.9707 9.13477 5.35938 9.13477 5.76953ZM6.77344 5.76953C6.77344 5.3125 6.7168 4.87891 6.60352 4.46875C6.49414 4.05469 6.32227 3.69141 6.08789 3.37891C5.85352 3.06641 5.55469 2.81836 5.19141 2.63477C4.83203 2.45117 4.40039 2.35938 3.89648 2.35938H3.28125V9.17969H3.89648C4.39258 9.17969 4.82031 9.08789 5.17969 8.9043C5.54297 8.7168 5.8418 8.4668 6.07617 8.1543C6.31445 7.83789 6.49023 7.47461 6.60352 7.06445C6.7168 6.6543 6.77344 6.22266 6.77344 5.76953ZM16.0957 3.83008L14.9824 5.67578C14.9355 5.51953 14.875 5.34375 14.8008 5.14844C14.7266 4.95312 14.6348 4.77148 14.5254 4.60352C14.416 4.43164 14.2852 4.28906 14.1328 4.17578C13.9805 4.05859 13.8047 4 13.6055 4C13.4219 4 13.2617 4.04688 13.125 4.14062C12.9922 4.23438 12.8789 4.35742 12.7852 4.50977C12.6914 4.6582 12.6133 4.82812 12.5508 5.01953C12.4922 5.20703 12.4453 5.39844 12.4102 5.59375C12.3789 5.78516 12.3574 5.9707 12.3457 6.15039C12.334 6.32617 12.3281 6.47852 12.3281 6.60742V10H10.3418V3.23242H11.1035L11.9062 4.80859C12.0156 4.55469 12.1406 4.32227 12.2812 4.11133C12.4219 3.89648 12.584 3.71289 12.7676 3.56055C12.9512 3.4043 13.1582 3.2832 13.3887 3.19727C13.623 3.11133 13.8867 3.06836 14.1797 3.06836C14.332 3.06836 14.502 3.08203 14.6895 3.10938C14.877 3.13281 15.0605 3.17578 15.2402 3.23828C15.4199 3.29688 15.5859 3.375 15.7383 3.47266C15.8906 3.57031 16.0098 3.68945 16.0957 3.83008ZM19.0078 1.59766C19.0078 1.74609 18.9785 1.88672 18.9199 2.01953C18.8652 2.15234 18.7891 2.26758 18.6914 2.36523C18.5938 2.46289 18.4785 2.54102 18.3457 2.59961C18.2129 2.6543 18.0723 2.68164 17.9238 2.68164C17.7754 2.68164 17.6348 2.6543 17.502 2.59961C17.373 2.54102 17.2598 2.46289 17.1621 2.36523C17.0645 2.26758 16.9863 2.15234 16.9277 2.01953C16.873 1.88672 16.8457 1.74609 16.8457 1.59766C16.8457 1.44922 16.873 1.31055 16.9277 1.18164C16.9863 1.04883 17.0645 0.933594 17.1621 0.835938C17.2598 0.738281 17.373 0.662109 17.502 0.607422C17.6348 0.548828 17.7754 0.519531 17.9238 0.519531C18.0723 0.519531 18.2129 0.548828 18.3457 0.607422C18.4785 0.662109 18.5938 0.738281 18.6914 0.835938C18.7891 0.933594 18.8652 1.04883 18.9199 1.18164C18.9785 1.31055 19.0078 1.44922 19.0078 1.59766ZM18.9199 10H16.9336V3.23828H18.9199V10ZM27.5039 6.12109C27.5039 6.57812 27.4473 7.05469 27.334 7.55078C27.2246 8.04688 27.0703 8.5332 26.8711 9.00977C26.6719 9.48633 26.4336 9.93359 26.1562 10.3516C25.8789 10.7734 25.5742 11.1367 25.2422 11.4414L24.498 11.0371C24.6035 10.8418 24.7031 10.623 24.7969 10.3809C24.8906 10.1387 24.9746 9.88281 25.0488 9.61328C25.127 9.33984 25.1953 9.05859 25.2539 8.76953C25.3164 8.48047 25.3672 8.19531 25.4062 7.91406C25.4492 7.62891 25.4805 7.35352 25.5 7.08789C25.5234 6.81836 25.5352 6.56836 25.5352 6.33789C25.5352 6.18555 25.5293 6.02344 25.5176 5.85156C25.5059 5.67578 25.4805 5.50195 25.4414 5.33008C25.4062 5.1543 25.3574 4.98633 25.2949 4.82617C25.2324 4.66602 25.1484 4.52539 25.043 4.4043C24.9414 4.2832 24.8164 4.18555 24.668 4.11133C24.5234 4.03711 24.3516 4 24.1523 4C23.957 4 23.7832 4.04492 23.6309 4.13477C23.4785 4.2207 23.3438 4.33594 23.2266 4.48047C23.1094 4.62109 23.0078 4.7832 22.9219 4.9668C22.8398 5.15039 22.7715 5.33984 22.7168 5.53516C22.666 5.72656 22.6289 5.91602 22.6055 6.10352C22.582 6.29102 22.5703 6.45898 22.5703 6.60742V10H20.584V3.23242H21.3457L22.2539 4.80859C22.3633 4.54688 22.5 4.30859 22.6641 4.09375C22.8281 3.87891 23.0137 3.69531 23.2207 3.54297C23.4277 3.39062 23.6562 3.27344 23.9062 3.19141C24.1602 3.10938 24.4336 3.06836 24.7266 3.06836C25.1953 3.06836 25.6035 3.14453 25.9512 3.29688C26.2988 3.44922 26.5879 3.66211 26.8184 3.93555C27.0488 4.20508 27.2207 4.52734 27.334 4.90234C27.4473 5.27344 27.5039 5.67969 27.5039 6.12109ZM30.791 10H28.8105V0.742188H30.791V6.81836C31.1152 6.58398 31.4336 6.32617 31.7461 6.04492C32.0625 5.76367 32.3633 5.46875 32.6484 5.16016C32.9336 4.84766 33.1973 4.5293 33.4395 4.20508C33.6855 3.88086 33.9004 3.55664 34.084 3.23242H35.4316C35.1582 3.69336 34.834 4.1543 34.459 4.61523C34.084 5.07227 33.6758 5.50977 33.2344 5.92773L35.4551 10H33.2695L31.6934 7.17578C31.4004 7.375 31.0996 7.55859 30.791 7.72656V10ZM38.9414 10H36.6152V1.5625H42.6738V2.64062H38.9414V5.24805H41.8242V6.32031H38.9414V10ZM50.1797 10H48.1992V9.19141C47.9648 9.51172 47.6816 9.75 47.3496 9.90625C47.0215 10.0586 46.6602 10.1348 46.2656 10.1348C45.75 10.1348 45.2891 10.043 44.8828 9.85938C44.4766 9.67578 44.1328 9.42578 43.8516 9.10938C43.5703 8.78906 43.3555 8.41406 43.207 7.98438C43.0586 7.55469 42.9844 7.09375 42.9844 6.60156C42.9844 6.10938 43.0586 5.64844 43.207 5.21875C43.3555 4.78906 43.5703 4.41602 43.8516 4.09961C44.1328 3.7793 44.4766 3.52734 44.8828 3.34375C45.2891 3.16016 45.75 3.06836 46.2656 3.06836C46.5273 3.06836 46.7754 3.10742 47.0098 3.18555C47.248 3.26367 47.4648 3.375 47.6602 3.51953C47.8594 3.66016 48.0332 3.83203 48.1816 4.03516C48.334 4.23438 48.4531 4.45703 48.5391 4.70312L49.418 3.23242H50.1797V10ZM48.1875 6.60156C48.1875 6.42578 48.1777 6.24023 48.1582 6.04492C48.1426 5.84961 48.1133 5.65625 48.0703 5.46484C48.0273 5.27344 47.9668 5.0918 47.8887 4.91992C47.8145 4.74414 47.7168 4.58984 47.5957 4.45703C47.4785 4.32031 47.3359 4.21289 47.168 4.13477C47 4.05664 46.8047 4.01758 46.582 4.01758C46.3594 4.01758 46.166 4.05859 46.002 4.14062C45.8379 4.21875 45.6973 4.32617 45.5801 4.46289C45.4629 4.5957 45.3652 4.75 45.2871 4.92578C45.2129 5.10156 45.1543 5.28516 45.1113 5.47656C45.0684 5.66797 45.0371 5.86133 45.0176 6.05664C45.002 6.24805 44.9941 6.42969 44.9941 6.60156C44.9941 6.77344 45.002 6.95703 45.0176 7.15234C45.0371 7.34766 45.0684 7.54102 45.1113 7.73242C45.1543 7.92383 45.2129 8.10742 45.2871 8.2832C45.3652 8.45898 45.4629 8.61523 45.5801 8.75195C45.6973 8.88477 45.8379 8.99219 46.002 9.07422C46.166 9.15234 46.3594 9.19141 46.582 9.19141C46.7852 9.19141 46.9648 9.15039 47.1211 9.06836C47.2812 8.98242 47.4199 8.86914 47.5371 8.72852C47.6582 8.58789 47.7598 8.42773 47.8418 8.24805C47.9238 8.06836 47.9902 7.88281 48.041 7.69141C48.0918 7.5 48.1289 7.31055 48.1523 7.12305C48.1758 6.93164 48.1875 6.75781 48.1875 6.60156ZM55.3184 10H53.5371L51.0762 3.23242H53.0566L54.8613 8.62305L56.6133 3.23242H57.9844L55.3184 10Z" fill="#6B57EB"/>
</svg>
