<svg width="8" height="10" viewBox="0 0 8 10" fill="none" xmlns="http://www.w3.org/2000/svg">
<path d="M6.76144 0.0156253C6.56421 0.0867773 6.43272 0.262565 6.41018 0.484391C6.39891 0.591119 6.39327 0.597397 5.97439 1.09965L5.54987 1.60608L2.8957 1.60817C-0.0571409 1.60817 0.16451 1.59771 0.0611981 1.74838C0.0067246 1.82791 -0.0176946 1.99951 0.0142382 2.0895C0.0236302 2.11879 0.853882 3.29489 1.85695 4.70538L3.68087 7.26685V8.27762V9.2884H3.07603H2.47306L2.39229 9.34072C2.30964 9.39513 2.2345 9.52906 2.2345 9.62533C2.2345 9.77391 2.32654 9.92668 2.44676 9.9769C2.48245 9.99364 2.98962 9.99992 4.00583 9.99992C5.687 9.99992 5.58181 10.0083 5.69451 9.85343C5.81097 9.6902 5.76965 9.44745 5.6081 9.34072L5.52733 9.2884H4.92437H4.31952V8.27762V7.26685L6.13781 4.71166C7.139 3.30745 7.96737 2.12716 7.9824 2.09159C8.01809 1.99532 7.99743 1.83419 7.9392 1.74838C7.84528 1.61027 7.834 1.60817 7.10143 1.60817C6.7389 1.60817 6.44211 1.6019 6.44211 1.59562C6.44211 1.58934 6.53979 1.46587 6.66001 1.32357C6.8516 1.09755 6.88729 1.06407 6.93989 1.06407C7.01878 1.06407 7.18032 0.971991 7.24231 0.890376C7.39446 0.689476 7.40197 0.406961 7.25922 0.197691C7.16154 0.0553867 6.90796 -0.038785 6.76144 0.0156253ZM4.87929 2.39922C4.84548 2.44526 4.6783 2.64616 4.50736 2.84915L4.19743 3.21956H2.92951H1.66159L1.60336 3.14003C1.57331 3.09818 1.42304 2.89519 1.27089 2.6901L0.994761 2.31969H2.96896H4.94315L4.87929 2.39922ZM6.72199 2.70057C6.56609 2.91193 6.41394 3.11492 6.38764 3.15259L6.33692 3.21956L5.70954 3.21537L5.08403 3.20909L5.45595 2.76335L5.82788 2.31969H6.41769H7.00563L6.72199 2.70057Z" fill="#6B57EB"/>
</svg>
