<svg width="12" height="12" viewBox="0 0 12 12" fill="none" xmlns="http://www.w3.org/2000/svg">
<circle cx="6" cy="6" r="5.5" stroke="#F75A68"/>
<path d="M8.76144 1.01562C8.56421 1.08678 8.43272 1.26256 8.41018 1.48439C8.39891 1.59112 8.39327 1.5974 7.97439 2.09965L7.54987 2.60608L4.8957 2.60817C1.94286 2.60817 2.16451 2.59771 2.0612 2.74839C2.00672 2.82791 1.98231 2.99951 2.01424 3.0895C2.02363 3.11879 2.85388 4.29489 3.85695 5.70538L5.68087 8.26685V9.27762V10.2884H5.07603H4.47306L4.39229 10.3407C4.30964 10.3951 4.2345 10.5291 4.2345 10.6253C4.2345 10.7739 4.32654 10.9267 4.44676 10.9769C4.48245 10.9936 4.98962 10.9999 6.00583 10.9999C7.687 10.9999 7.58181 11.0083 7.69451 10.8534C7.81097 10.6902 7.76965 10.4474 7.6081 10.3407L7.52733 10.2884H6.92437H6.31952V9.27762V8.26685L8.13781 5.71166C9.139 4.30745 9.96737 3.12716 9.9824 3.09159C10.0181 2.99532 9.99743 2.83419 9.9392 2.74839C9.84528 2.61027 9.834 2.60817 9.10143 2.60817C8.7389 2.60817 8.44211 2.6019 8.44211 2.59562C8.44211 2.58934 8.53979 2.46587 8.66001 2.32357C8.8516 2.09755 8.88729 2.06407 8.93989 2.06407C9.01878 2.06407 9.18032 1.97199 9.24231 1.89038C9.39446 1.68948 9.40197 1.40696 9.25922 1.19769C9.16154 1.05539 8.90796 0.961215 8.76144 1.01562ZM6.87929 3.39922C6.84548 3.44526 6.6783 3.64616 6.50736 3.84915L6.19743 4.21956H4.92951H3.66159L3.60336 4.14003C3.57331 4.09818 3.42304 3.89519 3.27089 3.6901L2.99476 3.31969H4.96896H6.94315L6.87929 3.39922ZM8.72199 3.70057C8.56609 3.91193 8.41394 4.11492 8.38764 4.15259L8.33692 4.21956L7.70954 4.21537L7.08403 4.20909L7.45595 3.76335L7.82788 3.31969H8.41769H9.00563L8.72199 3.70057Z" fill="#6B57EB"/>
<line x1="10.3293" y1="2.37629" x2="2.32925" y2="9.37629" stroke="#F75A68"/>
</svg>
