<svg width="25" height="24" viewBox="0 0 25 24" fill="none" xmlns="http://www.w3.org/2000/svg">
<path d="M17.5898 3C15.6498 3 13.9513 3.8325 12.8926 5.23969C11.8338 3.8325 10.1353 3 8.19538 3C6.65116 3.00174 5.17067 3.61468 4.07874 4.70436C2.9868 5.79404 2.37259 7.27146 2.37085 8.8125C2.37085 15.375 12.1213 20.6869 12.5365 20.9062C12.646 20.965 12.7683 20.9958 12.8926 20.9958C13.0169 20.9958 13.1392 20.965 13.2486 20.9062C13.6639 20.6869 23.4143 15.375 23.4143 8.8125C23.4126 7.27146 22.7984 5.79404 21.7064 4.70436C20.6145 3.61468 19.134 3.00174 17.5898 3ZM12.8926 19.3875C11.1772 18.39 3.87396 13.8459 3.87396 8.8125C3.87545 7.66921 4.33122 6.57317 5.14132 5.76475C5.95142 4.95632 7.04973 4.50149 8.19538 4.5C10.0226 4.5 11.5567 5.47125 12.1974 7.03125C12.254 7.16881 12.3503 7.28646 12.4741 7.36926C12.5979 7.45207 12.7436 7.49627 12.8926 7.49627C13.0416 7.49627 13.1873 7.45207 13.311 7.36926C13.4348 7.28646 13.5312 7.16881 13.5878 7.03125C14.2285 5.46844 15.7626 4.5 17.5898 4.5C18.7355 4.50149 19.8338 4.95632 20.6439 5.76475C21.454 6.57317 21.9097 7.66921 21.9112 8.8125C21.9112 13.8384 14.6061 18.3891 12.8926 19.3875Z" fill="#484848"/>
</svg>
