<svg width="184" height="72" viewBox="0 0 184 72" fill="none" xmlns="http://www.w3.org/2000/svg">
<rect width="184" height="72" fill="#7159C1"/>
<path d="M43.2617 26.9375V44H39.7578V26.9375H43.2617ZM49.6484 34.0273V44H46.2734V31.3203H49.4375L49.6484 34.0273ZM49.1562 37.2148H48.2422C48.2422 36.2773 48.3633 35.4336 48.6055 34.6836C48.8477 33.9258 49.1875 33.2812 49.625 32.75C50.0625 32.2109 50.582 31.8008 51.1836 31.5195C51.793 31.2305 52.4727 31.0859 53.2227 31.0859C53.8164 31.0859 54.3594 31.1719 54.8516 31.3438C55.3438 31.5156 55.7656 31.7891 56.1172 32.1641C56.4766 32.5391 56.75 33.0352 56.9375 33.6523C57.1328 34.2695 57.2305 35.0234 57.2305 35.9141V44H53.832V35.9023C53.832 35.3398 53.7539 34.9023 53.5977 34.5898C53.4414 34.2773 53.2109 34.0586 52.9062 33.9336C52.6094 33.8008 52.2422 33.7344 51.8047 33.7344C51.3516 33.7344 50.957 33.8242 50.6211 34.0039C50.293 34.1836 50.0195 34.4336 49.8008 34.7539C49.5898 35.0664 49.4297 35.4336 49.3203 35.8555C49.2109 36.2773 49.1562 36.7305 49.1562 37.2148ZM67.2852 41.2344V26H70.6836V44H67.625L67.2852 41.2344ZM59.2695 37.8125V37.5664C59.2695 36.5977 59.3789 35.7188 59.5977 34.9297C59.8164 34.1328 60.1367 33.4492 60.5586 32.8789C60.9805 32.3086 61.5 31.8672 62.1172 31.5547C62.7344 31.2422 63.4375 31.0859 64.2266 31.0859C64.9688 31.0859 65.6172 31.2422 66.1719 31.5547C66.7344 31.8672 67.2109 32.3125 67.6016 32.8906C68 33.4609 68.3203 34.1367 68.5625 34.918C68.8047 35.6914 68.9805 36.5391 69.0898 37.4609V38C68.9805 38.8828 68.8047 39.7031 68.5625 40.4609C68.3203 41.2188 68 41.8828 67.6016 42.4531C67.2109 43.0156 66.7344 43.4531 66.1719 43.7656C65.6094 44.0781 64.9531 44.2344 64.2031 44.2344C63.4141 44.2344 62.7109 44.0742 62.0938 43.7539C61.4844 43.4336 60.9688 42.9844 60.5469 42.4062C60.1328 41.8281 59.8164 41.1484 59.5977 40.3672C59.3789 39.5859 59.2695 38.7344 59.2695 37.8125ZM62.6445 37.5664V37.8125C62.6445 38.3359 62.6836 38.8242 62.7617 39.2773C62.8477 39.7305 62.9844 40.1328 63.1719 40.4844C63.3672 40.8281 63.6172 41.0977 63.9219 41.293C64.2344 41.4805 64.6133 41.5742 65.0586 41.5742C65.6367 41.5742 66.1133 41.4453 66.4883 41.1875C66.8633 40.9219 67.1484 40.5586 67.3438 40.0977C67.5469 39.6367 67.6641 39.1055 67.6953 38.5039V36.9688C67.6719 36.4766 67.6016 36.0352 67.4844 35.6445C67.375 35.2461 67.2109 34.9062 66.9922 34.625C66.7812 34.3438 66.5156 34.125 66.1953 33.9688C65.8828 33.8125 65.5117 33.7344 65.082 33.7344C64.6445 33.7344 64.2695 33.8359 63.957 34.0391C63.6445 34.2344 63.3906 34.5039 63.1953 34.8477C63.0078 35.1914 62.8672 35.5977 62.7734 36.0664C62.6875 36.5273 62.6445 37.0273 62.6445 37.5664ZM76.8828 31.3203V44H73.4961V31.3203H76.8828ZM73.2852 28.0156C73.2852 27.5234 73.457 27.1172 73.8008 26.7969C74.1445 26.4766 74.6055 26.3164 75.1836 26.3164C75.7539 26.3164 76.2109 26.4766 76.5547 26.7969C76.9062 27.1172 77.082 27.5234 77.082 28.0156C77.082 28.5078 76.9062 28.9141 76.5547 29.2344C76.2109 29.5547 75.7539 29.7148 75.1836 29.7148C74.6055 29.7148 74.1445 29.5547 73.8008 29.2344C73.457 28.9141 73.2852 28.5078 73.2852 28.0156ZM85.5078 44.2344C84.5234 44.2344 83.6406 44.0781 82.8594 43.7656C82.0781 43.4453 81.4141 43.0039 80.8672 42.4414C80.3281 41.8789 79.9141 41.2266 79.625 40.4844C79.3359 39.7344 79.1914 38.9375 79.1914 38.0938V37.625C79.1914 36.6641 79.3281 35.7852 79.6016 34.9883C79.875 34.1914 80.2656 33.5 80.7734 32.9141C81.2891 32.3281 81.9141 31.8789 82.6484 31.5664C83.3828 31.2461 84.2109 31.0859 85.1328 31.0859C86.0312 31.0859 86.8281 31.2344 87.5234 31.5312C88.2188 31.8281 88.8008 32.25 89.2695 32.7969C89.7461 33.3438 90.1055 34 90.3477 34.7656C90.5898 35.5234 90.7109 36.3672 90.7109 37.2969V38.7031H80.6328V36.4531H87.3945V36.1953C87.3945 35.7266 87.3086 35.3086 87.1367 34.9414C86.9727 34.5664 86.7227 34.2695 86.3867 34.0508C86.0508 33.832 85.6211 33.7227 85.0977 33.7227C84.6523 33.7227 84.2695 33.8203 83.9492 34.0156C83.6289 34.2109 83.3672 34.4844 83.1641 34.8359C82.9688 35.1875 82.8203 35.6016 82.7188 36.0781C82.625 36.5469 82.5781 37.0625 82.5781 37.625V38.0938C82.5781 38.6016 82.6484 39.0703 82.7891 39.5C82.9375 39.9297 83.1445 40.3008 83.4102 40.6133C83.6836 40.9258 84.0117 41.168 84.3945 41.3398C84.7852 41.5117 85.2266 41.5977 85.7188 41.5977C86.3281 41.5977 86.8945 41.4805 87.418 41.2461C87.9492 41.0039 88.4062 40.6406 88.7891 40.1562L90.4297 41.9375C90.1641 42.3203 89.8008 42.6875 89.3398 43.0391C88.8867 43.3906 88.3398 43.6797 87.6992 43.9062C87.0586 44.125 86.3281 44.2344 85.5078 44.2344ZM103.812 41.2578V44H95.2227V41.2578H103.812ZM96.3594 26.9375V44H92.8438V26.9375H96.3594ZM112.461 41.1406V35.4922C112.461 35.0859 112.395 34.7383 112.262 34.4492C112.129 34.1523 111.922 33.9219 111.641 33.7578C111.367 33.5938 111.012 33.5117 110.574 33.5117C110.199 33.5117 109.875 33.5781 109.602 33.7109C109.328 33.8359 109.117 34.0195 108.969 34.2617C108.82 34.4961 108.746 34.7734 108.746 35.0938H105.371C105.371 34.5547 105.496 34.043 105.746 33.5586C105.996 33.0742 106.359 32.6484 106.836 32.2812C107.312 31.9062 107.879 31.6133 108.535 31.4023C109.199 31.1914 109.941 31.0859 110.762 31.0859C111.746 31.0859 112.621 31.25 113.387 31.5781C114.152 31.9062 114.754 32.3984 115.191 33.0547C115.637 33.7109 115.859 34.5312 115.859 35.5156V40.9414C115.859 41.6367 115.902 42.207 115.988 42.6523C116.074 43.0898 116.199 43.4727 116.363 43.8008V44H112.953C112.789 43.6562 112.664 43.2266 112.578 42.7109C112.5 42.1875 112.461 41.6641 112.461 41.1406ZM112.906 36.2773L112.93 38.1875H111.043C110.598 38.1875 110.211 38.2383 109.883 38.3398C109.555 38.4414 109.285 38.5859 109.074 38.7734C108.863 38.9531 108.707 39.1641 108.605 39.4062C108.512 39.6484 108.465 39.9141 108.465 40.2031C108.465 40.4922 108.531 40.7539 108.664 40.9883C108.797 41.2148 108.988 41.3945 109.238 41.5273C109.488 41.6523 109.781 41.7148 110.117 41.7148C110.625 41.7148 111.066 41.6133 111.441 41.4102C111.816 41.207 112.105 40.957 112.309 40.6602C112.52 40.3633 112.629 40.082 112.637 39.8164L113.527 41.2461C113.402 41.5664 113.23 41.8984 113.012 42.2422C112.801 42.5859 112.531 42.9102 112.203 43.2148C111.875 43.5117 111.48 43.7578 111.02 43.9531C110.559 44.1406 110.012 44.2344 109.379 44.2344C108.574 44.2344 107.844 44.0742 107.188 43.7539C106.539 43.4258 106.023 42.9766 105.641 42.4062C105.266 41.8281 105.078 41.1719 105.078 40.4375C105.078 39.7734 105.203 39.1836 105.453 38.668C105.703 38.1523 106.07 37.7188 106.555 37.3672C107.047 37.0078 107.66 36.7383 108.395 36.5586C109.129 36.3711 109.98 36.2773 110.949 36.2773H112.906ZM121.766 34.0273V44H118.391V31.3203H121.555L121.766 34.0273ZM121.273 37.2148H120.359C120.359 36.2773 120.48 35.4336 120.723 34.6836C120.965 33.9258 121.305 33.2812 121.742 32.75C122.18 32.2109 122.699 31.8008 123.301 31.5195C123.91 31.2305 124.59 31.0859 125.34 31.0859C125.934 31.0859 126.477 31.1719 126.969 31.3438C127.461 31.5156 127.883 31.7891 128.234 32.1641C128.594 32.5391 128.867 33.0352 129.055 33.6523C129.25 34.2695 129.348 35.0234 129.348 35.9141V44H125.949V35.9023C125.949 35.3398 125.871 34.9023 125.715 34.5898C125.559 34.2773 125.328 34.0586 125.023 33.9336C124.727 33.8008 124.359 33.7344 123.922 33.7344C123.469 33.7344 123.074 33.8242 122.738 34.0039C122.41 34.1836 122.137 34.4336 121.918 34.7539C121.707 35.0664 121.547 35.4336 121.438 35.8555C121.328 36.2773 121.273 36.7305 121.273 37.2148ZM139.402 41.2344V26H142.801V44H139.742L139.402 41.2344ZM131.387 37.8125V37.5664C131.387 36.5977 131.496 35.7188 131.715 34.9297C131.934 34.1328 132.254 33.4492 132.676 32.8789C133.098 32.3086 133.617 31.8672 134.234 31.5547C134.852 31.2422 135.555 31.0859 136.344 31.0859C137.086 31.0859 137.734 31.2422 138.289 31.5547C138.852 31.8672 139.328 32.3125 139.719 32.8906C140.117 33.4609 140.438 34.1367 140.68 34.918C140.922 35.6914 141.098 36.5391 141.207 37.4609V38C141.098 38.8828 140.922 39.7031 140.68 40.4609C140.438 41.2188 140.117 41.8828 139.719 42.4531C139.328 43.0156 138.852 43.4531 138.289 43.7656C137.727 44.0781 137.07 44.2344 136.32 44.2344C135.531 44.2344 134.828 44.0742 134.211 43.7539C133.602 43.4336 133.086 42.9844 132.664 42.4062C132.25 41.8281 131.934 41.1484 131.715 40.3672C131.496 39.5859 131.387 38.7344 131.387 37.8125ZM134.762 37.5664V37.8125C134.762 38.3359 134.801 38.8242 134.879 39.2773C134.965 39.7305 135.102 40.1328 135.289 40.4844C135.484 40.8281 135.734 41.0977 136.039 41.293C136.352 41.4805 136.73 41.5742 137.176 41.5742C137.754 41.5742 138.23 41.4453 138.605 41.1875C138.98 40.9219 139.266 40.5586 139.461 40.0977C139.664 39.6367 139.781 39.1055 139.812 38.5039V36.9688C139.789 36.4766 139.719 36.0352 139.602 35.6445C139.492 35.2461 139.328 34.9062 139.109 34.625C138.898 34.3438 138.633 34.125 138.312 33.9688C138 33.8125 137.629 33.7344 137.199 33.7344C136.762 33.7344 136.387 33.8359 136.074 34.0391C135.762 34.2344 135.508 34.5039 135.312 34.8477C135.125 35.1914 134.984 35.5977 134.891 36.0664C134.805 36.5273 134.762 37.0273 134.762 37.5664Z" fill="white"/>
</svg>
