<svg width="25" height="24" viewBox="0 0 25 24" fill="none" xmlns="http://www.w3.org/2000/svg">
<path d="M13.6514 14.625C13.6514 14.8475 13.5853 15.065 13.4614 15.25C13.3376 15.435 13.1615 15.5792 12.9555 15.6644C12.7495 15.7495 12.5228 15.7718 12.3042 15.7284C12.0855 15.685 11.8846 15.5778 11.727 15.4205C11.5693 15.2632 11.4619 15.0627 11.4184 14.8445C11.3749 14.6262 11.3973 14.4 11.4826 14.1945C11.5679 13.9889 11.7124 13.8132 11.8978 13.6896C12.0832 13.566 12.3011 13.5 12.5241 13.5C12.8231 13.5 13.1098 13.6185 13.3212 13.8295C13.5327 14.0405 13.6514 14.3266 13.6514 14.625ZM12.5241 4.5C10.4517 4.5 8.76633 6.01406 8.76633 7.875V8.25C8.76633 8.44891 8.84551 8.63968 8.98646 8.78033C9.1274 8.92098 9.31856 9 9.51789 9C9.71721 9 9.90837 8.92098 10.0493 8.78033C10.1903 8.63968 10.2694 8.44891 10.2694 8.25V7.875C10.2694 6.84375 11.2812 6 12.5241 6C13.767 6 14.7788 6.84375 14.7788 7.875C14.7788 8.90625 13.767 9.75 12.5241 9.75C12.3248 9.75 12.1336 9.82902 11.9927 9.96967C11.8517 10.1103 11.7725 10.3011 11.7725 10.5V11.25C11.7725 11.4489 11.8517 11.6397 11.9927 11.7803C12.1336 11.921 12.3248 12 12.5241 12C12.7234 12 12.9146 11.921 13.0555 11.7803C13.1965 11.6397 13.2756 11.4489 13.2756 11.25V11.1825C14.9892 10.8684 16.2819 9.50437 16.2819 7.875C16.2819 6.01406 14.5965 4.5 12.5241 4.5ZM22.2943 9.75C22.2943 11.6784 21.7213 13.5634 20.6477 15.1668C19.5741 16.7702 18.0483 18.0199 16.263 18.7578C14.4777 19.4958 12.5133 19.6889 10.618 19.3127C8.7228 18.9365 6.98192 18.0079 5.61553 16.6443C4.24915 15.2807 3.31863 13.5434 2.94164 11.6521C2.56466 9.76082 2.75814 7.80042 3.49762 6.01884C4.2371 4.23726 5.48937 2.71451 7.09607 1.64317C8.70277 0.571828 10.5917 0 12.5241 0C15.1145 0.00272983 17.598 1.03084 19.4296 2.85872C21.2613 4.68661 22.2915 7.16498 22.2943 9.75ZM20.7912 9.75C20.7912 8.1183 20.3063 6.52325 19.3979 5.16655C18.4895 3.80984 17.1984 2.75242 15.6878 2.12799C14.1772 1.50357 12.5149 1.34019 10.9113 1.65852C9.30761 1.97685 7.83456 2.76259 6.67839 3.91637C5.52222 5.07015 4.73485 6.54016 4.41587 8.1405C4.09688 9.74085 4.26059 11.3996 4.88631 12.9071C5.51203 14.4146 6.57164 15.7031 7.93115 16.6096C9.29067 17.5161 10.889 18 12.5241 18C14.7159 17.9975 16.8172 17.1275 18.3671 15.5809C19.9169 14.0343 20.7887 11.9373 20.7912 9.75Z" fill="#484848"/>
</svg>
