<svg xmlns="http://www.w3.org/2000/svg" data-name="Layer 1" viewBox="0 0 64 64" x="0px" y="0px" fill="hsla(199, 88%, 87%, 1)" width="130" height="null"><path d="M2.65,42.94,6,44.19V52a1,1,0,0,0,.66.94l25,9a1,1,0,0,0,.68,0l25-9A1,1,0,0,0,58,52V44.19l3.35-1.25a1,1,0,0,0,.57-.55,1,1,0,0,0,0-.8l-4-9a1,1,0,0,0-.6-.54l-5.63-1.8A21,21,0,1,0,11,23a20.82,20.82,0,0,0,1.32,7.25l-5.63,1.8a1,1,0,0,0-.6.54l-4,9a1,1,0,0,0,0,.8A1,1,0,0,0,2.65,42.94ZM56,51.3,33,59.58V45.24l3.11,6.21A1,1,0,0,0,37,52c.12,0,19-7.06,19-7.06ZM24,12a1,1,0,0,1,1-1H39a1,1,0,0,1,1,1V23a1,1,0,0,1-1,1H33v6H31V23a1,1,0,0,1,1-1h6V13H26v4H24Zm9,20v4H31V32ZM13.56,32,32,37.85,50.44,32,53.72,33,32,40,10.28,33ZM8,44.94l18.65,7a1,1,0,0,0,1.24-.49L31,45.24V59.58L8,51.3Z" fill=""></path></svg>